M48
;GenerationSoftware,Autodesk,EAGLE,9.2.0*%
;CreationDate,2022-08-13T09:37:48Z*%
FMAT,2
ICI,OFF
METRIC,TZ,000.000
T10C0.700
T9C0.800
T8C0.914
T7C1.000
T6C1.016
T5C1.050
T4C1.200
T3C1.300
T2C1.500
T1C3.200
%
G90
M71
T1
X67767Y2896
X54204Y36982
X2642Y2794
X2337Y47549
T2
X68032Y15483
X62032Y29683
X56032Y27683
X56032Y15483
X68032Y27683
T3
X20057Y41453
X12827Y4191
X61316Y4089
X56236Y4089
X7747Y4191
T4
X35945Y7042
X40945Y12042
X45945Y4542
X45945Y7042
X35945Y4542
T5
X12607Y41453
T6
X42697Y33731
X42697Y26111
X2896Y44120
X2896Y41580
X2896Y39040
X2896Y36500
T7
X46660Y46584
X49200Y44044
X49200Y46584
X51740Y44044
X51740Y46584
X54280Y44044
X54280Y46584
X56820Y44044
X56820Y46584
X59360Y44044
X59360Y46584
X61900Y44044
X61900Y46584
X64440Y44044
X64440Y46584
X46660Y44044
T8
X7341Y44298
X7341Y46838
T9
X32004Y9525
X49784Y12065
X49784Y9525
X32004Y6985
X32004Y14605
X49784Y14605
X32004Y17145
X49784Y17145
X32004Y4445
X49784Y4445
X32004Y19685
X49784Y19685
X32004Y1905
X49784Y6985
X32004Y12065
X49784Y1905
T10
X40445Y7042
X45945Y12042
X43445Y12042
X35945Y12042
X38445Y12042
M30