M48
;GenerationSoftware,Autodesk,EAGLE,9.6.2*%
;CreationDate,2024-07-25T04:05:17Z*%
FMAT,2
ICI,OFF
METRIC,TZ,000.000
T12C0.350
T11C0.500
T10C0.700
T9C0.800
T8C0.914
T7C1.000
T6C1.016
T5C1.050
T4C1.200
T3C1.300
T2C1.500
T1C3.200
%
G90
M71
T1
X92888Y3988
X4039Y3937
X92837Y44272
X4013Y44323
T2
X43871Y20386
X37871Y6186
X49871Y18386
X49871Y6186
X37871Y18386
T3
X32080Y4115
X81585Y4140
X86665Y4140
X81026Y44145
X86106Y44145
X27000Y4115
X15434Y11532
T4
X63221Y9426
X58221Y4426
X58221Y1926
X68221Y1926
X68221Y4426
T5
X7984Y11532
T6
X42164Y45771
X39395Y39116
X4420Y31598
X39395Y31496
X4420Y36678
X39624Y45771
X4420Y34138
X37084Y45771
X44704Y45771
X4420Y29058
T7
X52273Y45390
X54813Y42850
X54813Y45390
X57353Y42850
X57353Y45390
X52273Y42850
X62433Y42850
X67513Y42850
X59893Y42850
X70053Y42850
X67513Y45390
X70053Y45390
X59893Y45390
X64973Y45390
X64973Y42850
X62433Y45390
T8
X4597Y24613
X4597Y22073
T9
X72085Y1676
X54305Y1676
X54305Y19456
X72085Y4216
X54305Y14376
X54305Y9296
X54305Y6756
X72085Y11836
X54305Y11836
X72085Y14376
X72085Y6756
X54305Y16916
X72085Y19456
X72085Y16916
X72085Y9296
X54305Y4216
T10
X60721Y9426
X58221Y9426
X65721Y9426
X68221Y9426
X62721Y4426
T11
X90665Y3988
X91300Y5575
X94475Y5575
X94475Y2400
X91300Y2400
X1816Y3937
X6236Y44323
X4013Y46545
X4013Y42101
X1791Y44323
X2426Y45910
X5601Y45910
X5601Y42736
X2426Y42736
X92837Y46495
X92837Y42050
X95059Y44272
X90614Y44272
X91249Y45860
X94424Y45860
X94424Y42685
X91249Y42685
X4039Y6159
X4039Y1714
X6261Y3937
X2451Y5524
X5626Y5524
X5626Y2350
X2451Y2350
X92888Y6210
X92888Y1765
X95110Y3988
T12
X3683Y16561
X53315Y31801
X51460Y31877
X28702Y15037
X41808Y25905
X22276Y38278
X20244Y25502
X40488Y40919
X31496Y36855
X22022Y29286
X32639Y29312
X26721Y29388
X22022Y27280
X24105Y24486
X26619Y24486
X12548Y33299
X12471Y37313
X8890Y20244
X18517Y21184
X27076Y22403
X31852Y22276
X36195Y23851
X70129Y26975
X12370Y34341
X63424Y24003
X35001Y26670
X62408Y21514
X18517Y19355
X12167Y28245
X60833Y24257
X44298Y33426
X19939Y21234
X59741Y30074
X41478Y34648
X33096Y30785
X26746Y30836
X24917Y16764
X58064Y22682
X43389Y33630
X57023Y24613
X45263Y33350
X60935Y38989
X30582Y34468
X42164Y41072
X25171Y18186
X22987Y13437
X26416Y18644
X30074Y43180
X20853Y37798
X49251Y36220
X19914Y19406
M30