G04 EAGLE Gerber RS-274X export*
G75*
%MOMM*%
%FSLAX34Y34*%
%LPD*%
%INBottom Copper*%
%IPPOS*%
%AMOC8*
5,1,8,0,0,1.08239X$1,22.5*%
G01*
%ADD10P,2.336880X8X112.500000*%
%ADD11C,2.250000*%
%ADD12C,1.422400*%
%ADD13R,1.950000X1.950000*%
%ADD14C,1.950000*%
%ADD15P,1.632244X8X22.500000*%
%ADD16P,1.814519X8X22.500000*%
%ADD17C,1.524000*%
%ADD18C,6.000000*%
%ADD19C,1.008000*%
%ADD20R,1.168400X1.600200*%
%ADD21C,0.254000*%
%ADD22C,0.756400*%
%ADD23C,2.540000*%
%ADD24C,0.508000*%


D10*
X393954Y314960D03*
X393954Y391160D03*
D11*
X438714Y203862D03*
X378714Y183862D03*
X378714Y61862D03*
X498714Y61862D03*
X498714Y183862D03*
D12*
X607206Y101374D02*
X607206Y87150D01*
X582206Y87150D02*
X582206Y101374D01*
X657206Y101374D02*
X657206Y87150D01*
X682206Y87150D02*
X682206Y101374D01*
X634318Y44262D02*
X620094Y44262D01*
D13*
X270002Y41148D03*
D14*
X320802Y41148D03*
D15*
X522732Y428498D03*
X522732Y453898D03*
X548132Y428498D03*
X548132Y453898D03*
X573532Y428498D03*
X573532Y453898D03*
X598932Y428498D03*
X598932Y453898D03*
X624332Y428498D03*
X624332Y453898D03*
X649732Y428498D03*
X649732Y453898D03*
X675132Y428498D03*
X675132Y453898D03*
X700532Y428498D03*
X700532Y453898D03*
D16*
X543052Y118364D03*
X543052Y92964D03*
X720852Y118364D03*
X720852Y92964D03*
X543052Y67564D03*
X543052Y143764D03*
X720852Y143764D03*
X720852Y67564D03*
X543052Y169164D03*
X720852Y169164D03*
X543052Y42164D03*
X720852Y42164D03*
X543052Y194564D03*
X720852Y194564D03*
X543052Y16764D03*
X720852Y16764D03*
D12*
X53086Y220726D02*
X38862Y220726D01*
X38862Y246126D02*
X53086Y246126D01*
D17*
X51816Y366776D02*
X36576Y366776D01*
X36576Y341376D02*
X51816Y341376D01*
X51816Y315976D02*
X36576Y315976D01*
X36576Y290576D02*
X51816Y290576D01*
D13*
X815848Y41402D03*
D14*
X866648Y41402D03*
D18*
X40132Y443230D03*
D19*
X40132Y465455D03*
X40132Y421005D03*
X62357Y443230D03*
X17907Y443230D03*
X24257Y459105D03*
X56007Y459105D03*
X56007Y427355D03*
X24257Y427355D03*
D18*
X928370Y442722D03*
D19*
X928370Y464947D03*
X928370Y420497D03*
X950595Y442722D03*
X906145Y442722D03*
X912495Y458597D03*
X944245Y458597D03*
X944245Y426847D03*
X912495Y426847D03*
D18*
X40386Y39370D03*
D19*
X40386Y61595D03*
X40386Y17145D03*
X62611Y39370D03*
X18161Y39370D03*
X24511Y55245D03*
X56261Y55245D03*
X56261Y23495D03*
X24511Y23495D03*
D18*
X928878Y39878D03*
D19*
X928878Y62103D03*
X928878Y17653D03*
X951103Y39878D03*
X906653Y39878D03*
X913003Y55753D03*
X944753Y55753D03*
X944753Y24003D03*
X913003Y24003D03*
D13*
X861060Y441452D03*
D14*
X810260Y441452D03*
D20*
X101092Y73660D03*
X85852Y73660D03*
D17*
X447040Y450088D02*
X447040Y465328D01*
X421640Y465328D02*
X421640Y450088D01*
X396240Y450088D02*
X396240Y465328D01*
X370840Y465328D02*
X370840Y450088D01*
D21*
X90208Y195862D02*
X87592Y195862D01*
X90208Y195862D02*
X92625Y196863D01*
X93120Y197358D01*
X179676Y197358D01*
X179591Y197273D01*
X178590Y194856D01*
X178590Y192240D01*
X179591Y189823D01*
X179832Y189582D01*
X179832Y167463D01*
X182957Y164338D01*
X184989Y162306D01*
X245208Y162306D01*
X245449Y162065D01*
X247866Y161064D01*
X250482Y161064D01*
X252899Y162065D01*
X254749Y163915D01*
X255750Y166332D01*
X255750Y168948D01*
X254749Y171365D01*
X252899Y173215D01*
X250482Y174216D01*
X247866Y174216D01*
X246018Y173450D01*
X248602Y176035D01*
X250406Y175288D01*
X253022Y175288D01*
X255439Y176289D01*
X257289Y178139D01*
X258290Y180556D01*
X258290Y183172D01*
X257289Y185589D01*
X255439Y187439D01*
X253022Y188440D01*
X250406Y188440D01*
X247989Y187439D01*
X247748Y187198D01*
X244679Y187198D01*
X239345Y181864D01*
X207949Y181864D01*
X204470Y185343D01*
X204470Y190090D01*
X204711Y190331D01*
X205712Y192748D01*
X205712Y195364D01*
X204886Y197358D01*
X216839Y197358D01*
X218363Y198882D01*
X218363Y198882D01*
X221488Y202007D01*
X221488Y212167D01*
X228015Y218694D01*
X266798Y218694D01*
X267039Y218453D01*
X269456Y217452D01*
X272072Y217452D01*
X274489Y218453D01*
X276339Y220303D01*
X277340Y222720D01*
X277340Y225336D01*
X276339Y227753D01*
X274489Y229603D01*
X272072Y230604D01*
X269456Y230604D01*
X267039Y229603D01*
X266798Y229362D01*
X223597Y229362D01*
X213945Y219710D01*
X210820Y216585D01*
X210820Y208026D01*
X204372Y208026D01*
X204965Y208619D01*
X205966Y211036D01*
X205966Y213652D01*
X204965Y216069D01*
X204216Y216818D01*
X204216Y248635D01*
X206163Y249441D01*
X208013Y251291D01*
X209014Y253708D01*
X209014Y256324D01*
X208013Y258741D01*
X206163Y260591D01*
X203746Y261592D01*
X201130Y261592D01*
X198713Y260591D01*
X196863Y258741D01*
X195862Y256324D01*
X195862Y255983D01*
X193548Y253669D01*
X193548Y215424D01*
X192814Y213652D01*
X192814Y211036D01*
X193815Y208619D01*
X194408Y208026D01*
X190656Y208026D01*
X190741Y208111D01*
X191742Y210528D01*
X191742Y213144D01*
X190741Y215561D01*
X190500Y215802D01*
X190500Y259411D01*
X193725Y262636D01*
X217855Y262636D01*
X221439Y266220D01*
X221526Y266220D01*
X223943Y267221D01*
X225793Y269071D01*
X226794Y271488D01*
X226794Y274104D01*
X225793Y276521D01*
X225200Y277114D01*
X326721Y277114D01*
X332994Y270841D01*
X332994Y263729D01*
X336119Y260604D01*
X344501Y252222D01*
X359841Y252222D01*
X362381Y254762D01*
X365506Y257887D01*
X365506Y324493D01*
X366641Y325628D01*
X385404Y325628D01*
X380365Y320589D01*
X380365Y309331D01*
X388325Y301371D01*
X388620Y301371D01*
X388620Y236143D01*
X373380Y220903D01*
X373380Y196854D01*
X370759Y195768D01*
X366808Y191817D01*
X364670Y186656D01*
X364670Y186436D01*
X299289Y186436D01*
X289306Y176453D01*
X289306Y157403D01*
X288695Y156792D01*
X288328Y156944D01*
X285712Y156944D01*
X283295Y155943D01*
X281445Y154093D01*
X280444Y151676D01*
X280444Y149060D01*
X281445Y146643D01*
X283295Y144793D01*
X285712Y143792D01*
X288328Y143792D01*
X290745Y144793D01*
X290986Y145034D01*
X292023Y145034D01*
X295148Y148159D01*
X299974Y152985D01*
X299974Y172035D01*
X303707Y175768D01*
X366947Y175768D01*
X370759Y171956D01*
X375920Y169818D01*
X381508Y169818D01*
X386669Y171956D01*
X390620Y175907D01*
X392758Y181068D01*
X392758Y186656D01*
X390620Y191817D01*
X386669Y195768D01*
X384048Y196854D01*
X384048Y216485D01*
X399288Y231725D01*
X399288Y301371D01*
X399583Y301371D01*
X407543Y309331D01*
X407543Y320589D01*
X402504Y325628D01*
X405773Y325628D01*
X417830Y313571D01*
X417830Y269629D01*
X420955Y266505D01*
X420955Y266505D01*
X432189Y255270D01*
X429409Y255270D01*
X424660Y260019D01*
X424660Y260360D01*
X423659Y262777D01*
X421809Y264627D01*
X419392Y265628D01*
X416776Y265628D01*
X414359Y264627D01*
X412509Y262777D01*
X411508Y260360D01*
X411508Y257744D01*
X412509Y255327D01*
X414359Y253477D01*
X416776Y252476D01*
X417117Y252476D01*
X421866Y247727D01*
X424991Y244602D01*
X433518Y244602D01*
X453838Y224282D01*
X410972Y224282D01*
X394970Y208280D01*
X394970Y167386D01*
X337820Y167386D01*
X337820Y123952D01*
X318262Y104394D01*
X260604Y104394D01*
X259588Y105410D01*
X259588Y100076D01*
X230378Y70866D01*
X230378Y10160D01*
X55381Y10160D01*
X60522Y13128D01*
X66628Y19234D01*
X70945Y26712D01*
X73180Y35053D01*
X73180Y43687D01*
X70945Y52028D01*
X66628Y59506D01*
X60522Y65612D01*
X53044Y69929D01*
X44703Y72164D01*
X36069Y72164D01*
X27728Y69929D01*
X20250Y65612D01*
X14144Y59506D01*
X10922Y53925D01*
X10922Y197435D01*
X19635Y188722D01*
X80441Y188722D01*
X87585Y195865D01*
X87592Y195862D01*
X272768Y243548D02*
X272768Y246164D01*
X271767Y248581D01*
X269917Y250431D01*
X267500Y251432D01*
X264884Y251432D01*
X262467Y250431D01*
X262226Y250190D01*
X245012Y250190D01*
X244771Y250431D01*
X242354Y251432D01*
X239738Y251432D01*
X237321Y250431D01*
X235471Y248581D01*
X234470Y246164D01*
X234470Y243548D01*
X235471Y241131D01*
X237321Y239281D01*
X239738Y238280D01*
X242354Y238280D01*
X244771Y239281D01*
X245012Y239522D01*
X262226Y239522D01*
X262467Y239281D01*
X264884Y238280D01*
X267500Y238280D01*
X269917Y239281D01*
X271767Y241131D01*
X272768Y243548D01*
X270736Y187744D02*
X270736Y185128D01*
X270736Y187744D02*
X269735Y190161D01*
X267885Y192011D01*
X265468Y193012D01*
X262852Y193012D01*
X260435Y192011D01*
X258585Y190161D01*
X257584Y187744D01*
X257584Y185128D01*
X258585Y182711D01*
X258826Y182470D01*
X258826Y148767D01*
X255093Y145034D01*
X232995Y145034D01*
X229870Y141909D01*
X228903Y140942D01*
X228562Y140942D01*
X226145Y139941D01*
X224295Y138091D01*
X223294Y135674D01*
X223294Y133058D01*
X224295Y130641D01*
X226145Y128791D01*
X228562Y127790D01*
X231178Y127790D01*
X233595Y128791D01*
X235445Y130641D01*
X236446Y133058D01*
X236446Y133399D01*
X237413Y134366D01*
X259511Y134366D01*
X262636Y137491D01*
X269494Y144349D01*
X269494Y182470D01*
X269735Y182711D01*
X270736Y185128D01*
X108091Y62865D02*
X94093Y62865D01*
X108091Y62865D02*
X109728Y64502D01*
X109728Y82818D01*
X108091Y84455D01*
X94093Y84455D01*
X93472Y83834D01*
X92851Y84455D01*
X78853Y84455D01*
X77216Y82818D01*
X77216Y64502D01*
X78853Y62865D01*
X92851Y62865D01*
X93472Y63486D01*
X94093Y62865D01*
X96524Y111998D02*
X96524Y118634D01*
X93985Y124764D01*
X89292Y129457D01*
X83162Y131996D01*
X76526Y131996D01*
X70396Y129457D01*
X65703Y124764D01*
X63164Y118634D01*
X63164Y111998D01*
X65703Y105868D01*
X70396Y101175D01*
X76526Y98636D01*
X83162Y98636D01*
X89292Y101175D01*
X93985Y105868D01*
X96524Y111998D01*
X172274Y111749D02*
X172274Y118883D01*
X169544Y125473D01*
X164501Y130516D01*
X157911Y133246D01*
X150777Y133246D01*
X144187Y130516D01*
X139144Y125473D01*
X136414Y118883D01*
X136414Y111749D01*
X139144Y105159D01*
X144187Y100116D01*
X150777Y97386D01*
X157911Y97386D01*
X164501Y100116D01*
X169544Y105159D01*
X172274Y111749D01*
X319824Y229334D02*
X322241Y228333D01*
X319824Y229334D02*
X317208Y229334D01*
X314791Y228333D01*
X312941Y226483D01*
X311940Y224066D01*
X311940Y221450D01*
X312941Y219033D01*
X314791Y217183D01*
X317208Y216182D01*
X319824Y216182D01*
X322209Y217170D01*
X330631Y217170D01*
X346633Y233172D01*
X357984Y233172D01*
X358225Y232931D01*
X360642Y231930D01*
X363258Y231930D01*
X365675Y232931D01*
X367525Y234781D01*
X368526Y237198D01*
X368526Y239814D01*
X367525Y242231D01*
X365675Y244081D01*
X363258Y245082D01*
X360642Y245082D01*
X358225Y244081D01*
X357984Y243840D01*
X342215Y243840D01*
X326213Y227838D01*
X322736Y227838D01*
X322241Y228333D01*
X538423Y205740D02*
X547681Y205740D01*
X538423Y205740D02*
X531876Y199193D01*
X531876Y189935D01*
X538423Y183388D01*
X547681Y183388D01*
X553523Y189230D01*
X666419Y189230D01*
X676656Y199467D01*
X676656Y251791D01*
X689279Y264414D01*
X697328Y264414D01*
X697569Y264173D01*
X699986Y263172D01*
X702602Y263172D01*
X705019Y264173D01*
X706869Y266023D01*
X707870Y268440D01*
X707870Y271056D01*
X706869Y273473D01*
X705019Y275323D01*
X702602Y276324D01*
X699986Y276324D01*
X697569Y275323D01*
X697328Y275082D01*
X684861Y275082D01*
X669113Y259334D01*
X626795Y259334D01*
X612394Y273735D01*
X612394Y310761D01*
X609269Y313885D01*
X592447Y330708D01*
X557649Y330708D01*
X533059Y355297D01*
X529935Y358422D01*
X508000Y358422D01*
X508000Y373811D01*
X504875Y376936D01*
X491921Y389890D01*
X490339Y389890D01*
X490085Y390144D01*
X477443Y390144D01*
X475488Y392099D01*
X475488Y436803D01*
X472363Y439928D01*
X472363Y439928D01*
X457454Y454837D01*
X457454Y467399D01*
X455869Y471227D01*
X455028Y472068D01*
X913383Y471937D01*
X908234Y468964D01*
X902128Y462858D01*
X897811Y455380D01*
X895576Y447039D01*
X895576Y438405D01*
X897811Y430064D01*
X902128Y422586D01*
X908234Y416480D01*
X915712Y412163D01*
X924053Y409928D01*
X932687Y409928D01*
X941028Y412163D01*
X948506Y416480D01*
X954612Y422586D01*
X958342Y429047D01*
X958342Y54433D01*
X955120Y60014D01*
X949014Y66120D01*
X941536Y70437D01*
X933195Y72672D01*
X924561Y72672D01*
X916220Y70437D01*
X908742Y66120D01*
X902636Y60014D01*
X898319Y52536D01*
X896084Y44195D01*
X896084Y35561D01*
X898319Y27220D01*
X902636Y19742D01*
X908742Y13636D01*
X914763Y10160D01*
X730053Y10160D01*
X732028Y12135D01*
X732028Y21393D01*
X725481Y27940D01*
X716223Y27940D01*
X709676Y21393D01*
X709676Y12135D01*
X711651Y10160D01*
X697302Y10160D01*
X699636Y15795D01*
X699636Y22729D01*
X696982Y29135D01*
X694356Y31762D01*
X696982Y34389D01*
X699636Y40795D01*
X699636Y47729D01*
X696982Y54135D01*
X692079Y59038D01*
X685673Y61692D01*
X678739Y61692D01*
X672333Y59038D01*
X667430Y54135D01*
X664776Y47729D01*
X664776Y40795D01*
X667430Y34389D01*
X670056Y31762D01*
X667430Y29135D01*
X664776Y22729D01*
X664776Y15795D01*
X667110Y10160D01*
X597302Y10160D01*
X599636Y15795D01*
X599636Y22729D01*
X596982Y29135D01*
X594356Y31762D01*
X596982Y34389D01*
X599636Y40795D01*
X599636Y47729D01*
X596982Y54135D01*
X592079Y59038D01*
X585673Y61692D01*
X578739Y61692D01*
X572333Y59038D01*
X567430Y54135D01*
X564776Y47729D01*
X564776Y40795D01*
X567430Y34389D01*
X570056Y31762D01*
X567430Y29135D01*
X564776Y22729D01*
X564776Y15795D01*
X567110Y10160D01*
X552253Y10160D01*
X554228Y12135D01*
X554228Y21393D01*
X547681Y27940D01*
X538423Y27940D01*
X531876Y21393D01*
X531876Y12135D01*
X533851Y10160D01*
X529590Y10160D01*
X529590Y109220D01*
X530606Y110236D01*
X478028Y110236D01*
X477520Y109728D01*
X477520Y200600D01*
X478194Y199926D01*
X493063Y199926D01*
X493380Y199609D01*
X493380Y196854D01*
X490759Y195768D01*
X486808Y191817D01*
X484670Y186656D01*
X484670Y181068D01*
X486808Y175907D01*
X490759Y171956D01*
X495920Y169818D01*
X501508Y169818D01*
X506669Y171956D01*
X510620Y175907D01*
X512758Y181068D01*
X512758Y186656D01*
X510620Y191817D01*
X506669Y195768D01*
X504048Y196854D01*
X504048Y204027D01*
X501545Y206530D01*
X623013Y206530D01*
X625045Y208562D01*
X625386Y208562D01*
X627803Y209563D01*
X629653Y211413D01*
X630654Y213830D01*
X630654Y216446D01*
X629653Y218863D01*
X627803Y220713D01*
X626183Y221384D01*
X639572Y234773D01*
X639572Y236064D01*
X639813Y236305D01*
X640814Y238722D01*
X640814Y241338D01*
X639813Y243755D01*
X637963Y245605D01*
X635546Y246606D01*
X632930Y246606D01*
X630513Y245605D01*
X628663Y243755D01*
X627662Y241338D01*
X627662Y238722D01*
X627888Y238176D01*
X614023Y224310D01*
X586721Y224310D01*
X587220Y225514D01*
X587220Y228130D01*
X586394Y230124D01*
X603427Y230124D01*
X606552Y233249D01*
X609297Y235994D01*
X609638Y235994D01*
X612055Y236995D01*
X613905Y238845D01*
X614906Y241262D01*
X614906Y243878D01*
X613905Y246295D01*
X612055Y248145D01*
X609638Y249146D01*
X607022Y249146D01*
X604605Y248145D01*
X602755Y246295D01*
X601754Y243878D01*
X601754Y243537D01*
X599009Y240792D01*
X574196Y240792D01*
X575805Y242401D01*
X576806Y244818D01*
X576806Y247434D01*
X575805Y249851D01*
X573955Y251701D01*
X571538Y252702D01*
X568922Y252702D01*
X566505Y251701D01*
X564655Y249851D01*
X563654Y247434D01*
X563654Y247396D01*
X496747Y247396D01*
X457962Y286181D01*
X457962Y329536D01*
X458203Y329777D01*
X459204Y332194D01*
X459204Y334810D01*
X458203Y337227D01*
X456353Y339077D01*
X453936Y340078D01*
X451320Y340078D01*
X448903Y339077D01*
X448183Y338357D01*
X446701Y339839D01*
X444284Y340840D01*
X441668Y340840D01*
X439496Y339940D01*
X439463Y340021D01*
X438334Y341150D01*
X522781Y341150D01*
X547370Y316561D01*
X550495Y313436D01*
X585293Y313436D01*
X592074Y306655D01*
X592074Y304702D01*
X591833Y304461D01*
X590832Y302044D01*
X590832Y299428D01*
X591833Y297011D01*
X593683Y295161D01*
X596100Y294160D01*
X598716Y294160D01*
X601133Y295161D01*
X601726Y295754D01*
X601726Y269317D01*
X619252Y251791D01*
X622377Y248666D01*
X665988Y248666D01*
X665988Y203885D01*
X662001Y199898D01*
X553523Y199898D01*
X547681Y205740D01*
X539722Y316700D02*
X539722Y319316D01*
X538721Y321733D01*
X536871Y323583D01*
X534454Y324584D01*
X531838Y324584D01*
X529421Y323583D01*
X529180Y323342D01*
X519332Y323342D01*
X518329Y324345D01*
X515912Y325346D01*
X513296Y325346D01*
X510879Y324345D01*
X509029Y322495D01*
X508028Y320078D01*
X508028Y317462D01*
X509029Y315045D01*
X510879Y313195D01*
X513296Y312194D01*
X515912Y312194D01*
X517071Y312674D01*
X529180Y312674D01*
X529421Y312433D01*
X531838Y311432D01*
X534454Y311432D01*
X536871Y312433D01*
X538721Y314283D01*
X539722Y316700D01*
X817118Y54962D02*
X817118Y42672D01*
X814578Y42672D01*
X814578Y54962D01*
X805596Y54962D01*
X804627Y54702D01*
X803759Y54201D01*
X803049Y53491D01*
X802548Y52623D01*
X802288Y51654D01*
X802288Y42672D01*
X814578Y42672D01*
X814578Y40132D01*
X802288Y40132D01*
X802288Y31150D01*
X802548Y30181D01*
X803049Y29313D01*
X803759Y28603D01*
X804627Y28102D01*
X805596Y27842D01*
X814578Y27842D01*
X814578Y40132D01*
X817118Y40132D01*
X817118Y27842D01*
X826100Y27842D01*
X827069Y28102D01*
X827937Y28603D01*
X828647Y29313D01*
X829148Y30181D01*
X829408Y31150D01*
X829408Y40132D01*
X817118Y40132D01*
X817118Y42672D01*
X829408Y42672D01*
X829408Y51654D01*
X829148Y52623D01*
X828647Y53491D01*
X827937Y54201D01*
X827069Y54702D01*
X826100Y54962D01*
X817118Y54962D01*
X732028Y189935D02*
X732028Y199193D01*
X725481Y205740D01*
X716223Y205740D01*
X709676Y199193D01*
X709676Y189935D01*
X716223Y183388D01*
X725481Y183388D01*
X732028Y189935D01*
X732028Y46793D02*
X732028Y37535D01*
X732028Y46793D02*
X725481Y53340D01*
X716223Y53340D01*
X709676Y46793D01*
X709676Y37535D01*
X716223Y30988D01*
X725481Y30988D01*
X732028Y37535D01*
X676362Y455128D02*
X676362Y465248D01*
X676362Y455128D02*
X673902Y455128D01*
X673902Y465248D01*
X670431Y465248D01*
X663782Y458599D01*
X663782Y455128D01*
X673902Y455128D01*
X673902Y452668D01*
X663782Y452668D01*
X663782Y449197D01*
X670431Y442548D01*
X673902Y442548D01*
X673902Y452668D01*
X676362Y452668D01*
X676362Y442548D01*
X679833Y442548D01*
X686482Y449197D01*
X686482Y452668D01*
X676362Y452668D01*
X676362Y455128D01*
X686482Y455128D01*
X686482Y458599D01*
X679833Y465248D01*
X676362Y465248D01*
X685466Y432778D02*
X685466Y424218D01*
X685466Y432778D02*
X679412Y438832D01*
X670852Y438832D01*
X664798Y432778D01*
X664798Y424218D01*
X670852Y418164D01*
X679412Y418164D01*
X685466Y424218D01*
X625562Y455128D02*
X625562Y465248D01*
X625562Y455128D02*
X623102Y455128D01*
X623102Y465248D01*
X619631Y465248D01*
X612982Y458599D01*
X612982Y455128D01*
X623102Y455128D01*
X623102Y452668D01*
X612982Y452668D01*
X612982Y449197D01*
X619631Y442548D01*
X623102Y442548D01*
X623102Y452668D01*
X625562Y452668D01*
X625562Y442548D01*
X629033Y442548D01*
X635682Y449197D01*
X635682Y452668D01*
X625562Y452668D01*
X625562Y455128D01*
X635682Y455128D01*
X635682Y458599D01*
X629033Y465248D01*
X625562Y465248D01*
X634666Y432778D02*
X634666Y424218D01*
X634666Y432778D02*
X628612Y438832D01*
X620052Y438832D01*
X613998Y432778D01*
X613998Y424218D01*
X620052Y418164D01*
X628612Y418164D01*
X634666Y424218D01*
X574762Y455128D02*
X574762Y465248D01*
X574762Y455128D02*
X572302Y455128D01*
X572302Y465248D01*
X568831Y465248D01*
X562182Y458599D01*
X562182Y455128D01*
X572302Y455128D01*
X572302Y452668D01*
X562182Y452668D01*
X562182Y449197D01*
X568831Y442548D01*
X572302Y442548D01*
X572302Y452668D01*
X574762Y452668D01*
X574762Y442548D01*
X578233Y442548D01*
X584882Y449197D01*
X584882Y452668D01*
X574762Y452668D01*
X574762Y455128D01*
X584882Y455128D01*
X584882Y458599D01*
X578233Y465248D01*
X574762Y465248D01*
X583866Y432778D02*
X583866Y424218D01*
X583866Y432778D02*
X577812Y438832D01*
X569252Y438832D01*
X563198Y432778D01*
X563198Y424218D01*
X569252Y418164D01*
X577812Y418164D01*
X583866Y424218D01*
X523962Y455128D02*
X523962Y465248D01*
X523962Y455128D02*
X521502Y455128D01*
X521502Y465248D01*
X518031Y465248D01*
X511382Y458599D01*
X511382Y455128D01*
X521502Y455128D01*
X521502Y452668D01*
X511382Y452668D01*
X511382Y449197D01*
X518031Y442548D01*
X521502Y442548D01*
X521502Y452668D01*
X523962Y452668D01*
X523962Y442548D01*
X527433Y442548D01*
X534082Y449197D01*
X534082Y452668D01*
X523962Y452668D01*
X523962Y455128D01*
X534082Y455128D01*
X534082Y458599D01*
X527433Y465248D01*
X523962Y465248D01*
X533066Y432778D02*
X533066Y424218D01*
X533066Y432778D02*
X527012Y438832D01*
X518452Y438832D01*
X512398Y432778D01*
X512398Y424218D01*
X518452Y418164D01*
X527012Y418164D01*
X533066Y424218D01*
X572300Y103344D02*
X572300Y85180D01*
X573808Y81539D01*
X576595Y78752D01*
X580236Y77244D01*
X584176Y77244D01*
X587817Y78752D01*
X590604Y81539D01*
X592112Y85180D01*
X592112Y103344D01*
X590604Y106985D01*
X587817Y109772D01*
X584176Y111280D01*
X580236Y111280D01*
X576595Y109772D01*
X573808Y106985D01*
X572300Y103344D01*
X648808Y81539D02*
X651595Y78752D01*
X655236Y77244D01*
X659176Y77244D01*
X662817Y78752D01*
X665604Y81539D01*
X667112Y85180D01*
X667112Y103344D01*
X665604Y106985D01*
X662817Y109772D01*
X659176Y111280D01*
X655236Y111280D01*
X651595Y109772D01*
X648808Y106985D01*
X647305Y103356D01*
X646982Y104135D01*
X642079Y109038D01*
X635673Y111692D01*
X628739Y111692D01*
X622333Y109038D01*
X617704Y104409D01*
X617328Y105567D01*
X616547Y107098D01*
X615537Y108489D01*
X614321Y109705D01*
X612930Y110715D01*
X611399Y111496D01*
X609764Y112027D01*
X608066Y112296D01*
X607686Y112296D01*
X607686Y94742D01*
X606726Y94742D01*
X606726Y112296D01*
X606346Y112296D01*
X604648Y112027D01*
X603013Y111496D01*
X601482Y110715D01*
X600091Y109705D01*
X598875Y108489D01*
X597865Y107098D01*
X597084Y105567D01*
X596553Y103932D01*
X596284Y102234D01*
X596284Y94742D01*
X606726Y94742D01*
X606726Y93782D01*
X596284Y93782D01*
X596284Y86290D01*
X596553Y84592D01*
X597084Y82957D01*
X597865Y81426D01*
X598875Y80035D01*
X600091Y78819D01*
X601482Y77809D01*
X603013Y77028D01*
X604648Y76497D01*
X606346Y76228D01*
X606726Y76228D01*
X606726Y93782D01*
X607686Y93782D01*
X607686Y76228D01*
X608066Y76228D01*
X609764Y76497D01*
X611399Y77028D01*
X612930Y77809D01*
X614321Y78819D01*
X615537Y80035D01*
X616547Y81426D01*
X617328Y82957D01*
X617704Y84115D01*
X622333Y79486D01*
X628739Y76832D01*
X635673Y76832D01*
X642079Y79486D01*
X646982Y84389D01*
X647305Y85168D01*
X648808Y81539D01*
X672300Y85180D02*
X672300Y103344D01*
X672300Y85180D02*
X673808Y81539D01*
X676595Y78752D01*
X680236Y77244D01*
X684176Y77244D01*
X687817Y78752D01*
X690604Y81539D01*
X692112Y85180D01*
X692112Y103344D01*
X690604Y106985D01*
X687817Y109772D01*
X684176Y111280D01*
X680236Y111280D01*
X676595Y109772D01*
X673808Y106985D01*
X672300Y103344D01*
X636288Y34356D02*
X618124Y34356D01*
X636288Y34356D02*
X639929Y35864D01*
X642716Y38651D01*
X644224Y42292D01*
X644224Y46232D01*
X642716Y49873D01*
X639929Y52660D01*
X636288Y54168D01*
X618124Y54168D01*
X614483Y52660D01*
X611696Y49873D01*
X610188Y46232D01*
X610188Y42292D01*
X611696Y38651D01*
X614483Y35864D01*
X618124Y34356D01*
X558466Y424218D02*
X558466Y432778D01*
X552412Y438832D01*
X543852Y438832D01*
X537798Y432778D01*
X537798Y424218D01*
X543852Y418164D01*
X552412Y418164D01*
X558466Y424218D01*
X549362Y455128D02*
X549362Y465248D01*
X549362Y455128D02*
X546902Y455128D01*
X546902Y465248D01*
X543431Y465248D01*
X536782Y458599D01*
X536782Y455128D01*
X546902Y455128D01*
X546902Y452668D01*
X536782Y452668D01*
X536782Y449197D01*
X543431Y442548D01*
X546902Y442548D01*
X546902Y452668D01*
X549362Y452668D01*
X549362Y442548D01*
X552833Y442548D01*
X559482Y449197D01*
X559482Y452668D01*
X549362Y452668D01*
X549362Y455128D01*
X559482Y455128D01*
X559482Y458599D01*
X552833Y465248D01*
X549362Y465248D01*
X609266Y432778D02*
X609266Y424218D01*
X609266Y432778D02*
X603212Y438832D01*
X594652Y438832D01*
X588598Y432778D01*
X588598Y424218D01*
X593598Y419218D01*
X593598Y414605D01*
X604012Y404191D01*
X604012Y393856D01*
X603771Y393615D01*
X602770Y391198D01*
X602770Y388582D01*
X603771Y386165D01*
X605621Y384315D01*
X608038Y383314D01*
X610654Y383314D01*
X613071Y384315D01*
X614921Y386165D01*
X615922Y388582D01*
X615922Y391198D01*
X614921Y393615D01*
X614680Y393856D01*
X614680Y408609D01*
X604266Y419023D01*
X604266Y419218D01*
X609266Y424218D01*
X600162Y455128D02*
X600162Y465248D01*
X600162Y455128D02*
X597702Y455128D01*
X597702Y465248D01*
X594231Y465248D01*
X587582Y458599D01*
X587582Y455128D01*
X597702Y455128D01*
X597702Y452668D01*
X587582Y452668D01*
X587582Y449197D01*
X594231Y442548D01*
X597702Y442548D01*
X597702Y452668D01*
X600162Y452668D01*
X600162Y442548D01*
X603633Y442548D01*
X610282Y449197D01*
X610282Y452668D01*
X600162Y452668D01*
X600162Y455128D01*
X610282Y455128D01*
X610282Y458599D01*
X603633Y465248D01*
X600162Y465248D01*
X660066Y432778D02*
X660066Y424218D01*
X660066Y432778D02*
X654012Y438832D01*
X645452Y438832D01*
X639398Y432778D01*
X639398Y424218D01*
X645452Y418164D01*
X654012Y418164D01*
X660066Y424218D01*
X650962Y455128D02*
X650962Y465248D01*
X650962Y455128D02*
X648502Y455128D01*
X648502Y465248D01*
X645031Y465248D01*
X638382Y458599D01*
X638382Y455128D01*
X648502Y455128D01*
X648502Y452668D01*
X638382Y452668D01*
X638382Y449197D01*
X645031Y442548D01*
X648502Y442548D01*
X648502Y452668D01*
X650962Y452668D01*
X650962Y442548D01*
X654433Y442548D01*
X661082Y449197D01*
X661082Y452668D01*
X650962Y452668D01*
X650962Y455128D01*
X661082Y455128D01*
X661082Y458599D01*
X654433Y465248D01*
X650962Y465248D01*
X710866Y432778D02*
X710866Y424218D01*
X710866Y432778D02*
X704812Y438832D01*
X696252Y438832D01*
X690198Y432778D01*
X690198Y424218D01*
X696252Y418164D01*
X704812Y418164D01*
X710866Y424218D01*
X710866Y449618D02*
X710866Y458178D01*
X704812Y464232D01*
X696252Y464232D01*
X690198Y458178D01*
X690198Y449618D01*
X696252Y443564D01*
X704812Y443564D01*
X710866Y449618D01*
X554228Y122993D02*
X554228Y113735D01*
X554228Y122993D02*
X547681Y129540D01*
X538423Y129540D01*
X531876Y122993D01*
X531876Y113735D01*
X538423Y107188D01*
X547681Y107188D01*
X554228Y113735D01*
X554228Y97593D02*
X554228Y88335D01*
X554228Y97593D02*
X547681Y104140D01*
X538423Y104140D01*
X531876Y97593D01*
X531876Y88335D01*
X538423Y81788D01*
X547681Y81788D01*
X554228Y88335D01*
X732028Y113735D02*
X732028Y122993D01*
X725481Y129540D01*
X716223Y129540D01*
X709676Y122993D01*
X709676Y113735D01*
X716223Y107188D01*
X725481Y107188D01*
X732028Y113735D01*
X732028Y97593D02*
X732028Y88335D01*
X732028Y97593D02*
X725481Y104140D01*
X716223Y104140D01*
X709676Y97593D01*
X709676Y88335D01*
X716223Y81788D01*
X725481Y81788D01*
X732028Y88335D01*
X554228Y72193D02*
X554228Y62935D01*
X554228Y72193D02*
X547681Y78740D01*
X538423Y78740D01*
X531876Y72193D01*
X531876Y62935D01*
X538423Y56388D01*
X547681Y56388D01*
X554228Y62935D01*
X554228Y139135D02*
X554228Y148393D01*
X547681Y154940D01*
X538423Y154940D01*
X531876Y148393D01*
X531876Y139135D01*
X538423Y132588D01*
X547681Y132588D01*
X554228Y139135D01*
X732028Y139135D02*
X732028Y148393D01*
X725481Y154940D01*
X716223Y154940D01*
X709676Y148393D01*
X709676Y139135D01*
X716223Y132588D01*
X725481Y132588D01*
X732028Y139135D01*
X732028Y72193D02*
X732028Y62935D01*
X732028Y72193D02*
X725481Y78740D01*
X716223Y78740D01*
X709676Y72193D01*
X709676Y62935D01*
X716223Y56388D01*
X725481Y56388D01*
X732028Y62935D01*
X554228Y164535D02*
X554228Y173793D01*
X547681Y180340D01*
X538423Y180340D01*
X531876Y173793D01*
X531876Y164535D01*
X538423Y157988D01*
X547681Y157988D01*
X554228Y164535D01*
X732028Y164535D02*
X732028Y173793D01*
X725481Y180340D01*
X716223Y180340D01*
X709676Y173793D01*
X709676Y164535D01*
X716223Y157988D01*
X725481Y157988D01*
X732028Y164535D01*
X543782Y54356D02*
X543782Y42894D01*
X542322Y42894D01*
X542322Y54356D01*
X538002Y54356D01*
X530860Y47214D01*
X530860Y42894D01*
X542322Y42894D01*
X542322Y41434D01*
X530860Y41434D01*
X530860Y37114D01*
X538002Y29972D01*
X542322Y29972D01*
X542322Y41434D01*
X543782Y41434D01*
X543782Y29972D01*
X548102Y29972D01*
X555244Y37114D01*
X555244Y41434D01*
X543782Y41434D01*
X543782Y42894D01*
X555244Y42894D01*
X555244Y47214D01*
X548102Y54356D01*
X543782Y54356D01*
X848516Y450820D02*
X848516Y452359D01*
X848516Y450820D02*
X847925Y450229D01*
X845566Y444534D01*
X845566Y386046D01*
X847925Y380351D01*
X851154Y377122D01*
X851154Y38320D01*
X853513Y32625D01*
X857871Y28267D01*
X863566Y25908D01*
X869730Y25908D01*
X875425Y28267D01*
X879783Y32625D01*
X882142Y38320D01*
X882142Y386622D01*
X879783Y392317D01*
X876554Y395546D01*
X876554Y444534D01*
X874195Y450229D01*
X873604Y450820D01*
X873604Y452359D01*
X871967Y453996D01*
X870428Y453996D01*
X869837Y454587D01*
X864142Y456946D01*
X857978Y456946D01*
X852283Y454587D01*
X851692Y453996D01*
X850153Y453996D01*
X848516Y452359D01*
X811530Y454980D02*
X811530Y442722D01*
X808990Y442722D01*
X808990Y454980D01*
X807085Y454678D01*
X805055Y454019D01*
X803153Y453050D01*
X801426Y451795D01*
X799917Y450286D01*
X798662Y448559D01*
X797693Y446657D01*
X797034Y444627D01*
X796732Y442722D01*
X808990Y442722D01*
X808990Y440182D01*
X796732Y440182D01*
X797034Y438277D01*
X797693Y436247D01*
X798662Y434345D01*
X799917Y432618D01*
X801426Y431109D01*
X803153Y429854D01*
X805055Y428885D01*
X807085Y428226D01*
X808990Y427924D01*
X808990Y440182D01*
X811530Y440182D01*
X811530Y427924D01*
X813435Y428226D01*
X815465Y428885D01*
X817367Y429854D01*
X819094Y431109D01*
X820603Y432618D01*
X821858Y434345D01*
X822827Y436247D01*
X823486Y438277D01*
X823788Y440182D01*
X811530Y440182D01*
X811530Y442722D01*
X823788Y442722D01*
X823486Y444627D01*
X822827Y446657D01*
X821858Y448559D01*
X820603Y450286D01*
X819094Y451795D01*
X817367Y453050D01*
X815465Y454019D01*
X813435Y454678D01*
X811530Y454980D01*
X459663Y431038D02*
X344247Y431038D01*
X341122Y427913D01*
X341122Y427913D01*
X325628Y412419D01*
X325628Y395909D01*
X317831Y388112D01*
X304215Y388112D01*
X306070Y389967D01*
X306070Y427834D01*
X306311Y428075D01*
X307312Y430492D01*
X307312Y433108D01*
X306311Y435525D01*
X304461Y437375D01*
X302044Y438376D01*
X299428Y438376D01*
X297011Y437375D01*
X295161Y435525D01*
X294160Y433108D01*
X294160Y430492D01*
X295161Y428075D01*
X295402Y427834D01*
X295402Y397510D01*
X215723Y397510D01*
X212598Y394385D01*
X206502Y388289D01*
X206502Y384256D01*
X204809Y383555D01*
X202959Y381705D01*
X201958Y379288D01*
X201958Y376672D01*
X202959Y374255D01*
X204809Y372405D01*
X207226Y371404D01*
X209842Y371404D01*
X212259Y372405D01*
X214109Y374255D01*
X214433Y375038D01*
X217170Y377775D01*
X217170Y379085D01*
X217183Y379053D01*
X219033Y377203D01*
X221450Y376202D01*
X224066Y376202D01*
X226483Y377203D01*
X226724Y377444D01*
X322249Y377444D01*
X336296Y391491D01*
X336296Y408001D01*
X348665Y420370D01*
X455245Y420370D01*
X458216Y417399D01*
X458216Y383363D01*
X465582Y375997D01*
X468707Y372872D01*
X482931Y372872D01*
X487172Y368631D01*
X487172Y366170D01*
X486931Y365929D01*
X485930Y363512D01*
X485930Y360896D01*
X486931Y358479D01*
X488781Y356629D01*
X491198Y355628D01*
X493814Y355628D01*
X496231Y356629D01*
X497332Y357730D01*
X497332Y352121D01*
X497635Y351818D01*
X418748Y351818D01*
X418507Y352059D01*
X416090Y353060D01*
X413474Y353060D01*
X411057Y352059D01*
X409207Y350209D01*
X408206Y347792D01*
X408206Y345176D01*
X409149Y342900D01*
X359487Y342900D01*
X350851Y334264D01*
X347726Y331139D01*
X347726Y272871D01*
X346287Y272275D01*
X344437Y270425D01*
X343662Y268554D01*
X343662Y275259D01*
X340537Y278384D01*
X331139Y287782D01*
X330356Y287782D01*
X331965Y289391D01*
X332966Y291808D01*
X332966Y294424D01*
X331965Y296841D01*
X330115Y298691D01*
X327698Y299692D01*
X325082Y299692D01*
X322665Y298691D01*
X322424Y298450D01*
X271936Y298450D01*
X270933Y299453D01*
X268516Y300454D01*
X265900Y300454D01*
X263483Y299453D01*
X261633Y297603D01*
X260632Y295186D01*
X260632Y292570D01*
X261633Y290153D01*
X263483Y288303D01*
X264741Y287782D01*
X224438Y287782D01*
X225793Y289137D01*
X226794Y291554D01*
X226794Y294170D01*
X225793Y296587D01*
X225552Y296828D01*
X225552Y339421D01*
X234873Y348742D01*
X300580Y348742D01*
X300241Y348403D01*
X299240Y345986D01*
X299240Y343370D01*
X300241Y340953D01*
X302091Y339103D01*
X304508Y338102D01*
X307124Y338102D01*
X309541Y339103D01*
X311052Y340614D01*
X318167Y340614D01*
X337979Y360426D01*
X404273Y360426D01*
X406654Y362807D01*
X425704Y381857D01*
X425704Y405482D01*
X427215Y406993D01*
X428216Y409410D01*
X428216Y412026D01*
X427215Y414443D01*
X425365Y416293D01*
X422948Y417294D01*
X420332Y417294D01*
X417915Y416293D01*
X416065Y414443D01*
X415064Y412026D01*
X415064Y409410D01*
X416065Y406993D01*
X417576Y405482D01*
X417576Y385223D01*
X417322Y384969D01*
X417322Y402495D01*
X414941Y404876D01*
X414941Y404876D01*
X411452Y408365D01*
X411452Y410502D01*
X410451Y412919D01*
X408601Y414769D01*
X406184Y415770D01*
X403568Y415770D01*
X401151Y414769D01*
X399301Y412919D01*
X398300Y410502D01*
X398300Y407886D01*
X399301Y405469D01*
X401151Y403619D01*
X403568Y402618D01*
X405705Y402618D01*
X409194Y399129D01*
X409194Y384207D01*
X397605Y372618D01*
X320196Y372618D01*
X318685Y374129D01*
X316268Y375130D01*
X313652Y375130D01*
X311235Y374129D01*
X309385Y372279D01*
X308384Y369862D01*
X308384Y367246D01*
X309385Y364829D01*
X309626Y364588D01*
X309626Y362381D01*
X306655Y359410D01*
X230455Y359410D01*
X227330Y356285D01*
X214884Y343839D01*
X214884Y296828D01*
X214643Y296587D01*
X213642Y294170D01*
X213642Y291554D01*
X214643Y289137D01*
X215998Y287782D01*
X125632Y287782D01*
X125391Y288023D01*
X122974Y289024D01*
X120358Y289024D01*
X117941Y288023D01*
X116091Y286173D01*
X115090Y283756D01*
X115090Y281140D01*
X116091Y278723D01*
X117941Y276873D01*
X120358Y275872D01*
X122974Y275872D01*
X125391Y276873D01*
X125632Y277114D01*
X215236Y277114D01*
X214643Y276521D01*
X213642Y274104D01*
X213642Y273509D01*
X213437Y273304D01*
X189307Y273304D01*
X179832Y263829D01*
X179832Y215802D01*
X179591Y215561D01*
X178590Y213144D01*
X178590Y210528D01*
X179591Y208111D01*
X179676Y208026D01*
X92593Y208026D01*
X90208Y209014D01*
X87592Y209014D01*
X85207Y208026D01*
X84659Y208026D01*
X81534Y204901D01*
X76023Y199390D01*
X24053Y199390D01*
X20066Y203377D01*
X20066Y357963D01*
X23545Y361442D01*
X27513Y361442D01*
X27747Y360877D01*
X30677Y357947D01*
X34505Y356362D01*
X53887Y356362D01*
X57715Y357947D01*
X60645Y360877D01*
X61194Y362204D01*
X121335Y362204D01*
X124460Y365329D01*
X125681Y366550D01*
X126022Y366550D01*
X128439Y367551D01*
X130289Y369401D01*
X131290Y371818D01*
X131290Y374434D01*
X130289Y376851D01*
X128439Y378701D01*
X126022Y379702D01*
X123406Y379702D01*
X120989Y378701D01*
X119139Y376851D01*
X118138Y374434D01*
X118138Y374093D01*
X116917Y372872D01*
X60448Y372872D01*
X57715Y375605D01*
X53887Y377190D01*
X34505Y377190D01*
X30677Y375605D01*
X27747Y372675D01*
X27513Y372110D01*
X19127Y372110D01*
X12523Y365506D01*
X10922Y363905D01*
X10922Y428235D01*
X13890Y423094D01*
X19996Y416988D01*
X27474Y412671D01*
X35815Y410436D01*
X44449Y410436D01*
X52790Y412671D01*
X60268Y416988D01*
X66374Y423094D01*
X70691Y430572D01*
X72926Y438913D01*
X72926Y447547D01*
X70691Y455888D01*
X66374Y463366D01*
X60268Y469472D01*
X55574Y472182D01*
X104310Y472168D01*
X104310Y424072D01*
X105054Y423328D01*
X105918Y423328D01*
X105918Y413512D01*
X286004Y413512D01*
X286004Y423328D01*
X286106Y423328D01*
X286850Y424072D01*
X286850Y472116D01*
X361628Y472094D01*
X361064Y471319D01*
X360247Y469716D01*
X359691Y468005D01*
X359410Y466228D01*
X359410Y458978D01*
X369570Y458978D01*
X369570Y456438D01*
X359410Y456438D01*
X359410Y449188D01*
X359691Y447411D01*
X360247Y445700D01*
X361064Y444097D01*
X362122Y442642D01*
X363394Y441370D01*
X364849Y440312D01*
X366452Y439495D01*
X368163Y438939D01*
X369570Y438717D01*
X369570Y456438D01*
X372110Y456438D01*
X372110Y438717D01*
X373517Y438939D01*
X375228Y439495D01*
X376831Y440312D01*
X378286Y441370D01*
X379558Y442642D01*
X380616Y444097D01*
X381433Y445700D01*
X381989Y447411D01*
X382270Y449188D01*
X382270Y456438D01*
X372110Y456438D01*
X372110Y458978D01*
X382270Y458978D01*
X382270Y466228D01*
X381989Y468005D01*
X381433Y469716D01*
X380616Y471319D01*
X380056Y472089D01*
X388271Y472087D01*
X387411Y471227D01*
X385826Y467399D01*
X385826Y448017D01*
X387411Y444189D01*
X390341Y441259D01*
X394169Y439674D01*
X398311Y439674D01*
X402139Y441259D01*
X405069Y444189D01*
X406654Y448017D01*
X406654Y467399D01*
X405069Y471227D01*
X404213Y472082D01*
X413664Y472080D01*
X412811Y471227D01*
X411226Y467399D01*
X411226Y448017D01*
X412811Y444189D01*
X415741Y441259D01*
X419569Y439674D01*
X423711Y439674D01*
X427539Y441259D01*
X430469Y444189D01*
X432054Y448017D01*
X432054Y467399D01*
X430469Y471227D01*
X429621Y472075D01*
X439057Y472072D01*
X438211Y471227D01*
X436626Y467399D01*
X436626Y448017D01*
X438211Y444189D01*
X441141Y441259D01*
X444969Y439674D01*
X449111Y439674D01*
X452939Y441259D01*
X454442Y442763D01*
X464820Y432385D01*
X464820Y425881D01*
X459663Y431038D01*
X271187Y313931D02*
X268770Y314932D01*
X266154Y314932D01*
X263737Y313931D01*
X261887Y312081D01*
X260886Y309664D01*
X260886Y307048D01*
X261887Y304631D01*
X263737Y302781D01*
X266154Y301780D01*
X268770Y301780D01*
X271187Y302781D01*
X271428Y303022D01*
X326488Y303022D01*
X327237Y302273D01*
X329654Y301272D01*
X332270Y301272D01*
X334687Y302273D01*
X336537Y304123D01*
X337538Y306540D01*
X337538Y309156D01*
X336537Y311573D01*
X334687Y313423D01*
X332270Y314424D01*
X329654Y314424D01*
X327882Y313690D01*
X271428Y313690D01*
X271187Y313931D01*
X63983Y219710D02*
X63739Y218168D01*
X63983Y219710D02*
X46990Y219710D01*
X46990Y221742D01*
X63983Y221742D01*
X63739Y223284D01*
X63208Y224919D01*
X62427Y226450D01*
X61417Y227841D01*
X60201Y229057D01*
X58810Y230067D01*
X57279Y230848D01*
X55644Y231379D01*
X53946Y231648D01*
X46990Y231648D01*
X46990Y221742D01*
X44958Y221742D01*
X44958Y231648D01*
X38002Y231648D01*
X36304Y231379D01*
X34669Y230848D01*
X33138Y230067D01*
X31747Y229057D01*
X30531Y227841D01*
X29521Y226450D01*
X28740Y224919D01*
X28209Y223284D01*
X27965Y221742D01*
X44958Y221742D01*
X44958Y219710D01*
X27965Y219710D01*
X28209Y218168D01*
X28740Y216533D01*
X29521Y215002D01*
X30531Y213611D01*
X31747Y212395D01*
X33138Y211385D01*
X34669Y210604D01*
X36304Y210073D01*
X38002Y209804D01*
X44958Y209804D01*
X44958Y219710D01*
X46990Y219710D01*
X46990Y209804D01*
X53946Y209804D01*
X55644Y210073D01*
X57279Y210604D01*
X58810Y211385D01*
X60201Y212395D01*
X61417Y213611D01*
X62427Y215002D01*
X63208Y216533D01*
X63739Y218168D01*
X407543Y385531D02*
X407543Y396789D01*
X399583Y404749D01*
X388325Y404749D01*
X380365Y396789D01*
X380365Y385531D01*
X388325Y377571D01*
X399583Y377571D01*
X407543Y385531D01*
X55056Y256032D02*
X36892Y256032D01*
X33251Y254524D01*
X30464Y251737D01*
X28956Y248096D01*
X28956Y244156D01*
X30464Y240515D01*
X33251Y237728D01*
X36892Y236220D01*
X55056Y236220D01*
X58697Y237728D01*
X61484Y240515D01*
X62992Y244156D01*
X62992Y248096D01*
X61484Y251737D01*
X58697Y254524D01*
X55056Y256032D01*
X62965Y287899D02*
X63187Y289306D01*
X45466Y289306D01*
X45466Y291846D01*
X63187Y291846D01*
X62965Y293253D01*
X62409Y294964D01*
X61592Y296567D01*
X60534Y298022D01*
X59262Y299294D01*
X57807Y300352D01*
X56204Y301169D01*
X54493Y301725D01*
X52716Y302006D01*
X45466Y302006D01*
X45466Y291846D01*
X42926Y291846D01*
X42926Y302006D01*
X35676Y302006D01*
X33899Y301725D01*
X32188Y301169D01*
X30585Y300352D01*
X29130Y299294D01*
X27858Y298022D01*
X26800Y296567D01*
X25983Y294964D01*
X25427Y293253D01*
X25205Y291846D01*
X42926Y291846D01*
X42926Y289306D01*
X25205Y289306D01*
X25427Y287899D01*
X25983Y286188D01*
X26800Y284585D01*
X27858Y283130D01*
X29130Y281858D01*
X30585Y280800D01*
X32188Y279983D01*
X33899Y279427D01*
X35676Y279146D01*
X42926Y279146D01*
X42926Y289306D01*
X45466Y289306D01*
X45466Y279146D01*
X52716Y279146D01*
X54493Y279427D01*
X56204Y279983D01*
X57807Y280800D01*
X59262Y281858D01*
X60534Y283130D01*
X61592Y284585D01*
X62409Y286188D01*
X62965Y287899D01*
X130274Y342100D02*
X130274Y344716D01*
X129273Y347133D01*
X127423Y348983D01*
X125006Y349984D01*
X122390Y349984D01*
X119973Y348983D01*
X119732Y348742D01*
X59178Y348742D01*
X57715Y350205D01*
X53887Y351790D01*
X34505Y351790D01*
X30677Y350205D01*
X27747Y347275D01*
X26162Y343447D01*
X26162Y339305D01*
X27747Y335477D01*
X30677Y332547D01*
X34505Y330962D01*
X53887Y330962D01*
X57715Y332547D01*
X60645Y335477D01*
X61720Y338074D01*
X79325Y338074D01*
X66040Y324789D01*
X66040Y321487D01*
X65863Y321310D01*
X60879Y321310D01*
X60645Y321875D01*
X57715Y324805D01*
X53887Y326390D01*
X34505Y326390D01*
X30677Y324805D01*
X27747Y321875D01*
X26162Y318047D01*
X26162Y313905D01*
X27747Y310077D01*
X30677Y307147D01*
X34505Y305562D01*
X53887Y305562D01*
X57715Y307147D01*
X60645Y310077D01*
X60879Y310642D01*
X70281Y310642D01*
X73406Y313767D01*
X76708Y317069D01*
X76708Y320371D01*
X83997Y327660D01*
X121510Y327660D01*
X121751Y327419D01*
X124168Y326418D01*
X126784Y326418D01*
X129201Y327419D01*
X131051Y329269D01*
X132052Y331686D01*
X132052Y334302D01*
X131051Y336719D01*
X129201Y338569D01*
X128464Y338874D01*
X129273Y339683D01*
X130274Y342100D01*
X58568Y12000D02*
X230378Y12000D01*
X529590Y12000D02*
X532011Y12000D01*
X554093Y12000D02*
X566348Y12000D01*
X598064Y12000D02*
X666348Y12000D01*
X698064Y12000D02*
X709811Y12000D01*
X731893Y12000D02*
X911576Y12000D01*
X230378Y16000D02*
X63394Y16000D01*
X529590Y16000D02*
X531876Y16000D01*
X554228Y16000D02*
X564776Y16000D01*
X599636Y16000D02*
X664776Y16000D01*
X699636Y16000D02*
X709676Y16000D01*
X732028Y16000D02*
X906378Y16000D01*
X230378Y20000D02*
X67070Y20000D01*
X529590Y20000D02*
X531876Y20000D01*
X554228Y20000D02*
X564776Y20000D01*
X599636Y20000D02*
X664776Y20000D01*
X699636Y20000D02*
X709676Y20000D01*
X732028Y20000D02*
X902487Y20000D01*
X230378Y24000D02*
X69379Y24000D01*
X529590Y24000D02*
X534483Y24000D01*
X551621Y24000D02*
X565302Y24000D01*
X599110Y24000D02*
X665302Y24000D01*
X699110Y24000D02*
X712283Y24000D01*
X729421Y24000D02*
X900178Y24000D01*
X230378Y28000D02*
X71290Y28000D01*
X529590Y28000D02*
X566959Y28000D01*
X597453Y28000D02*
X666959Y28000D01*
X697453Y28000D02*
X805007Y28000D01*
X814578Y28000D02*
X817118Y28000D01*
X826689Y28000D02*
X858515Y28000D01*
X874780Y28000D02*
X898110Y28000D01*
X230378Y32000D02*
X72362Y32000D01*
X529590Y32000D02*
X535974Y32000D01*
X542322Y32000D02*
X543782Y32000D01*
X550130Y32000D02*
X569818Y32000D01*
X594594Y32000D02*
X669818Y32000D01*
X694594Y32000D02*
X715211Y32000D01*
X726493Y32000D02*
X802288Y32000D01*
X814578Y32000D02*
X817118Y32000D01*
X829408Y32000D02*
X854138Y32000D01*
X879158Y32000D02*
X897038Y32000D01*
X230378Y36000D02*
X73180Y36000D01*
X529590Y36000D02*
X531974Y36000D01*
X542322Y36000D02*
X543782Y36000D01*
X554130Y36000D02*
X566762Y36000D01*
X597650Y36000D02*
X614347Y36000D01*
X640065Y36000D02*
X666762Y36000D01*
X697650Y36000D02*
X711211Y36000D01*
X730493Y36000D02*
X802288Y36000D01*
X814578Y36000D02*
X817118Y36000D01*
X829408Y36000D02*
X852115Y36000D01*
X881181Y36000D02*
X896084Y36000D01*
X230378Y40000D02*
X73180Y40000D01*
X529590Y40000D02*
X530860Y40000D01*
X542322Y40000D02*
X543782Y40000D01*
X555244Y40000D02*
X565105Y40000D01*
X599307Y40000D02*
X611137Y40000D01*
X643275Y40000D02*
X665105Y40000D01*
X699307Y40000D02*
X709676Y40000D01*
X732028Y40000D02*
X802288Y40000D01*
X814578Y40000D02*
X817118Y40000D01*
X829408Y40000D02*
X851154Y40000D01*
X882142Y40000D02*
X896084Y40000D01*
X230378Y44000D02*
X73096Y44000D01*
X529590Y44000D02*
X530860Y44000D01*
X542322Y44000D02*
X543782Y44000D01*
X555244Y44000D02*
X564776Y44000D01*
X599636Y44000D02*
X610188Y44000D01*
X644224Y44000D02*
X664776Y44000D01*
X699636Y44000D02*
X709676Y44000D01*
X732028Y44000D02*
X802288Y44000D01*
X814578Y44000D02*
X817118Y44000D01*
X829408Y44000D02*
X851154Y44000D01*
X882142Y44000D02*
X896084Y44000D01*
X230378Y48000D02*
X72024Y48000D01*
X529590Y48000D02*
X531646Y48000D01*
X542322Y48000D02*
X543782Y48000D01*
X554458Y48000D02*
X564888Y48000D01*
X599524Y48000D02*
X610920Y48000D01*
X643492Y48000D02*
X664888Y48000D01*
X699524Y48000D02*
X710883Y48000D01*
X730821Y48000D02*
X802288Y48000D01*
X814578Y48000D02*
X817118Y48000D01*
X829408Y48000D02*
X851154Y48000D01*
X882142Y48000D02*
X897103Y48000D01*
X230378Y52000D02*
X70953Y52000D01*
X529590Y52000D02*
X535646Y52000D01*
X542322Y52000D02*
X543782Y52000D01*
X550458Y52000D02*
X566545Y52000D01*
X597867Y52000D02*
X613823Y52000D01*
X640589Y52000D02*
X666545Y52000D01*
X697867Y52000D02*
X714883Y52000D01*
X726821Y52000D02*
X802381Y52000D01*
X814578Y52000D02*
X817118Y52000D01*
X829315Y52000D02*
X851154Y52000D01*
X882142Y52000D02*
X898175Y52000D01*
X12120Y56000D02*
X10922Y56000D01*
X68652Y56000D02*
X230378Y56000D01*
X529590Y56000D02*
X569294Y56000D01*
X595118Y56000D02*
X669294Y56000D01*
X695118Y56000D02*
X851154Y56000D01*
X882142Y56000D02*
X900319Y56000D01*
X957437Y56000D02*
X958342Y56000D01*
X14638Y60000D02*
X10922Y60000D01*
X66134Y60000D02*
X230378Y60000D01*
X529590Y60000D02*
X534811Y60000D01*
X551293Y60000D02*
X574654Y60000D01*
X589758Y60000D02*
X674654Y60000D01*
X689758Y60000D02*
X712611Y60000D01*
X729093Y60000D02*
X851154Y60000D01*
X882142Y60000D02*
X902628Y60000D01*
X955128Y60000D02*
X958342Y60000D01*
X18638Y64000D02*
X10922Y64000D01*
X62134Y64000D02*
X77718Y64000D01*
X109226Y64000D02*
X230378Y64000D01*
X529590Y64000D02*
X531876Y64000D01*
X554228Y64000D02*
X709676Y64000D01*
X732028Y64000D02*
X851154Y64000D01*
X882142Y64000D02*
X906622Y64000D01*
X951134Y64000D02*
X958342Y64000D01*
X24387Y68000D02*
X10922Y68000D01*
X56385Y68000D02*
X77216Y68000D01*
X109728Y68000D02*
X230378Y68000D01*
X529590Y68000D02*
X531876Y68000D01*
X554228Y68000D02*
X709676Y68000D01*
X732028Y68000D02*
X851154Y68000D01*
X882142Y68000D02*
X911999Y68000D01*
X945757Y68000D02*
X958342Y68000D01*
X35457Y72000D02*
X10922Y72000D01*
X45315Y72000D02*
X77216Y72000D01*
X109728Y72000D02*
X231512Y72000D01*
X529590Y72000D02*
X531876Y72000D01*
X554228Y72000D02*
X709676Y72000D01*
X732028Y72000D02*
X851154Y72000D01*
X882142Y72000D02*
X922053Y72000D01*
X935703Y72000D02*
X958342Y72000D01*
X77216Y76000D02*
X10922Y76000D01*
X109728Y76000D02*
X235512Y76000D01*
X529590Y76000D02*
X535683Y76000D01*
X550421Y76000D02*
X713483Y76000D01*
X728221Y76000D02*
X851154Y76000D01*
X882142Y76000D02*
X958342Y76000D01*
X77216Y80000D02*
X10922Y80000D01*
X109728Y80000D02*
X239512Y80000D01*
X529590Y80000D02*
X575347Y80000D01*
X589065Y80000D02*
X598910Y80000D01*
X606726Y80000D02*
X607686Y80000D01*
X615502Y80000D02*
X621818Y80000D01*
X642594Y80000D02*
X650347Y80000D01*
X664065Y80000D02*
X675347Y80000D01*
X689065Y80000D02*
X851154Y80000D01*
X882142Y80000D02*
X958342Y80000D01*
X78398Y84000D02*
X10922Y84000D01*
X93306Y84000D02*
X93638Y84000D01*
X108546Y84000D02*
X243512Y84000D01*
X529590Y84000D02*
X536211Y84000D01*
X549893Y84000D02*
X572789Y84000D01*
X591623Y84000D02*
X596745Y84000D01*
X606726Y84000D02*
X607686Y84000D01*
X617667Y84000D02*
X617818Y84000D01*
X646594Y84000D02*
X647789Y84000D01*
X666623Y84000D02*
X672789Y84000D01*
X691623Y84000D02*
X714011Y84000D01*
X727693Y84000D02*
X851154Y84000D01*
X882142Y84000D02*
X958342Y84000D01*
X247512Y88000D02*
X10922Y88000D01*
X529590Y88000D02*
X532211Y88000D01*
X553893Y88000D02*
X572300Y88000D01*
X592112Y88000D02*
X596284Y88000D01*
X606726Y88000D02*
X607686Y88000D01*
X667112Y88000D02*
X672300Y88000D01*
X692112Y88000D02*
X710011Y88000D01*
X731693Y88000D02*
X851154Y88000D01*
X882142Y88000D02*
X958342Y88000D01*
X251512Y92000D02*
X10922Y92000D01*
X529590Y92000D02*
X531876Y92000D01*
X554228Y92000D02*
X572300Y92000D01*
X592112Y92000D02*
X596284Y92000D01*
X606726Y92000D02*
X607686Y92000D01*
X667112Y92000D02*
X672300Y92000D01*
X692112Y92000D02*
X709676Y92000D01*
X732028Y92000D02*
X851154Y92000D01*
X882142Y92000D02*
X958342Y92000D01*
X255512Y96000D02*
X10922Y96000D01*
X529590Y96000D02*
X531876Y96000D01*
X554228Y96000D02*
X572300Y96000D01*
X592112Y96000D02*
X596284Y96000D01*
X606726Y96000D02*
X607686Y96000D01*
X667112Y96000D02*
X672300Y96000D01*
X692112Y96000D02*
X709676Y96000D01*
X732028Y96000D02*
X851154Y96000D01*
X882142Y96000D02*
X958342Y96000D01*
X73233Y100000D02*
X10922Y100000D01*
X86455Y100000D02*
X144467Y100000D01*
X164221Y100000D02*
X259512Y100000D01*
X529590Y100000D02*
X534283Y100000D01*
X551821Y100000D02*
X572300Y100000D01*
X592112Y100000D02*
X596284Y100000D01*
X606726Y100000D02*
X607686Y100000D01*
X667112Y100000D02*
X672300Y100000D01*
X692112Y100000D02*
X712083Y100000D01*
X729621Y100000D02*
X851154Y100000D01*
X882142Y100000D02*
X958342Y100000D01*
X67571Y104000D02*
X10922Y104000D01*
X92117Y104000D02*
X140303Y104000D01*
X168385Y104000D02*
X259588Y104000D01*
X529590Y104000D02*
X538283Y104000D01*
X547821Y104000D02*
X572572Y104000D01*
X591840Y104000D02*
X596575Y104000D01*
X606726Y104000D02*
X607686Y104000D01*
X647038Y104000D02*
X647572Y104000D01*
X666840Y104000D02*
X672572Y104000D01*
X691840Y104000D02*
X716083Y104000D01*
X725621Y104000D02*
X851154Y104000D01*
X882142Y104000D02*
X958342Y104000D01*
X64820Y108000D02*
X10922Y108000D01*
X94868Y108000D02*
X137967Y108000D01*
X170721Y108000D02*
X321868Y108000D01*
X529590Y108000D02*
X537611Y108000D01*
X548493Y108000D02*
X574823Y108000D01*
X589589Y108000D02*
X598520Y108000D01*
X606726Y108000D02*
X607686Y108000D01*
X615892Y108000D02*
X621294Y108000D01*
X643118Y108000D02*
X649823Y108000D01*
X664589Y108000D02*
X674823Y108000D01*
X689589Y108000D02*
X715411Y108000D01*
X726293Y108000D02*
X851154Y108000D01*
X882142Y108000D02*
X958342Y108000D01*
X63164Y112000D02*
X10922Y112000D01*
X96524Y112000D02*
X136414Y112000D01*
X172274Y112000D02*
X325868Y112000D01*
X477520Y112000D02*
X533611Y112000D01*
X552493Y112000D02*
X604565Y112000D01*
X606726Y112000D02*
X607686Y112000D01*
X609847Y112000D02*
X711411Y112000D01*
X730293Y112000D02*
X851154Y112000D01*
X882142Y112000D02*
X958342Y112000D01*
X63164Y116000D02*
X10922Y116000D01*
X96524Y116000D02*
X136414Y116000D01*
X172274Y116000D02*
X329868Y116000D01*
X477520Y116000D02*
X531876Y116000D01*
X554228Y116000D02*
X709676Y116000D01*
X732028Y116000D02*
X851154Y116000D01*
X882142Y116000D02*
X958342Y116000D01*
X63730Y120000D02*
X10922Y120000D01*
X95958Y120000D02*
X136877Y120000D01*
X171811Y120000D02*
X333868Y120000D01*
X477520Y120000D02*
X531876Y120000D01*
X554228Y120000D02*
X709676Y120000D01*
X732028Y120000D02*
X851154Y120000D01*
X882142Y120000D02*
X958342Y120000D01*
X65387Y124000D02*
X10922Y124000D01*
X94301Y124000D02*
X138534Y124000D01*
X170154Y124000D02*
X337820Y124000D01*
X477520Y124000D02*
X532883Y124000D01*
X553221Y124000D02*
X710683Y124000D01*
X731021Y124000D02*
X851154Y124000D01*
X882142Y124000D02*
X958342Y124000D01*
X68939Y128000D02*
X10922Y128000D01*
X90749Y128000D02*
X141671Y128000D01*
X167017Y128000D02*
X228055Y128000D01*
X231685Y128000D02*
X337820Y128000D01*
X477520Y128000D02*
X536883Y128000D01*
X549221Y128000D02*
X714683Y128000D01*
X727021Y128000D02*
X851154Y128000D01*
X882142Y128000D02*
X958342Y128000D01*
X147769Y132000D02*
X10922Y132000D01*
X160919Y132000D02*
X223732Y132000D01*
X236008Y132000D02*
X337820Y132000D01*
X477520Y132000D02*
X851154Y132000D01*
X882142Y132000D02*
X958342Y132000D01*
X223429Y136000D02*
X10922Y136000D01*
X261145Y136000D02*
X337820Y136000D01*
X477520Y136000D02*
X535011Y136000D01*
X551093Y136000D02*
X712811Y136000D01*
X728893Y136000D02*
X851154Y136000D01*
X882142Y136000D02*
X958342Y136000D01*
X226288Y140000D02*
X10922Y140000D01*
X265145Y140000D02*
X337820Y140000D01*
X477520Y140000D02*
X531876Y140000D01*
X554228Y140000D02*
X709676Y140000D01*
X732028Y140000D02*
X851154Y140000D01*
X882142Y140000D02*
X958342Y140000D01*
X231961Y144000D02*
X10922Y144000D01*
X269145Y144000D02*
X285210Y144000D01*
X288830Y144000D02*
X337820Y144000D01*
X477520Y144000D02*
X531876Y144000D01*
X554228Y144000D02*
X709676Y144000D01*
X732028Y144000D02*
X851154Y144000D01*
X882142Y144000D02*
X958342Y144000D01*
X258059Y148000D02*
X10922Y148000D01*
X269494Y148000D02*
X280883Y148000D01*
X294989Y148000D02*
X337820Y148000D01*
X477520Y148000D02*
X531876Y148000D01*
X554228Y148000D02*
X709676Y148000D01*
X732028Y148000D02*
X851154Y148000D01*
X882142Y148000D02*
X958342Y148000D01*
X258826Y152000D02*
X10922Y152000D01*
X269494Y152000D02*
X280578Y152000D01*
X298989Y152000D02*
X337820Y152000D01*
X477520Y152000D02*
X535483Y152000D01*
X550621Y152000D02*
X713283Y152000D01*
X728421Y152000D02*
X851154Y152000D01*
X882142Y152000D02*
X958342Y152000D01*
X258826Y156000D02*
X10922Y156000D01*
X269494Y156000D02*
X283433Y156000D01*
X299974Y156000D02*
X337820Y156000D01*
X477520Y156000D02*
X851154Y156000D01*
X882142Y156000D02*
X958342Y156000D01*
X258826Y160000D02*
X10922Y160000D01*
X269494Y160000D02*
X289306Y160000D01*
X299974Y160000D02*
X337820Y160000D01*
X477520Y160000D02*
X536411Y160000D01*
X549693Y160000D02*
X714211Y160000D01*
X727493Y160000D02*
X851154Y160000D01*
X882142Y160000D02*
X958342Y160000D01*
X183295Y164000D02*
X10922Y164000D01*
X254784Y164000D02*
X258826Y164000D01*
X269494Y164000D02*
X289306Y164000D01*
X299974Y164000D02*
X337820Y164000D01*
X477520Y164000D02*
X532411Y164000D01*
X553693Y164000D02*
X710211Y164000D01*
X731493Y164000D02*
X851154Y164000D01*
X882142Y164000D02*
X958342Y164000D01*
X179832Y168000D02*
X10922Y168000D01*
X255750Y168000D02*
X258826Y168000D01*
X269494Y168000D02*
X289306Y168000D01*
X299974Y168000D02*
X394970Y168000D01*
X477520Y168000D02*
X531876Y168000D01*
X554228Y168000D02*
X709676Y168000D01*
X732028Y168000D02*
X851154Y168000D01*
X882142Y168000D02*
X958342Y168000D01*
X179832Y172000D02*
X10922Y172000D01*
X254114Y172000D02*
X258826Y172000D01*
X269494Y172000D02*
X289306Y172000D01*
X299974Y172000D02*
X370715Y172000D01*
X386713Y172000D02*
X394970Y172000D01*
X477520Y172000D02*
X490715Y172000D01*
X506713Y172000D02*
X531876Y172000D01*
X554228Y172000D02*
X709676Y172000D01*
X732028Y172000D02*
X851154Y172000D01*
X882142Y172000D02*
X958342Y172000D01*
X179832Y176000D02*
X10922Y176000D01*
X248567Y176000D02*
X248687Y176000D01*
X254741Y176000D02*
X258826Y176000D01*
X269494Y176000D02*
X289306Y176000D01*
X390659Y176000D02*
X394970Y176000D01*
X477520Y176000D02*
X486769Y176000D01*
X510659Y176000D02*
X534083Y176000D01*
X552021Y176000D02*
X711883Y176000D01*
X729821Y176000D02*
X851154Y176000D01*
X882142Y176000D02*
X958342Y176000D01*
X179832Y180000D02*
X10922Y180000D01*
X258060Y180000D02*
X258826Y180000D01*
X269494Y180000D02*
X292853Y180000D01*
X392315Y180000D02*
X394970Y180000D01*
X477520Y180000D02*
X485113Y180000D01*
X512315Y180000D02*
X538083Y180000D01*
X548021Y180000D02*
X715883Y180000D01*
X725821Y180000D02*
X851154Y180000D01*
X882142Y180000D02*
X958342Y180000D01*
X179832Y184000D02*
X10922Y184000D01*
X205813Y184000D02*
X241481Y184000D01*
X257947Y184000D02*
X258051Y184000D01*
X270269Y184000D02*
X296853Y184000D01*
X392758Y184000D02*
X394970Y184000D01*
X477520Y184000D02*
X484670Y184000D01*
X512758Y184000D02*
X537811Y184000D01*
X548293Y184000D02*
X715611Y184000D01*
X726093Y184000D02*
X851154Y184000D01*
X882142Y184000D02*
X958342Y184000D01*
X179832Y188000D02*
X10922Y188000D01*
X204470Y188000D02*
X249344Y188000D01*
X254084Y188000D02*
X257690Y188000D01*
X270630Y188000D02*
X365227Y188000D01*
X392201Y188000D02*
X394970Y188000D01*
X477520Y188000D02*
X485227Y188000D01*
X512201Y188000D02*
X533811Y188000D01*
X552293Y188000D02*
X711611Y188000D01*
X730093Y188000D02*
X851154Y188000D01*
X882142Y188000D02*
X958342Y188000D01*
X16357Y192000D02*
X10922Y192000D01*
X83719Y192000D02*
X178689Y192000D01*
X205402Y192000D02*
X260424Y192000D01*
X267896Y192000D02*
X366991Y192000D01*
X390437Y192000D02*
X394970Y192000D01*
X477520Y192000D02*
X486991Y192000D01*
X510437Y192000D02*
X531876Y192000D01*
X669189Y192000D02*
X709676Y192000D01*
X732028Y192000D02*
X851154Y192000D01*
X882142Y192000D02*
X958342Y192000D01*
X12357Y196000D02*
X10922Y196000D01*
X90541Y196000D02*
X179064Y196000D01*
X205449Y196000D02*
X371319Y196000D01*
X386109Y196000D02*
X394970Y196000D01*
X477520Y196000D02*
X491319Y196000D01*
X506109Y196000D02*
X531876Y196000D01*
X673189Y196000D02*
X709676Y196000D01*
X732028Y196000D02*
X851154Y196000D01*
X882142Y196000D02*
X958342Y196000D01*
X76633Y200000D02*
X23443Y200000D01*
X219481Y200000D02*
X373380Y200000D01*
X384048Y200000D02*
X394970Y200000D01*
X477520Y200000D02*
X478120Y200000D01*
X504048Y200000D02*
X532683Y200000D01*
X553421Y200000D02*
X662103Y200000D01*
X676656Y200000D02*
X710483Y200000D01*
X731221Y200000D02*
X851154Y200000D01*
X882142Y200000D02*
X958342Y200000D01*
X80633Y204000D02*
X20066Y204000D01*
X221488Y204000D02*
X373380Y204000D01*
X384048Y204000D02*
X394970Y204000D01*
X504048Y204000D02*
X536683Y204000D01*
X549421Y204000D02*
X665988Y204000D01*
X676656Y204000D02*
X714483Y204000D01*
X727221Y204000D02*
X851154Y204000D01*
X882142Y204000D02*
X958342Y204000D01*
X84633Y208000D02*
X20066Y208000D01*
X221488Y208000D02*
X373380Y208000D01*
X384048Y208000D02*
X394970Y208000D01*
X624483Y208000D02*
X665988Y208000D01*
X676656Y208000D02*
X851154Y208000D01*
X882142Y208000D02*
X958342Y208000D01*
X32291Y212000D02*
X20066Y212000D01*
X44958Y212000D02*
X46990Y212000D01*
X59657Y212000D02*
X178590Y212000D01*
X191742Y212000D02*
X192814Y212000D01*
X205966Y212000D02*
X210820Y212000D01*
X221488Y212000D02*
X373380Y212000D01*
X384048Y212000D02*
X398690Y212000D01*
X629896Y212000D02*
X665988Y212000D01*
X676656Y212000D02*
X851154Y212000D01*
X882142Y212000D02*
X958342Y212000D01*
X29012Y216000D02*
X20066Y216000D01*
X44958Y216000D02*
X46990Y216000D01*
X62936Y216000D02*
X179832Y216000D01*
X190500Y216000D02*
X193548Y216000D01*
X204993Y216000D02*
X210820Y216000D01*
X225321Y216000D02*
X373380Y216000D01*
X384048Y216000D02*
X402690Y216000D01*
X630654Y216000D02*
X665988Y216000D01*
X676656Y216000D02*
X851154Y216000D01*
X882142Y216000D02*
X958342Y216000D01*
X44958Y220000D02*
X20066Y220000D01*
X46990Y220000D02*
X179832Y220000D01*
X190500Y220000D02*
X193548Y220000D01*
X204216Y220000D02*
X214235Y220000D01*
X276036Y220000D02*
X312541Y220000D01*
X333461Y220000D02*
X373380Y220000D01*
X387563Y220000D02*
X406690Y220000D01*
X628516Y220000D02*
X665988Y220000D01*
X676656Y220000D02*
X851154Y220000D01*
X882142Y220000D02*
X958342Y220000D01*
X28442Y224000D02*
X20066Y224000D01*
X44958Y224000D02*
X46990Y224000D01*
X63506Y224000D02*
X179832Y224000D01*
X190500Y224000D02*
X193548Y224000D01*
X204216Y224000D02*
X218235Y224000D01*
X277340Y224000D02*
X311940Y224000D01*
X337461Y224000D02*
X376477Y224000D01*
X391563Y224000D02*
X410690Y224000D01*
X628799Y224000D02*
X665988Y224000D01*
X676656Y224000D02*
X851154Y224000D01*
X882142Y224000D02*
X958342Y224000D01*
X30690Y228000D02*
X20066Y228000D01*
X44958Y228000D02*
X46990Y228000D01*
X61258Y228000D02*
X179832Y228000D01*
X190500Y228000D02*
X193548Y228000D01*
X204216Y228000D02*
X222235Y228000D01*
X276092Y228000D02*
X314458Y228000D01*
X322574Y228000D02*
X326375Y228000D01*
X341461Y228000D02*
X380477Y228000D01*
X395563Y228000D02*
X450120Y228000D01*
X587220Y228000D02*
X617713Y228000D01*
X632799Y228000D02*
X665988Y228000D01*
X676656Y228000D02*
X851154Y228000D01*
X882142Y228000D02*
X958342Y228000D01*
X179832Y232000D02*
X20066Y232000D01*
X190500Y232000D02*
X193548Y232000D01*
X204216Y232000D02*
X330375Y232000D01*
X345461Y232000D02*
X360473Y232000D01*
X363427Y232000D02*
X384477Y232000D01*
X399288Y232000D02*
X446120Y232000D01*
X605303Y232000D02*
X621713Y232000D01*
X636799Y232000D02*
X665988Y232000D01*
X676656Y232000D02*
X851154Y232000D01*
X882142Y232000D02*
X958342Y232000D01*
X179832Y236000D02*
X20066Y236000D01*
X190500Y236000D02*
X193548Y236000D01*
X204216Y236000D02*
X334375Y236000D01*
X368030Y236000D02*
X388477Y236000D01*
X399288Y236000D02*
X442120Y236000D01*
X609653Y236000D02*
X625713Y236000D01*
X639572Y236000D02*
X665988Y236000D01*
X676656Y236000D02*
X851154Y236000D01*
X882142Y236000D02*
X958342Y236000D01*
X30979Y240000D02*
X20066Y240000D01*
X60969Y240000D02*
X179832Y240000D01*
X190500Y240000D02*
X193548Y240000D01*
X204216Y240000D02*
X236602Y240000D01*
X270636Y240000D02*
X338375Y240000D01*
X368449Y240000D02*
X388620Y240000D01*
X399288Y240000D02*
X438120Y240000D01*
X614383Y240000D02*
X627662Y240000D01*
X640814Y240000D02*
X665988Y240000D01*
X676656Y240000D02*
X851154Y240000D01*
X882142Y240000D02*
X958342Y240000D01*
X29020Y244000D02*
X20066Y244000D01*
X62928Y244000D02*
X179832Y244000D01*
X190500Y244000D02*
X193548Y244000D01*
X204216Y244000D02*
X234470Y244000D01*
X272768Y244000D02*
X358144Y244000D01*
X365756Y244000D02*
X388620Y244000D01*
X399288Y244000D02*
X434120Y244000D01*
X576467Y244000D02*
X601805Y244000D01*
X614855Y244000D02*
X628908Y244000D01*
X639568Y244000D02*
X665988Y244000D01*
X676656Y244000D02*
X851154Y244000D01*
X882142Y244000D02*
X958342Y244000D01*
X28956Y248000D02*
X20066Y248000D01*
X62992Y248000D02*
X179832Y248000D01*
X190500Y248000D02*
X193548Y248000D01*
X204216Y248000D02*
X235231Y248000D01*
X272008Y248000D02*
X388620Y248000D01*
X399288Y248000D02*
X421593Y248000D01*
X496143Y248000D02*
X563888Y248000D01*
X576572Y248000D02*
X604460Y248000D01*
X612200Y248000D02*
X665988Y248000D01*
X676656Y248000D02*
X851154Y248000D01*
X882142Y248000D02*
X958342Y248000D01*
X30727Y252000D02*
X20066Y252000D01*
X61221Y252000D02*
X179832Y252000D01*
X190500Y252000D02*
X193548Y252000D01*
X208307Y252000D02*
X388620Y252000D01*
X399288Y252000D02*
X417593Y252000D01*
X492143Y252000D02*
X567227Y252000D01*
X573233Y252000D02*
X619043Y252000D01*
X676865Y252000D02*
X851154Y252000D01*
X882142Y252000D02*
X958342Y252000D01*
X36814Y256000D02*
X20066Y256000D01*
X55134Y256000D02*
X179832Y256000D01*
X190500Y256000D02*
X195862Y256000D01*
X209014Y256000D02*
X340723Y256000D01*
X363619Y256000D02*
X388620Y256000D01*
X399288Y256000D02*
X412230Y256000D01*
X428679Y256000D02*
X431459Y256000D01*
X488143Y256000D02*
X615043Y256000D01*
X680865Y256000D02*
X851154Y256000D01*
X882142Y256000D02*
X958342Y256000D01*
X179832Y260000D02*
X20066Y260000D01*
X191089Y260000D02*
X198122Y260000D01*
X206754Y260000D02*
X336723Y260000D01*
X365506Y260000D02*
X388620Y260000D01*
X399288Y260000D02*
X411508Y260000D01*
X424679Y260000D02*
X427459Y260000D01*
X484143Y260000D02*
X611043Y260000D01*
X626129Y260000D02*
X669779Y260000D01*
X684865Y260000D02*
X851154Y260000D01*
X882142Y260000D02*
X958342Y260000D01*
X180003Y264000D02*
X20066Y264000D01*
X219219Y264000D02*
X332994Y264000D01*
X365506Y264000D02*
X388620Y264000D01*
X399288Y264000D02*
X413732Y264000D01*
X422436Y264000D02*
X423459Y264000D01*
X480143Y264000D02*
X607043Y264000D01*
X622129Y264000D02*
X673779Y264000D01*
X688865Y264000D02*
X697987Y264000D01*
X704601Y264000D02*
X851154Y264000D01*
X882142Y264000D02*
X958342Y264000D01*
X184003Y268000D02*
X20066Y268000D01*
X224722Y268000D02*
X332994Y268000D01*
X365506Y268000D02*
X388620Y268000D01*
X399288Y268000D02*
X419459Y268000D01*
X476143Y268000D02*
X603043Y268000D01*
X618129Y268000D02*
X677779Y268000D01*
X707688Y268000D02*
X851154Y268000D01*
X882142Y268000D02*
X958342Y268000D01*
X188003Y272000D02*
X20066Y272000D01*
X226794Y272000D02*
X331835Y272000D01*
X343662Y272000D02*
X346012Y272000D01*
X365506Y272000D02*
X388620Y272000D01*
X399288Y272000D02*
X417830Y272000D01*
X472143Y272000D02*
X601726Y272000D01*
X614129Y272000D02*
X681779Y272000D01*
X707479Y272000D02*
X851154Y272000D01*
X882142Y272000D02*
X958342Y272000D01*
X120049Y276000D02*
X20066Y276000D01*
X123283Y276000D02*
X214427Y276000D01*
X226009Y276000D02*
X327835Y276000D01*
X342921Y276000D02*
X347726Y276000D01*
X365506Y276000D02*
X388620Y276000D01*
X399288Y276000D02*
X417830Y276000D01*
X468143Y276000D02*
X601726Y276000D01*
X612394Y276000D02*
X699204Y276000D01*
X703384Y276000D02*
X851154Y276000D01*
X882142Y276000D02*
X958342Y276000D01*
X32156Y280000D02*
X20066Y280000D01*
X42926Y280000D02*
X45466Y280000D01*
X56236Y280000D02*
X115562Y280000D01*
X338921Y280000D02*
X347726Y280000D01*
X365506Y280000D02*
X388620Y280000D01*
X399288Y280000D02*
X417830Y280000D01*
X464143Y280000D02*
X601726Y280000D01*
X612394Y280000D02*
X851154Y280000D01*
X882142Y280000D02*
X958342Y280000D01*
X27225Y284000D02*
X20066Y284000D01*
X42926Y284000D02*
X45466Y284000D01*
X61166Y284000D02*
X115191Y284000D01*
X334921Y284000D02*
X347726Y284000D01*
X365506Y284000D02*
X388620Y284000D01*
X399288Y284000D02*
X417830Y284000D01*
X460143Y284000D02*
X601726Y284000D01*
X612394Y284000D02*
X851154Y284000D01*
X882142Y284000D02*
X958342Y284000D01*
X25412Y288000D02*
X20066Y288000D01*
X42926Y288000D02*
X45466Y288000D01*
X62980Y288000D02*
X117918Y288000D01*
X125414Y288000D02*
X215780Y288000D01*
X224656Y288000D02*
X264215Y288000D01*
X330574Y288000D02*
X347726Y288000D01*
X365506Y288000D02*
X388620Y288000D01*
X399288Y288000D02*
X417830Y288000D01*
X457962Y288000D02*
X601726Y288000D01*
X612394Y288000D02*
X851154Y288000D01*
X882142Y288000D02*
X958342Y288000D01*
X25229Y292000D02*
X20066Y292000D01*
X42926Y292000D02*
X45466Y292000D01*
X63163Y292000D02*
X213642Y292000D01*
X226794Y292000D02*
X260868Y292000D01*
X332966Y292000D02*
X347726Y292000D01*
X365506Y292000D02*
X388620Y292000D01*
X399288Y292000D02*
X417830Y292000D01*
X457962Y292000D02*
X601726Y292000D01*
X612394Y292000D02*
X851154Y292000D01*
X882142Y292000D02*
X958342Y292000D01*
X26512Y296000D02*
X20066Y296000D01*
X42926Y296000D02*
X45466Y296000D01*
X61881Y296000D02*
X214400Y296000D01*
X226036Y296000D02*
X260969Y296000D01*
X332313Y296000D02*
X347726Y296000D01*
X365506Y296000D02*
X388620Y296000D01*
X399288Y296000D02*
X417830Y296000D01*
X457962Y296000D02*
X592844Y296000D01*
X612394Y296000D02*
X851154Y296000D01*
X882142Y296000D02*
X958342Y296000D01*
X30101Y300000D02*
X20066Y300000D01*
X42926Y300000D02*
X45466Y300000D01*
X58291Y300000D02*
X214884Y300000D01*
X225552Y300000D02*
X264804Y300000D01*
X269612Y300000D02*
X347726Y300000D01*
X365506Y300000D02*
X388620Y300000D01*
X399288Y300000D02*
X417830Y300000D01*
X457962Y300000D02*
X590832Y300000D01*
X612394Y300000D02*
X851154Y300000D01*
X882142Y300000D02*
X958342Y300000D01*
X214884Y304000D02*
X20066Y304000D01*
X225552Y304000D02*
X262518Y304000D01*
X336414Y304000D02*
X347726Y304000D01*
X365506Y304000D02*
X385696Y304000D01*
X402212Y304000D02*
X417830Y304000D01*
X457962Y304000D02*
X591642Y304000D01*
X612394Y304000D02*
X851154Y304000D01*
X882142Y304000D02*
X958342Y304000D01*
X29824Y308000D02*
X20066Y308000D01*
X58568Y308000D02*
X214884Y308000D01*
X225552Y308000D02*
X260886Y308000D01*
X337538Y308000D02*
X347726Y308000D01*
X365506Y308000D02*
X381696Y308000D01*
X406212Y308000D02*
X417830Y308000D01*
X457962Y308000D02*
X590729Y308000D01*
X612394Y308000D02*
X851154Y308000D01*
X882142Y308000D02*
X958342Y308000D01*
X26951Y312000D02*
X20066Y312000D01*
X71639Y312000D02*
X214884Y312000D01*
X225552Y312000D02*
X261854Y312000D01*
X336110Y312000D02*
X347726Y312000D01*
X365506Y312000D02*
X380365Y312000D01*
X407543Y312000D02*
X417830Y312000D01*
X457962Y312000D02*
X530467Y312000D01*
X535825Y312000D02*
X586729Y312000D01*
X611155Y312000D02*
X851154Y312000D01*
X882142Y312000D02*
X958342Y312000D01*
X26162Y316000D02*
X20066Y316000D01*
X75639Y316000D02*
X214884Y316000D01*
X225552Y316000D02*
X347726Y316000D01*
X365506Y316000D02*
X380365Y316000D01*
X407543Y316000D02*
X415401Y316000D01*
X457962Y316000D02*
X508634Y316000D01*
X539432Y316000D02*
X547931Y316000D01*
X607155Y316000D02*
X851154Y316000D01*
X882142Y316000D02*
X958342Y316000D01*
X26971Y320000D02*
X20066Y320000D01*
X76708Y320000D02*
X214884Y320000D01*
X225552Y320000D02*
X347726Y320000D01*
X365506Y320000D02*
X380365Y320000D01*
X407543Y320000D02*
X411401Y320000D01*
X457962Y320000D02*
X508028Y320000D01*
X539439Y320000D02*
X543931Y320000D01*
X603155Y320000D02*
X851154Y320000D01*
X882142Y320000D02*
X958342Y320000D01*
X29872Y324000D02*
X20066Y324000D01*
X58520Y324000D02*
X66040Y324000D01*
X80337Y324000D02*
X214884Y324000D01*
X225552Y324000D02*
X347726Y324000D01*
X365506Y324000D02*
X383776Y324000D01*
X404132Y324000D02*
X407401Y324000D01*
X457962Y324000D02*
X510534Y324000D01*
X518674Y324000D02*
X530428Y324000D01*
X535864Y324000D02*
X539931Y324000D01*
X599155Y324000D02*
X851154Y324000D01*
X882142Y324000D02*
X958342Y324000D01*
X69251Y328000D02*
X20066Y328000D01*
X129782Y328000D02*
X214884Y328000D01*
X225552Y328000D02*
X347726Y328000D01*
X457962Y328000D02*
X535931Y328000D01*
X595155Y328000D02*
X851154Y328000D01*
X882142Y328000D02*
X958342Y328000D01*
X31999Y332000D02*
X20066Y332000D01*
X56393Y332000D02*
X73251Y332000D01*
X132052Y332000D02*
X214884Y332000D01*
X225552Y332000D02*
X348587Y332000D01*
X459124Y332000D02*
X531931Y332000D01*
X556357Y332000D02*
X851154Y332000D01*
X882142Y332000D02*
X958342Y332000D01*
X27531Y336000D02*
X20066Y336000D01*
X60861Y336000D02*
X77251Y336000D01*
X131349Y336000D02*
X214884Y336000D01*
X225552Y336000D02*
X352587Y336000D01*
X458711Y336000D02*
X527931Y336000D01*
X552357Y336000D02*
X851154Y336000D01*
X882142Y336000D02*
X958342Y336000D01*
X26162Y340000D02*
X20066Y340000D01*
X129404Y340000D02*
X214884Y340000D01*
X226131Y340000D02*
X301194Y340000D01*
X310438Y340000D02*
X356587Y340000D01*
X439472Y340000D02*
X439640Y340000D01*
X446312Y340000D02*
X451132Y340000D01*
X454124Y340000D02*
X523931Y340000D01*
X548357Y340000D02*
X851154Y340000D01*
X882142Y340000D02*
X958342Y340000D01*
X26391Y344000D02*
X20066Y344000D01*
X130274Y344000D02*
X215045Y344000D01*
X230131Y344000D02*
X299240Y344000D01*
X321553Y344000D02*
X408693Y344000D01*
X544357Y344000D02*
X851154Y344000D01*
X882142Y344000D02*
X958342Y344000D01*
X28472Y348000D02*
X20066Y348000D01*
X128406Y348000D02*
X219045Y348000D01*
X234131Y348000D02*
X300074Y348000D01*
X325553Y348000D02*
X408292Y348000D01*
X540357Y348000D02*
X851154Y348000D01*
X882142Y348000D02*
X958342Y348000D01*
X223045Y352000D02*
X20066Y352000D01*
X329553Y352000D02*
X410998Y352000D01*
X418566Y352000D02*
X497453Y352000D01*
X536357Y352000D02*
X851154Y352000D01*
X882142Y352000D02*
X958342Y352000D01*
X227045Y356000D02*
X20066Y356000D01*
X333553Y356000D02*
X490300Y356000D01*
X494712Y356000D02*
X497332Y356000D01*
X532357Y356000D02*
X851154Y356000D01*
X882142Y356000D02*
X958342Y356000D01*
X28624Y360000D02*
X22103Y360000D01*
X59768Y360000D02*
X307245Y360000D01*
X337553Y360000D02*
X486301Y360000D01*
X508000Y360000D02*
X851154Y360000D01*
X882142Y360000D02*
X958342Y360000D01*
X11017Y364000D02*
X10922Y364000D01*
X123131Y364000D02*
X309626Y364000D01*
X407847Y364000D02*
X486132Y364000D01*
X508000Y364000D02*
X851154Y364000D01*
X882142Y364000D02*
X958342Y364000D01*
X15017Y368000D02*
X10922Y368000D01*
X128888Y368000D02*
X308384Y368000D01*
X411847Y368000D02*
X487172Y368000D01*
X508000Y368000D02*
X851154Y368000D01*
X882142Y368000D02*
X958342Y368000D01*
X19017Y372000D02*
X10922Y372000D01*
X131290Y372000D02*
X205787Y372000D01*
X211281Y372000D02*
X309270Y372000D01*
X415847Y372000D02*
X483803Y372000D01*
X508000Y372000D02*
X851154Y372000D01*
X882142Y372000D02*
X958342Y372000D01*
X31632Y376000D02*
X10922Y376000D01*
X56760Y376000D02*
X118787Y376000D01*
X130641Y376000D02*
X202236Y376000D01*
X215395Y376000D02*
X400987Y376000D01*
X419847Y376000D02*
X465579Y376000D01*
X505811Y376000D02*
X851154Y376000D01*
X882142Y376000D02*
X958342Y376000D01*
X202253Y380000D02*
X10922Y380000D01*
X324805Y380000D02*
X385896Y380000D01*
X402012Y380000D02*
X404987Y380000D01*
X423847Y380000D02*
X461579Y380000D01*
X501811Y380000D02*
X848276Y380000D01*
X882142Y380000D02*
X958342Y380000D01*
X205884Y384000D02*
X10922Y384000D01*
X328805Y384000D02*
X381896Y384000D01*
X406012Y384000D02*
X408987Y384000D01*
X425704Y384000D02*
X458216Y384000D01*
X497811Y384000D02*
X606382Y384000D01*
X612310Y384000D02*
X846413Y384000D01*
X882142Y384000D02*
X958342Y384000D01*
X206502Y388000D02*
X10922Y388000D01*
X332805Y388000D02*
X380365Y388000D01*
X407543Y388000D02*
X409194Y388000D01*
X417322Y388000D02*
X417576Y388000D01*
X425704Y388000D02*
X458216Y388000D01*
X493811Y388000D02*
X603011Y388000D01*
X615681Y388000D02*
X845566Y388000D01*
X881571Y388000D02*
X958342Y388000D01*
X210213Y392000D02*
X10922Y392000D01*
X306070Y392000D02*
X321719Y392000D01*
X336296Y392000D02*
X380365Y392000D01*
X407543Y392000D02*
X409194Y392000D01*
X417322Y392000D02*
X417576Y392000D01*
X425704Y392000D02*
X458216Y392000D01*
X475587Y392000D02*
X603102Y392000D01*
X615590Y392000D02*
X845566Y392000D01*
X879914Y392000D02*
X958342Y392000D01*
X214213Y396000D02*
X10922Y396000D01*
X306070Y396000D02*
X325628Y396000D01*
X336296Y396000D02*
X380365Y396000D01*
X407543Y396000D02*
X409194Y396000D01*
X417322Y396000D02*
X417576Y396000D01*
X425704Y396000D02*
X458216Y396000D01*
X475488Y396000D02*
X604012Y396000D01*
X614680Y396000D02*
X845566Y396000D01*
X876554Y396000D02*
X958342Y396000D01*
X295402Y400000D02*
X10922Y400000D01*
X306070Y400000D02*
X325628Y400000D01*
X336296Y400000D02*
X383576Y400000D01*
X404332Y400000D02*
X408323Y400000D01*
X417322Y400000D02*
X417576Y400000D01*
X425704Y400000D02*
X458216Y400000D01*
X475488Y400000D02*
X604012Y400000D01*
X614680Y400000D02*
X845566Y400000D01*
X876554Y400000D02*
X958342Y400000D01*
X295402Y404000D02*
X10922Y404000D01*
X306070Y404000D02*
X325628Y404000D01*
X336296Y404000D02*
X387576Y404000D01*
X400332Y404000D02*
X400770Y404000D01*
X415817Y404000D02*
X417576Y404000D01*
X425704Y404000D02*
X458216Y404000D01*
X475488Y404000D02*
X604012Y404000D01*
X614680Y404000D02*
X845566Y404000D01*
X876554Y404000D02*
X958342Y404000D01*
X295402Y408000D02*
X10922Y408000D01*
X306070Y408000D02*
X325628Y408000D01*
X336296Y408000D02*
X398300Y408000D01*
X411817Y408000D02*
X415648Y408000D01*
X427632Y408000D02*
X458216Y408000D01*
X475488Y408000D02*
X600203Y408000D01*
X614680Y408000D02*
X845566Y408000D01*
X876554Y408000D02*
X958342Y408000D01*
X29978Y412000D02*
X10922Y412000D01*
X50286Y412000D02*
X295402Y412000D01*
X306070Y412000D02*
X325628Y412000D01*
X340295Y412000D02*
X398921Y412000D01*
X410832Y412000D02*
X415064Y412000D01*
X428216Y412000D02*
X458216Y412000D01*
X475488Y412000D02*
X596203Y412000D01*
X611289Y412000D02*
X845566Y412000D01*
X876554Y412000D02*
X916320Y412000D01*
X940420Y412000D02*
X958342Y412000D01*
X21708Y416000D02*
X10922Y416000D01*
X58556Y416000D02*
X105918Y416000D01*
X286004Y416000D02*
X295402Y416000D01*
X306070Y416000D02*
X329209Y416000D01*
X344295Y416000D02*
X417622Y416000D01*
X425658Y416000D02*
X458216Y416000D01*
X475488Y416000D02*
X593598Y416000D01*
X607289Y416000D02*
X845566Y416000D01*
X876554Y416000D02*
X909066Y416000D01*
X947674Y416000D02*
X958342Y416000D01*
X16984Y420000D02*
X10922Y420000D01*
X63280Y420000D02*
X105918Y420000D01*
X286004Y420000D02*
X295402Y420000D01*
X306070Y420000D02*
X333209Y420000D01*
X348295Y420000D02*
X455615Y420000D01*
X475488Y420000D02*
X516616Y420000D01*
X528848Y420000D02*
X542016Y420000D01*
X554248Y420000D02*
X567416Y420000D01*
X579648Y420000D02*
X592816Y420000D01*
X605048Y420000D02*
X618216Y420000D01*
X630448Y420000D02*
X643616Y420000D01*
X655848Y420000D02*
X669016Y420000D01*
X681248Y420000D02*
X694416Y420000D01*
X706648Y420000D02*
X845566Y420000D01*
X876554Y420000D02*
X904714Y420000D01*
X952026Y420000D02*
X958342Y420000D01*
X13367Y424000D02*
X10922Y424000D01*
X66897Y424000D02*
X104382Y424000D01*
X286778Y424000D02*
X295402Y424000D01*
X306070Y424000D02*
X337209Y424000D01*
X475488Y424000D02*
X512616Y424000D01*
X532848Y424000D02*
X538016Y424000D01*
X558248Y424000D02*
X563416Y424000D01*
X583648Y424000D02*
X588816Y424000D01*
X609048Y424000D02*
X614216Y424000D01*
X634448Y424000D02*
X639616Y424000D01*
X659848Y424000D02*
X665016Y424000D01*
X685248Y424000D02*
X690416Y424000D01*
X710648Y424000D02*
X845566Y424000D01*
X876554Y424000D02*
X901312Y424000D01*
X955428Y424000D02*
X958342Y424000D01*
X11058Y428000D02*
X10922Y428000D01*
X69206Y428000D02*
X104310Y428000D01*
X286850Y428000D02*
X295236Y428000D01*
X306236Y428000D02*
X341209Y428000D01*
X462701Y428000D02*
X464820Y428000D01*
X475488Y428000D02*
X512398Y428000D01*
X533066Y428000D02*
X537798Y428000D01*
X558466Y428000D02*
X563198Y428000D01*
X583866Y428000D02*
X588598Y428000D01*
X609266Y428000D02*
X613998Y428000D01*
X634666Y428000D02*
X639398Y428000D01*
X660066Y428000D02*
X664798Y428000D01*
X685466Y428000D02*
X690198Y428000D01*
X710866Y428000D02*
X808511Y428000D01*
X808990Y428000D02*
X811530Y428000D01*
X812009Y428000D02*
X845566Y428000D01*
X876554Y428000D02*
X899002Y428000D01*
X957737Y428000D02*
X958342Y428000D01*
X104310Y432000D02*
X71074Y432000D01*
X286850Y432000D02*
X294160Y432000D01*
X307312Y432000D02*
X464820Y432000D01*
X475488Y432000D02*
X512398Y432000D01*
X533066Y432000D02*
X537798Y432000D01*
X558466Y432000D02*
X563198Y432000D01*
X583866Y432000D02*
X588598Y432000D01*
X609266Y432000D02*
X613998Y432000D01*
X634666Y432000D02*
X639398Y432000D01*
X660066Y432000D02*
X664798Y432000D01*
X685466Y432000D02*
X690198Y432000D01*
X710866Y432000D02*
X800535Y432000D01*
X808990Y432000D02*
X811530Y432000D01*
X819985Y432000D02*
X845566Y432000D01*
X876554Y432000D02*
X897292Y432000D01*
X104310Y436000D02*
X72146Y436000D01*
X286850Y436000D02*
X295636Y436000D01*
X305836Y436000D02*
X461205Y436000D01*
X475488Y436000D02*
X515620Y436000D01*
X529844Y436000D02*
X541020Y436000D01*
X555244Y436000D02*
X566420Y436000D01*
X580644Y436000D02*
X591820Y436000D01*
X606044Y436000D02*
X617220Y436000D01*
X631444Y436000D02*
X642620Y436000D01*
X656844Y436000D02*
X668020Y436000D01*
X682244Y436000D02*
X693420Y436000D01*
X707644Y436000D02*
X797819Y436000D01*
X808990Y436000D02*
X811530Y436000D01*
X822701Y436000D02*
X845566Y436000D01*
X876554Y436000D02*
X896220Y436000D01*
X104310Y440000D02*
X72926Y440000D01*
X286850Y440000D02*
X365462Y440000D01*
X369570Y440000D02*
X372110Y440000D01*
X376218Y440000D02*
X393381Y440000D01*
X399098Y440000D02*
X418781Y440000D01*
X424498Y440000D02*
X444181Y440000D01*
X449898Y440000D02*
X457205Y440000D01*
X472291Y440000D02*
X796761Y440000D01*
X808990Y440000D02*
X811530Y440000D01*
X823759Y440000D02*
X845566Y440000D01*
X876554Y440000D02*
X895576Y440000D01*
X104310Y444000D02*
X72926Y444000D01*
X286850Y444000D02*
X361135Y444000D01*
X369570Y444000D02*
X372110Y444000D01*
X380545Y444000D02*
X387600Y444000D01*
X404880Y444000D02*
X413000Y444000D01*
X430280Y444000D02*
X438400Y444000D01*
X468291Y444000D02*
X516579Y444000D01*
X521502Y444000D02*
X523962Y444000D01*
X528885Y444000D02*
X541979Y444000D01*
X546902Y444000D02*
X549362Y444000D01*
X554285Y444000D02*
X567379Y444000D01*
X572302Y444000D02*
X574762Y444000D01*
X579685Y444000D02*
X592779Y444000D01*
X597702Y444000D02*
X600162Y444000D01*
X605085Y444000D02*
X618179Y444000D01*
X623102Y444000D02*
X625562Y444000D01*
X630485Y444000D02*
X643579Y444000D01*
X648502Y444000D02*
X650962Y444000D01*
X655885Y444000D02*
X668979Y444000D01*
X673902Y444000D02*
X676362Y444000D01*
X681285Y444000D02*
X695816Y444000D01*
X705248Y444000D02*
X796935Y444000D01*
X808990Y444000D02*
X811530Y444000D01*
X823585Y444000D02*
X845566Y444000D01*
X876554Y444000D02*
X895576Y444000D01*
X104310Y448000D02*
X72805Y448000D01*
X286850Y448000D02*
X359598Y448000D01*
X369570Y448000D02*
X372110Y448000D01*
X382082Y448000D02*
X385833Y448000D01*
X406647Y448000D02*
X411233Y448000D01*
X432047Y448000D02*
X436633Y448000D01*
X464291Y448000D02*
X512579Y448000D01*
X521502Y448000D02*
X523962Y448000D01*
X532885Y448000D02*
X537979Y448000D01*
X546902Y448000D02*
X549362Y448000D01*
X558285Y448000D02*
X563379Y448000D01*
X572302Y448000D02*
X574762Y448000D01*
X583685Y448000D02*
X588779Y448000D01*
X597702Y448000D02*
X600162Y448000D01*
X609085Y448000D02*
X614179Y448000D01*
X623102Y448000D02*
X625562Y448000D01*
X634485Y448000D02*
X639579Y448000D01*
X648502Y448000D02*
X650962Y448000D01*
X659885Y448000D02*
X664979Y448000D01*
X673902Y448000D02*
X676362Y448000D01*
X685285Y448000D02*
X691816Y448000D01*
X709248Y448000D02*
X798378Y448000D01*
X808990Y448000D02*
X811530Y448000D01*
X822142Y448000D02*
X847002Y448000D01*
X875118Y448000D02*
X895833Y448000D01*
X104310Y452000D02*
X71733Y452000D01*
X286850Y452000D02*
X359410Y452000D01*
X369570Y452000D02*
X372110Y452000D01*
X382270Y452000D02*
X385826Y452000D01*
X406654Y452000D02*
X411226Y452000D01*
X432054Y452000D02*
X436626Y452000D01*
X460291Y452000D02*
X511382Y452000D01*
X521502Y452000D02*
X523962Y452000D01*
X534082Y452000D02*
X536782Y452000D01*
X546902Y452000D02*
X549362Y452000D01*
X559482Y452000D02*
X562182Y452000D01*
X572302Y452000D02*
X574762Y452000D01*
X584882Y452000D02*
X587582Y452000D01*
X597702Y452000D02*
X600162Y452000D01*
X610282Y452000D02*
X612982Y452000D01*
X623102Y452000D02*
X625562Y452000D01*
X635682Y452000D02*
X638382Y452000D01*
X648502Y452000D02*
X650962Y452000D01*
X661082Y452000D02*
X663782Y452000D01*
X673902Y452000D02*
X676362Y452000D01*
X686482Y452000D02*
X690198Y452000D01*
X710866Y452000D02*
X801708Y452000D01*
X808990Y452000D02*
X811530Y452000D01*
X818812Y452000D02*
X848516Y452000D01*
X873604Y452000D02*
X896905Y452000D01*
X104310Y456000D02*
X70626Y456000D01*
X286850Y456000D02*
X359410Y456000D01*
X369570Y456000D02*
X372110Y456000D01*
X382270Y456000D02*
X385826Y456000D01*
X406654Y456000D02*
X411226Y456000D01*
X432054Y456000D02*
X436626Y456000D01*
X457454Y456000D02*
X511382Y456000D01*
X521502Y456000D02*
X523962Y456000D01*
X534082Y456000D02*
X536782Y456000D01*
X546902Y456000D02*
X549362Y456000D01*
X559482Y456000D02*
X562182Y456000D01*
X572302Y456000D02*
X574762Y456000D01*
X584882Y456000D02*
X587582Y456000D01*
X597702Y456000D02*
X600162Y456000D01*
X610282Y456000D02*
X612982Y456000D01*
X623102Y456000D02*
X625562Y456000D01*
X635682Y456000D02*
X638382Y456000D01*
X648502Y456000D02*
X650962Y456000D01*
X661082Y456000D02*
X663782Y456000D01*
X673902Y456000D02*
X676362Y456000D01*
X686482Y456000D02*
X690198Y456000D01*
X710866Y456000D02*
X855694Y456000D01*
X866426Y456000D02*
X898169Y456000D01*
X104310Y460000D02*
X68317Y460000D01*
X286850Y460000D02*
X359410Y460000D01*
X382270Y460000D02*
X385826Y460000D01*
X406654Y460000D02*
X411226Y460000D01*
X432054Y460000D02*
X436626Y460000D01*
X457454Y460000D02*
X512783Y460000D01*
X521502Y460000D02*
X523962Y460000D01*
X532681Y460000D02*
X538183Y460000D01*
X546902Y460000D02*
X549362Y460000D01*
X558081Y460000D02*
X563583Y460000D01*
X572302Y460000D02*
X574762Y460000D01*
X583481Y460000D02*
X588983Y460000D01*
X597702Y460000D02*
X600162Y460000D01*
X608881Y460000D02*
X614383Y460000D01*
X623102Y460000D02*
X625562Y460000D01*
X634281Y460000D02*
X639783Y460000D01*
X648502Y460000D02*
X650962Y460000D01*
X659681Y460000D02*
X665183Y460000D01*
X673902Y460000D02*
X676362Y460000D01*
X685081Y460000D02*
X692020Y460000D01*
X709044Y460000D02*
X900478Y460000D01*
X104310Y464000D02*
X65740Y464000D01*
X286850Y464000D02*
X359410Y464000D01*
X382270Y464000D02*
X385826Y464000D01*
X406654Y464000D02*
X411226Y464000D01*
X432054Y464000D02*
X436626Y464000D01*
X457454Y464000D02*
X516783Y464000D01*
X521502Y464000D02*
X523962Y464000D01*
X528681Y464000D02*
X542183Y464000D01*
X546902Y464000D02*
X549362Y464000D01*
X554081Y464000D02*
X567583Y464000D01*
X572302Y464000D02*
X574762Y464000D01*
X579481Y464000D02*
X592983Y464000D01*
X597702Y464000D02*
X600162Y464000D01*
X604881Y464000D02*
X618383Y464000D01*
X623102Y464000D02*
X625562Y464000D01*
X630281Y464000D02*
X643783Y464000D01*
X648502Y464000D02*
X650962Y464000D01*
X655681Y464000D02*
X669183Y464000D01*
X673902Y464000D02*
X676362Y464000D01*
X681081Y464000D02*
X696020Y464000D01*
X705044Y464000D02*
X903270Y464000D01*
X104310Y468000D02*
X61740Y468000D01*
X286850Y468000D02*
X359691Y468000D01*
X381989Y468000D02*
X386075Y468000D01*
X406405Y468000D02*
X411475Y468000D01*
X431805Y468000D02*
X436875Y468000D01*
X457205Y468000D02*
X907270Y468000D01*
X104310Y472000D02*
X55889Y472000D01*
X286850Y472000D02*
X361559Y472000D01*
X380121Y472000D02*
X388184Y472000D01*
X404296Y472000D02*
X413584Y472000D01*
X429696Y472000D02*
X438984Y472000D01*
X455096Y472000D02*
X691916Y472000D01*
X12000Y196357D02*
X12000Y55792D01*
X12000Y364983D02*
X12000Y426368D01*
X16000Y192357D02*
X16000Y61362D01*
X16000Y368983D02*
X16000Y420984D01*
X20000Y188722D02*
X20000Y65362D01*
X20000Y372110D02*
X20000Y416986D01*
X24000Y188722D02*
X24000Y67777D01*
X24000Y199443D02*
X24000Y361442D01*
X24000Y372110D02*
X24000Y414677D01*
X28000Y188722D02*
X28000Y70002D01*
X28000Y199390D02*
X28000Y219488D01*
X28000Y219710D02*
X28000Y221742D01*
X28000Y221964D02*
X28000Y282988D01*
X28000Y289306D02*
X28000Y291846D01*
X28000Y298164D02*
X28000Y309824D01*
X28000Y322128D02*
X28000Y335224D01*
X28000Y347528D02*
X28000Y360624D01*
X28000Y372928D02*
X28000Y412530D01*
X32000Y188722D02*
X32000Y71074D01*
X32000Y199390D02*
X32000Y212211D01*
X32000Y219710D02*
X32000Y221742D01*
X32000Y229241D02*
X32000Y238979D01*
X32000Y253273D02*
X32000Y280079D01*
X32000Y289306D02*
X32000Y291846D01*
X32000Y301073D02*
X32000Y306599D01*
X32000Y325353D02*
X32000Y331999D01*
X32000Y350753D02*
X32000Y357399D01*
X32000Y376153D02*
X32000Y411458D01*
X36000Y188722D02*
X36000Y72146D01*
X36000Y199390D02*
X36000Y210172D01*
X36000Y219710D02*
X36000Y221742D01*
X36000Y231280D02*
X36000Y236589D01*
X36000Y255663D02*
X36000Y279146D01*
X36000Y289306D02*
X36000Y291846D01*
X36000Y302006D02*
X36000Y305562D01*
X36000Y326390D02*
X36000Y330962D01*
X36000Y351790D02*
X36000Y356362D01*
X36000Y377190D02*
X36000Y410436D01*
X40000Y188722D02*
X40000Y72164D01*
X40000Y199390D02*
X40000Y209804D01*
X40000Y219710D02*
X40000Y221742D01*
X40000Y231648D02*
X40000Y236220D01*
X40000Y256032D02*
X40000Y279146D01*
X40000Y289306D02*
X40000Y291846D01*
X40000Y302006D02*
X40000Y305562D01*
X40000Y326390D02*
X40000Y330962D01*
X40000Y351790D02*
X40000Y356362D01*
X40000Y377190D02*
X40000Y410436D01*
X44000Y188722D02*
X44000Y72164D01*
X44000Y199390D02*
X44000Y209804D01*
X44000Y219710D02*
X44000Y221742D01*
X44000Y231648D02*
X44000Y236220D01*
X44000Y256032D02*
X44000Y289306D01*
X44000Y291846D02*
X44000Y305562D01*
X44000Y326390D02*
X44000Y330962D01*
X44000Y351790D02*
X44000Y356362D01*
X44000Y377190D02*
X44000Y410436D01*
X48000Y188722D02*
X48000Y71281D01*
X48000Y199390D02*
X48000Y209804D01*
X48000Y219710D02*
X48000Y221742D01*
X48000Y231648D02*
X48000Y236220D01*
X48000Y256032D02*
X48000Y279146D01*
X48000Y289306D02*
X48000Y291846D01*
X48000Y302006D02*
X48000Y305562D01*
X48000Y326390D02*
X48000Y330962D01*
X48000Y351790D02*
X48000Y356362D01*
X48000Y377190D02*
X48000Y411387D01*
X52000Y188722D02*
X52000Y70209D01*
X52000Y199390D02*
X52000Y209804D01*
X52000Y219710D02*
X52000Y221742D01*
X52000Y231648D02*
X52000Y236220D01*
X52000Y256032D02*
X52000Y279146D01*
X52000Y289306D02*
X52000Y291846D01*
X52000Y302006D02*
X52000Y305562D01*
X52000Y326390D02*
X52000Y330962D01*
X52000Y351790D02*
X52000Y356362D01*
X52000Y377190D02*
X52000Y412459D01*
X56000Y10518D02*
X56000Y10160D01*
X56000Y68222D02*
X56000Y188722D01*
X56000Y199390D02*
X56000Y210189D01*
X56000Y219710D02*
X56000Y221742D01*
X56000Y231263D02*
X56000Y236611D01*
X56000Y255641D02*
X56000Y279917D01*
X56000Y289306D02*
X56000Y291846D01*
X56000Y301235D02*
X56000Y306437D01*
X56000Y325515D02*
X56000Y331837D01*
X56000Y350915D02*
X56000Y357237D01*
X56000Y376315D02*
X56000Y414524D01*
X56000Y471936D02*
X56000Y472182D01*
X60000Y12827D02*
X60000Y10160D01*
X60000Y65913D02*
X60000Y188722D01*
X60000Y199390D02*
X60000Y212249D01*
X60000Y219710D02*
X60000Y221742D01*
X60000Y229203D02*
X60000Y239031D01*
X60000Y253221D02*
X60000Y282596D01*
X60000Y289306D02*
X60000Y291846D01*
X60000Y298556D02*
X60000Y309432D01*
X60000Y322520D02*
X60000Y334832D01*
X60000Y348742D02*
X60000Y360232D01*
X60000Y373320D02*
X60000Y416834D01*
X60000Y469626D02*
X60000Y472181D01*
X64000Y16606D02*
X64000Y10160D01*
X64000Y62134D02*
X64000Y109980D01*
X64000Y120652D02*
X64000Y188722D01*
X64000Y199390D02*
X64000Y310642D01*
X64000Y321310D02*
X64000Y338074D01*
X64000Y348742D02*
X64000Y362204D01*
X64000Y372872D02*
X64000Y420720D01*
X64000Y465740D02*
X64000Y472179D01*
X68000Y21611D02*
X68000Y10160D01*
X68000Y57129D02*
X68000Y103571D01*
X68000Y127061D02*
X68000Y188722D01*
X68000Y199390D02*
X68000Y310642D01*
X68000Y326749D02*
X68000Y338074D01*
X68000Y348742D02*
X68000Y362204D01*
X68000Y372872D02*
X68000Y425911D01*
X68000Y460549D02*
X68000Y472178D01*
X72000Y30649D02*
X72000Y10160D01*
X72000Y48091D02*
X72000Y100511D01*
X72000Y130121D02*
X72000Y188722D01*
X72000Y199390D02*
X72000Y312361D01*
X72000Y330749D02*
X72000Y338074D01*
X72000Y348742D02*
X72000Y362204D01*
X72000Y372872D02*
X72000Y435457D01*
X72000Y451003D02*
X72000Y472177D01*
X76000Y98854D02*
X76000Y10160D01*
X76000Y131778D02*
X76000Y188722D01*
X76000Y199390D02*
X76000Y316361D01*
X76000Y334749D02*
X76000Y338074D01*
X76000Y348742D02*
X76000Y362204D01*
X76000Y372872D02*
X76000Y472176D01*
X80000Y62865D02*
X80000Y10160D01*
X80000Y84455D02*
X80000Y98636D01*
X80000Y131996D02*
X80000Y188722D01*
X80000Y203367D02*
X80000Y323663D01*
X80000Y348742D02*
X80000Y362204D01*
X80000Y372872D02*
X80000Y472175D01*
X84000Y62865D02*
X84000Y10160D01*
X84000Y84455D02*
X84000Y98983D01*
X84000Y131649D02*
X84000Y192281D01*
X84000Y207367D02*
X84000Y327660D01*
X84000Y348742D02*
X84000Y362204D01*
X84000Y372872D02*
X84000Y472174D01*
X88000Y62865D02*
X88000Y10160D01*
X88000Y84455D02*
X88000Y100640D01*
X88000Y129992D02*
X88000Y195862D01*
X88000Y209014D02*
X88000Y327660D01*
X88000Y348742D02*
X88000Y362204D01*
X88000Y372872D02*
X88000Y472173D01*
X92000Y62865D02*
X92000Y10160D01*
X92000Y84455D02*
X92000Y103883D01*
X92000Y126749D02*
X92000Y196604D01*
X92000Y208272D02*
X92000Y327660D01*
X92000Y348742D02*
X92000Y362204D01*
X92000Y372872D02*
X92000Y472171D01*
X96000Y62865D02*
X96000Y10160D01*
X96000Y84455D02*
X96000Y110733D01*
X96000Y119899D02*
X96000Y197358D01*
X96000Y208026D02*
X96000Y327660D01*
X96000Y348742D02*
X96000Y362204D01*
X96000Y372872D02*
X96000Y472170D01*
X100000Y62865D02*
X100000Y10160D01*
X100000Y84455D02*
X100000Y197358D01*
X100000Y208026D02*
X100000Y327660D01*
X100000Y348742D02*
X100000Y362204D01*
X100000Y372872D02*
X100000Y472169D01*
X104000Y62865D02*
X104000Y10160D01*
X104000Y84455D02*
X104000Y197358D01*
X104000Y208026D02*
X104000Y327660D01*
X104000Y348742D02*
X104000Y362204D01*
X104000Y372872D02*
X104000Y472168D01*
X108000Y62865D02*
X108000Y10160D01*
X108000Y84455D02*
X108000Y197358D01*
X108000Y208026D02*
X108000Y327660D01*
X108000Y348742D02*
X108000Y362204D01*
X108000Y372872D02*
X108000Y413512D01*
X112000Y197358D02*
X112000Y10160D01*
X112000Y208026D02*
X112000Y327660D01*
X112000Y348742D02*
X112000Y362204D01*
X112000Y372872D02*
X112000Y413512D01*
X116000Y197358D02*
X116000Y10160D01*
X116000Y208026D02*
X116000Y278943D01*
X116000Y285953D02*
X116000Y327660D01*
X116000Y348742D02*
X116000Y362204D01*
X116000Y372872D02*
X116000Y413512D01*
X120000Y197358D02*
X120000Y10160D01*
X120000Y208026D02*
X120000Y276020D01*
X120000Y288876D02*
X120000Y327660D01*
X120000Y348994D02*
X120000Y362204D01*
X120000Y377712D02*
X120000Y413512D01*
X124000Y197358D02*
X124000Y10160D01*
X124000Y208026D02*
X124000Y276297D01*
X124000Y288599D02*
X124000Y326488D01*
X124000Y349984D02*
X124000Y364869D01*
X124000Y379702D02*
X124000Y413512D01*
X128000Y197358D02*
X128000Y10160D01*
X128000Y208026D02*
X128000Y277114D01*
X128000Y287782D02*
X128000Y326922D01*
X128000Y348406D02*
X128000Y367369D01*
X128000Y378883D02*
X128000Y413512D01*
X132000Y197358D02*
X132000Y10160D01*
X132000Y208026D02*
X132000Y277114D01*
X132000Y287782D02*
X132000Y331560D01*
X132000Y334427D02*
X132000Y413512D01*
X136000Y197358D02*
X136000Y10160D01*
X136000Y208026D02*
X136000Y277114D01*
X136000Y287782D02*
X136000Y413512D01*
X140000Y104303D02*
X140000Y10160D01*
X140000Y126329D02*
X140000Y197358D01*
X140000Y208026D02*
X140000Y277114D01*
X140000Y287782D02*
X140000Y413512D01*
X144000Y100303D02*
X144000Y10160D01*
X144000Y130329D02*
X144000Y197358D01*
X144000Y208026D02*
X144000Y277114D01*
X144000Y287782D02*
X144000Y413512D01*
X148000Y98537D02*
X148000Y10160D01*
X148000Y132096D02*
X148000Y197358D01*
X148000Y208026D02*
X148000Y277114D01*
X148000Y287782D02*
X148000Y413512D01*
X152000Y97386D02*
X152000Y10160D01*
X152000Y133246D02*
X152000Y197358D01*
X152000Y208026D02*
X152000Y277114D01*
X152000Y287782D02*
X152000Y413512D01*
X156000Y97386D02*
X156000Y10160D01*
X156000Y133246D02*
X156000Y197358D01*
X156000Y208026D02*
X156000Y277114D01*
X156000Y287782D02*
X156000Y413512D01*
X160000Y98252D02*
X160000Y10160D01*
X160000Y132380D02*
X160000Y197358D01*
X160000Y208026D02*
X160000Y277114D01*
X160000Y287782D02*
X160000Y413512D01*
X164000Y99908D02*
X164000Y10160D01*
X164000Y130724D02*
X164000Y197358D01*
X164000Y208026D02*
X164000Y277114D01*
X164000Y287782D02*
X164000Y413512D01*
X168000Y103615D02*
X168000Y10160D01*
X168000Y127017D02*
X168000Y197358D01*
X168000Y208026D02*
X168000Y277114D01*
X168000Y287782D02*
X168000Y413512D01*
X172000Y111088D02*
X172000Y10160D01*
X172000Y119544D02*
X172000Y197358D01*
X172000Y208026D02*
X172000Y277114D01*
X172000Y287782D02*
X172000Y413512D01*
X176000Y197358D02*
X176000Y10160D01*
X176000Y208026D02*
X176000Y277114D01*
X176000Y287782D02*
X176000Y413512D01*
X180000Y167295D02*
X180000Y10160D01*
X180000Y263997D02*
X180000Y277114D01*
X180000Y287782D02*
X180000Y413512D01*
X184000Y163295D02*
X184000Y10160D01*
X184000Y267997D02*
X184000Y277114D01*
X184000Y287782D02*
X184000Y413512D01*
X188000Y162306D02*
X188000Y10160D01*
X188000Y271997D02*
X188000Y277114D01*
X188000Y287782D02*
X188000Y413512D01*
X192000Y162306D02*
X192000Y10160D01*
X192000Y208026D02*
X192000Y260911D01*
X192000Y273304D02*
X192000Y277114D01*
X192000Y287782D02*
X192000Y413512D01*
X196000Y162306D02*
X196000Y10160D01*
X196000Y256657D02*
X196000Y262636D01*
X196000Y273304D02*
X196000Y277114D01*
X196000Y287782D02*
X196000Y413512D01*
X200000Y162306D02*
X200000Y10160D01*
X200000Y261124D02*
X200000Y262636D01*
X200000Y273304D02*
X200000Y277114D01*
X200000Y287782D02*
X200000Y413512D01*
X204000Y162306D02*
X204000Y10160D01*
X204000Y261487D02*
X204000Y262636D01*
X204000Y273304D02*
X204000Y277114D01*
X204000Y287782D02*
X204000Y373214D01*
X204000Y382746D02*
X204000Y413512D01*
X208000Y162306D02*
X208000Y10160D01*
X208000Y181864D02*
X208000Y197358D01*
X208000Y208026D02*
X208000Y251278D01*
X208000Y258754D02*
X208000Y262636D01*
X208000Y273304D02*
X208000Y277114D01*
X208000Y287782D02*
X208000Y371404D01*
X208000Y389787D02*
X208000Y413512D01*
X212000Y162306D02*
X212000Y10160D01*
X212000Y181864D02*
X212000Y197358D01*
X212000Y217765D02*
X212000Y262636D01*
X212000Y273304D02*
X212000Y277114D01*
X212000Y287782D02*
X212000Y372298D01*
X212000Y393787D02*
X212000Y413512D01*
X216000Y162306D02*
X216000Y10160D01*
X216000Y181864D02*
X216000Y197358D01*
X216000Y221765D02*
X216000Y262636D01*
X216000Y344955D02*
X216000Y376605D01*
X216000Y397510D02*
X216000Y413512D01*
X220000Y162306D02*
X220000Y10160D01*
X220000Y181864D02*
X220000Y200519D01*
X220000Y225765D02*
X220000Y264781D01*
X220000Y348955D02*
X220000Y376803D01*
X220000Y397510D02*
X220000Y413512D01*
X224000Y131354D02*
X224000Y10160D01*
X224000Y137379D02*
X224000Y162306D01*
X224000Y181864D02*
X224000Y214679D01*
X224000Y229362D02*
X224000Y267278D01*
X224000Y352955D02*
X224000Y376202D01*
X224000Y397510D02*
X224000Y413512D01*
X228000Y128023D02*
X228000Y10160D01*
X228000Y140709D02*
X228000Y162306D01*
X228000Y181864D02*
X228000Y218679D01*
X228000Y229362D02*
X228000Y277114D01*
X228000Y287782D02*
X228000Y341869D01*
X228000Y356955D02*
X228000Y377444D01*
X228000Y397510D02*
X228000Y413512D01*
X232000Y128130D02*
X232000Y72488D01*
X232000Y144039D02*
X232000Y162306D01*
X232000Y181864D02*
X232000Y218694D01*
X232000Y229362D02*
X232000Y277114D01*
X232000Y287782D02*
X232000Y345869D01*
X232000Y359410D02*
X232000Y377444D01*
X232000Y397510D02*
X232000Y413512D01*
X236000Y131981D02*
X236000Y76488D01*
X236000Y145034D02*
X236000Y162306D01*
X236000Y181864D02*
X236000Y218694D01*
X236000Y229362D02*
X236000Y240602D01*
X236000Y249110D02*
X236000Y277114D01*
X236000Y287782D02*
X236000Y348742D01*
X236000Y359410D02*
X236000Y377444D01*
X236000Y397510D02*
X236000Y413512D01*
X240000Y134366D02*
X240000Y80488D01*
X240000Y145034D02*
X240000Y162306D01*
X240000Y182519D02*
X240000Y218694D01*
X240000Y229362D02*
X240000Y238280D01*
X240000Y251432D02*
X240000Y277114D01*
X240000Y287782D02*
X240000Y348742D01*
X240000Y359410D02*
X240000Y377444D01*
X240000Y397510D02*
X240000Y413512D01*
X244000Y134366D02*
X244000Y84488D01*
X244000Y145034D02*
X244000Y162306D01*
X244000Y186519D02*
X244000Y218694D01*
X244000Y229362D02*
X244000Y238962D01*
X244000Y250750D02*
X244000Y277114D01*
X244000Y287782D02*
X244000Y348742D01*
X244000Y359410D02*
X244000Y377444D01*
X244000Y397510D02*
X244000Y413512D01*
X248000Y134366D02*
X248000Y88488D01*
X248000Y145034D02*
X248000Y161064D01*
X248000Y174216D02*
X248000Y175433D01*
X248000Y187443D02*
X248000Y218694D01*
X248000Y229362D02*
X248000Y239522D01*
X248000Y250190D02*
X248000Y277114D01*
X248000Y287782D02*
X248000Y348742D01*
X248000Y359410D02*
X248000Y377444D01*
X248000Y397510D02*
X248000Y413512D01*
X252000Y134366D02*
X252000Y92488D01*
X252000Y145034D02*
X252000Y161693D01*
X252000Y173587D02*
X252000Y175288D01*
X252000Y188440D02*
X252000Y218694D01*
X252000Y229362D02*
X252000Y239522D01*
X252000Y250190D02*
X252000Y277114D01*
X252000Y287782D02*
X252000Y348742D01*
X252000Y359410D02*
X252000Y377444D01*
X252000Y397510D02*
X252000Y413512D01*
X256000Y134366D02*
X256000Y96488D01*
X256000Y145941D02*
X256000Y176850D01*
X256000Y186878D02*
X256000Y218694D01*
X256000Y229362D02*
X256000Y239522D01*
X256000Y250190D02*
X256000Y277114D01*
X256000Y287782D02*
X256000Y348742D01*
X256000Y359410D02*
X256000Y377444D01*
X256000Y397510D02*
X256000Y413512D01*
X260000Y134855D02*
X260000Y104998D01*
X260000Y191576D02*
X260000Y218694D01*
X260000Y229362D02*
X260000Y239522D01*
X260000Y250190D02*
X260000Y277114D01*
X260000Y287782D02*
X260000Y348742D01*
X260000Y359410D02*
X260000Y377444D01*
X260000Y397510D02*
X260000Y413512D01*
X264000Y138855D02*
X264000Y104394D01*
X264000Y193012D02*
X264000Y218694D01*
X264000Y229362D02*
X264000Y238646D01*
X264000Y251066D02*
X264000Y277114D01*
X264000Y287782D02*
X264000Y288089D01*
X264000Y299667D02*
X264000Y302672D01*
X264000Y314040D02*
X264000Y348742D01*
X264000Y359410D02*
X264000Y377444D01*
X264000Y397510D02*
X264000Y413512D01*
X268000Y142855D02*
X268000Y104394D01*
X268000Y191896D02*
X268000Y218055D01*
X268000Y230001D02*
X268000Y238487D01*
X268000Y251225D02*
X268000Y277114D01*
X268000Y300454D02*
X268000Y301780D01*
X268000Y314932D02*
X268000Y348742D01*
X268000Y359410D02*
X268000Y377444D01*
X268000Y397510D02*
X268000Y413512D01*
X272000Y217452D02*
X272000Y104394D01*
X272000Y230604D02*
X272000Y241694D01*
X272000Y248018D02*
X272000Y277114D01*
X272000Y298450D02*
X272000Y303022D01*
X272000Y313690D02*
X272000Y348742D01*
X272000Y359410D02*
X272000Y377444D01*
X272000Y397510D02*
X272000Y413512D01*
X276000Y219964D02*
X276000Y104394D01*
X276000Y228092D02*
X276000Y277114D01*
X276000Y298450D02*
X276000Y303022D01*
X276000Y313690D02*
X276000Y348742D01*
X276000Y359410D02*
X276000Y377444D01*
X276000Y397510D02*
X276000Y413512D01*
X280000Y277114D02*
X280000Y104394D01*
X280000Y298450D02*
X280000Y303022D01*
X280000Y313690D02*
X280000Y348742D01*
X280000Y359410D02*
X280000Y377444D01*
X280000Y397510D02*
X280000Y413512D01*
X284000Y144501D02*
X284000Y104394D01*
X284000Y156235D02*
X284000Y277114D01*
X284000Y298450D02*
X284000Y303022D01*
X284000Y313690D02*
X284000Y348742D01*
X284000Y359410D02*
X284000Y377444D01*
X284000Y397510D02*
X284000Y413512D01*
X288000Y143792D02*
X288000Y104394D01*
X288000Y156944D02*
X288000Y277114D01*
X288000Y298450D02*
X288000Y303022D01*
X288000Y313690D02*
X288000Y348742D01*
X288000Y359410D02*
X288000Y377444D01*
X288000Y397510D02*
X288000Y472115D01*
X292000Y145034D02*
X292000Y104394D01*
X292000Y179147D02*
X292000Y277114D01*
X292000Y298450D02*
X292000Y303022D01*
X292000Y313690D02*
X292000Y348742D01*
X292000Y359410D02*
X292000Y377444D01*
X292000Y397510D02*
X292000Y472114D01*
X296000Y149011D02*
X296000Y104394D01*
X296000Y183147D02*
X296000Y277114D01*
X296000Y298450D02*
X296000Y303022D01*
X296000Y313690D02*
X296000Y348742D01*
X296000Y359410D02*
X296000Y377444D01*
X296000Y436364D02*
X296000Y472113D01*
X300000Y172061D02*
X300000Y104394D01*
X300000Y186436D02*
X300000Y277114D01*
X300000Y298450D02*
X300000Y303022D01*
X300000Y313690D02*
X300000Y341535D01*
X300000Y347821D02*
X300000Y348742D01*
X300000Y359410D02*
X300000Y377444D01*
X300000Y438376D02*
X300000Y472112D01*
X304000Y175768D02*
X304000Y104394D01*
X304000Y186436D02*
X304000Y277114D01*
X304000Y298450D02*
X304000Y303022D01*
X304000Y313690D02*
X304000Y338312D01*
X304000Y359410D02*
X304000Y377444D01*
X304000Y437566D02*
X304000Y472111D01*
X308000Y175768D02*
X308000Y104394D01*
X308000Y186436D02*
X308000Y277114D01*
X308000Y298450D02*
X308000Y303022D01*
X308000Y313690D02*
X308000Y338465D01*
X308000Y360755D02*
X308000Y377444D01*
X308000Y388112D02*
X308000Y472110D01*
X312000Y175768D02*
X312000Y104394D01*
X312000Y186436D02*
X312000Y221305D01*
X312000Y224211D02*
X312000Y277114D01*
X312000Y298450D02*
X312000Y303022D01*
X312000Y313690D02*
X312000Y340614D01*
X312000Y374446D02*
X312000Y377444D01*
X312000Y388112D02*
X312000Y472109D01*
X316000Y175768D02*
X316000Y104394D01*
X316000Y186436D02*
X316000Y216682D01*
X316000Y228834D02*
X316000Y277114D01*
X316000Y298450D02*
X316000Y303022D01*
X316000Y313690D02*
X316000Y340614D01*
X316000Y375130D02*
X316000Y377444D01*
X316000Y388112D02*
X316000Y472107D01*
X320000Y175768D02*
X320000Y106132D01*
X320000Y186436D02*
X320000Y216255D01*
X320000Y229261D02*
X320000Y277114D01*
X320000Y298450D02*
X320000Y303022D01*
X320000Y313690D02*
X320000Y342447D01*
X320000Y372814D02*
X320000Y377444D01*
X320000Y390281D02*
X320000Y472106D01*
X324000Y175768D02*
X324000Y110132D01*
X324000Y186436D02*
X324000Y217170D01*
X324000Y227838D02*
X324000Y277114D01*
X324000Y299244D02*
X324000Y303022D01*
X324000Y313690D02*
X324000Y346447D01*
X324000Y372618D02*
X324000Y379195D01*
X324000Y394281D02*
X324000Y472105D01*
X328000Y175768D02*
X328000Y114132D01*
X328000Y186436D02*
X328000Y217170D01*
X328000Y229625D02*
X328000Y275835D01*
X328000Y299567D02*
X328000Y301957D01*
X328000Y313739D02*
X328000Y350447D01*
X328000Y372618D02*
X328000Y383195D01*
X328000Y414791D02*
X328000Y472104D01*
X332000Y175768D02*
X332000Y118132D01*
X332000Y186436D02*
X332000Y218539D01*
X332000Y233625D02*
X332000Y271835D01*
X332000Y286921D02*
X332000Y289476D01*
X332000Y296756D02*
X332000Y301272D01*
X332000Y314424D02*
X332000Y354447D01*
X332000Y372618D02*
X332000Y387195D01*
X332000Y418791D02*
X332000Y472103D01*
X336000Y175768D02*
X336000Y122132D01*
X336000Y186436D02*
X336000Y222539D01*
X336000Y237625D02*
X336000Y260723D01*
X336000Y282921D02*
X336000Y303586D01*
X336000Y312110D02*
X336000Y358447D01*
X336000Y372618D02*
X336000Y391195D01*
X336000Y422791D02*
X336000Y472102D01*
X340000Y175768D02*
X340000Y167386D01*
X340000Y186436D02*
X340000Y226539D01*
X340000Y241625D02*
X340000Y256723D01*
X340000Y278921D02*
X340000Y360426D01*
X340000Y372618D02*
X340000Y411705D01*
X340000Y426791D02*
X340000Y472101D01*
X344000Y175768D02*
X344000Y167386D01*
X344000Y186436D02*
X344000Y230539D01*
X344000Y243840D02*
X344000Y252723D01*
X344000Y269370D02*
X344000Y360426D01*
X344000Y372618D02*
X344000Y415705D01*
X344000Y430791D02*
X344000Y472099D01*
X348000Y175768D02*
X348000Y167386D01*
X348000Y186436D02*
X348000Y233172D01*
X348000Y243840D02*
X348000Y252222D01*
X348000Y331413D02*
X348000Y360426D01*
X348000Y372618D02*
X348000Y419705D01*
X348000Y431038D02*
X348000Y472098D01*
X352000Y175768D02*
X352000Y167386D01*
X352000Y186436D02*
X352000Y233172D01*
X352000Y243840D02*
X352000Y252222D01*
X352000Y335413D02*
X352000Y360426D01*
X352000Y372618D02*
X352000Y420370D01*
X352000Y431038D02*
X352000Y472097D01*
X356000Y175768D02*
X356000Y167386D01*
X356000Y186436D02*
X356000Y233172D01*
X356000Y243840D02*
X356000Y252222D01*
X356000Y339413D02*
X356000Y360426D01*
X356000Y372618D02*
X356000Y420370D01*
X356000Y431038D02*
X356000Y472096D01*
X360000Y175768D02*
X360000Y167386D01*
X360000Y186436D02*
X360000Y232196D01*
X360000Y244816D02*
X360000Y252381D01*
X360000Y342900D02*
X360000Y360426D01*
X360000Y372618D02*
X360000Y420370D01*
X360000Y431038D02*
X360000Y446462D01*
X360000Y456438D02*
X360000Y458978D01*
X360000Y468954D02*
X360000Y472095D01*
X364000Y175768D02*
X364000Y167386D01*
X364000Y186436D02*
X364000Y232237D01*
X364000Y244775D02*
X364000Y256381D01*
X364000Y342900D02*
X364000Y360426D01*
X364000Y372618D02*
X364000Y420370D01*
X364000Y431038D02*
X364000Y440929D01*
X364000Y456438D02*
X364000Y458978D01*
X368000Y174715D02*
X368000Y167386D01*
X368000Y193009D02*
X368000Y235928D01*
X368000Y241084D02*
X368000Y325628D01*
X368000Y342900D02*
X368000Y360426D01*
X368000Y372618D02*
X368000Y420370D01*
X368000Y431038D02*
X368000Y438993D01*
X368000Y456438D02*
X368000Y458978D01*
X372000Y171442D02*
X372000Y167386D01*
X372000Y196282D02*
X372000Y325628D01*
X372000Y342900D02*
X372000Y360426D01*
X372000Y372618D02*
X372000Y420370D01*
X372000Y431038D02*
X372000Y456438D01*
X376000Y169818D02*
X376000Y167386D01*
X376000Y223523D02*
X376000Y325628D01*
X376000Y342900D02*
X376000Y360426D01*
X376000Y372618D02*
X376000Y420370D01*
X376000Y431038D02*
X376000Y439889D01*
X376000Y456438D02*
X376000Y458978D01*
X380000Y169818D02*
X380000Y167386D01*
X380000Y227523D02*
X380000Y325628D01*
X380000Y342900D02*
X380000Y360426D01*
X380000Y372618D02*
X380000Y420370D01*
X380000Y431038D02*
X380000Y443250D01*
X380000Y456438D02*
X380000Y458978D01*
X384000Y170850D02*
X384000Y167386D01*
X384000Y231523D02*
X384000Y305696D01*
X384000Y324224D02*
X384000Y325628D01*
X384000Y342900D02*
X384000Y360426D01*
X384000Y372618D02*
X384000Y381896D01*
X384000Y400424D02*
X384000Y420370D01*
X384000Y431038D02*
X384000Y472088D01*
X388000Y173287D02*
X388000Y167386D01*
X388000Y194437D02*
X388000Y220437D01*
X388000Y235523D02*
X388000Y301696D01*
X388000Y342900D02*
X388000Y360426D01*
X388000Y372618D02*
X388000Y377896D01*
X388000Y404424D02*
X388000Y420370D01*
X388000Y431038D02*
X388000Y443600D01*
X388000Y471816D02*
X388000Y472087D01*
X392000Y179239D02*
X392000Y167386D01*
X392000Y188485D02*
X392000Y224437D01*
X392000Y342900D02*
X392000Y360426D01*
X392000Y372618D02*
X392000Y377571D01*
X392000Y404749D02*
X392000Y420370D01*
X392000Y431038D02*
X392000Y440572D01*
X396000Y228437D02*
X396000Y209310D01*
X396000Y342900D02*
X396000Y360426D01*
X396000Y372618D02*
X396000Y377571D01*
X396000Y404749D02*
X396000Y420370D01*
X396000Y431038D02*
X396000Y439674D01*
X400000Y301788D02*
X400000Y213310D01*
X400000Y342900D02*
X400000Y360426D01*
X400000Y375013D02*
X400000Y377988D01*
X400000Y404332D02*
X400000Y404770D01*
X400000Y413618D02*
X400000Y420370D01*
X400000Y431038D02*
X400000Y440373D01*
X404000Y305788D02*
X404000Y217310D01*
X404000Y324132D02*
X404000Y325628D01*
X404000Y342900D02*
X404000Y360426D01*
X404000Y379013D02*
X404000Y381988D01*
X404000Y400332D02*
X404000Y402618D01*
X404000Y415770D02*
X404000Y420370D01*
X404000Y431038D02*
X404000Y443120D01*
X408000Y323401D02*
X408000Y221310D01*
X408000Y342900D02*
X408000Y364153D01*
X408000Y383013D02*
X408000Y400323D01*
X408000Y415018D02*
X408000Y420370D01*
X408000Y431038D02*
X408000Y472081D01*
X412000Y256556D02*
X412000Y224282D01*
X412000Y261548D02*
X412000Y319401D01*
X412000Y352449D02*
X412000Y368153D01*
X412000Y407817D02*
X412000Y420370D01*
X412000Y431038D02*
X412000Y446148D01*
X412000Y469268D02*
X412000Y472080D01*
X416000Y252797D02*
X416000Y224282D01*
X416000Y265307D02*
X416000Y315401D01*
X416000Y353060D02*
X416000Y372153D01*
X416000Y403817D02*
X416000Y407150D01*
X416000Y414286D02*
X416000Y420370D01*
X416000Y431038D02*
X416000Y441152D01*
X420000Y249593D02*
X420000Y224282D01*
X420000Y265376D02*
X420000Y267459D01*
X420000Y351818D02*
X420000Y376153D01*
X420000Y417157D02*
X420000Y420370D01*
X420000Y431038D02*
X420000Y439674D01*
X424000Y245593D02*
X424000Y224282D01*
X424000Y261953D02*
X424000Y263459D01*
X424000Y351818D02*
X424000Y380153D01*
X424000Y416858D02*
X424000Y420370D01*
X424000Y431038D02*
X424000Y439794D01*
X428000Y244602D02*
X428000Y224282D01*
X428000Y256679D02*
X428000Y259459D01*
X428000Y351818D02*
X428000Y408889D01*
X428000Y412547D02*
X428000Y420370D01*
X428000Y431038D02*
X428000Y441720D01*
X432000Y244602D02*
X432000Y224282D01*
X432000Y255270D02*
X432000Y255459D01*
X432000Y351818D02*
X432000Y420370D01*
X432000Y431038D02*
X432000Y447886D01*
X432000Y467530D02*
X432000Y472074D01*
X436000Y242120D02*
X436000Y224282D01*
X436000Y351818D02*
X436000Y420370D01*
X436000Y431038D02*
X436000Y472073D01*
X440000Y238120D02*
X440000Y224282D01*
X440000Y340149D02*
X440000Y341150D01*
X440000Y351818D02*
X440000Y420370D01*
X440000Y431038D02*
X440000Y442400D01*
X444000Y234120D02*
X444000Y224282D01*
X444000Y340840D02*
X444000Y341150D01*
X444000Y351818D02*
X444000Y420370D01*
X444000Y431038D02*
X444000Y440075D01*
X448000Y230120D02*
X448000Y224282D01*
X448000Y338540D02*
X448000Y341150D01*
X448000Y351818D02*
X448000Y420370D01*
X448000Y431038D02*
X448000Y439674D01*
X452000Y226120D02*
X452000Y224282D01*
X452000Y340078D02*
X452000Y341150D01*
X452000Y351818D02*
X452000Y420370D01*
X452000Y431038D02*
X452000Y440870D01*
X456000Y341150D02*
X456000Y339223D01*
X456000Y351818D02*
X456000Y419615D01*
X456000Y431038D02*
X456000Y441205D01*
X456000Y470910D02*
X456000Y472067D01*
X460000Y341150D02*
X460000Y284143D01*
X460000Y351818D02*
X460000Y381579D01*
X460000Y430701D02*
X460000Y437205D01*
X460000Y452291D02*
X460000Y472066D01*
X464000Y341150D02*
X464000Y280143D01*
X464000Y351818D02*
X464000Y377579D01*
X464000Y426701D02*
X464000Y433205D01*
X464000Y448291D02*
X464000Y472065D01*
X468000Y341150D02*
X468000Y276143D01*
X468000Y351818D02*
X468000Y373579D01*
X468000Y444291D02*
X468000Y472064D01*
X472000Y341150D02*
X472000Y272143D01*
X472000Y351818D02*
X472000Y372872D01*
X472000Y440291D02*
X472000Y472063D01*
X476000Y341150D02*
X476000Y268143D01*
X476000Y351818D02*
X476000Y372872D01*
X476000Y391587D02*
X476000Y472062D01*
X480000Y199926D02*
X480000Y110236D01*
X480000Y264143D02*
X480000Y341150D01*
X480000Y351818D02*
X480000Y372872D01*
X480000Y390144D02*
X480000Y472061D01*
X484000Y199926D02*
X484000Y110236D01*
X484000Y260143D02*
X484000Y341150D01*
X484000Y351818D02*
X484000Y371803D01*
X484000Y390144D02*
X484000Y472059D01*
X488000Y174715D02*
X488000Y110236D01*
X488000Y193009D02*
X488000Y199926D01*
X488000Y256143D02*
X488000Y341150D01*
X488000Y351818D02*
X488000Y357410D01*
X488000Y390144D02*
X488000Y472058D01*
X492000Y171442D02*
X492000Y110236D01*
X492000Y196282D02*
X492000Y199926D01*
X492000Y252143D02*
X492000Y341150D01*
X492000Y351818D02*
X492000Y355628D01*
X492000Y389811D02*
X492000Y472057D01*
X496000Y169818D02*
X496000Y110236D01*
X496000Y248143D02*
X496000Y341150D01*
X496000Y351818D02*
X496000Y356533D01*
X496000Y385811D02*
X496000Y472056D01*
X500000Y169818D02*
X500000Y110236D01*
X500000Y247396D02*
X500000Y341150D01*
X500000Y381811D02*
X500000Y472055D01*
X504000Y170850D02*
X504000Y110236D01*
X504000Y204075D02*
X504000Y206530D01*
X504000Y247396D02*
X504000Y341150D01*
X504000Y377811D02*
X504000Y472054D01*
X508000Y173287D02*
X508000Y110236D01*
X508000Y194437D02*
X508000Y206530D01*
X508000Y247396D02*
X508000Y341150D01*
X508000Y358422D02*
X508000Y472053D01*
X512000Y179239D02*
X512000Y110236D01*
X512000Y188485D02*
X512000Y206530D01*
X512000Y247396D02*
X512000Y312731D01*
X512000Y324809D02*
X512000Y341150D01*
X512000Y358422D02*
X512000Y448579D01*
X512000Y452668D02*
X512000Y455128D01*
X512000Y459217D02*
X512000Y472051D01*
X516000Y206530D02*
X516000Y110236D01*
X516000Y247396D02*
X516000Y312230D01*
X516000Y325310D02*
X516000Y341150D01*
X516000Y358422D02*
X516000Y420616D01*
X516000Y436380D02*
X516000Y444579D01*
X516000Y452668D02*
X516000Y455128D01*
X516000Y463217D02*
X516000Y472050D01*
X520000Y206530D02*
X520000Y110236D01*
X520000Y247396D02*
X520000Y312674D01*
X520000Y323342D02*
X520000Y341150D01*
X520000Y358422D02*
X520000Y418164D01*
X520000Y438832D02*
X520000Y442548D01*
X520000Y452668D02*
X520000Y455128D01*
X520000Y465248D02*
X520000Y472049D01*
X524000Y206530D02*
X524000Y110236D01*
X524000Y247396D02*
X524000Y312674D01*
X524000Y323342D02*
X524000Y339931D01*
X524000Y358422D02*
X524000Y418164D01*
X524000Y438832D02*
X524000Y442548D01*
X524000Y452668D02*
X524000Y455128D01*
X524000Y465248D02*
X524000Y472048D01*
X528000Y206530D02*
X528000Y110236D01*
X528000Y247396D02*
X528000Y312674D01*
X528000Y323342D02*
X528000Y335931D01*
X528000Y358422D02*
X528000Y419152D01*
X528000Y437844D02*
X528000Y443115D01*
X528000Y452668D02*
X528000Y455128D01*
X528000Y464681D02*
X528000Y472047D01*
X532000Y12011D02*
X532000Y10160D01*
X532000Y21517D02*
X532000Y35974D01*
X532000Y41434D02*
X532000Y42894D01*
X532000Y48354D02*
X532000Y62811D01*
X532000Y72317D02*
X532000Y88211D01*
X532000Y97717D02*
X532000Y113611D01*
X532000Y123117D02*
X532000Y139011D01*
X532000Y148517D02*
X532000Y164411D01*
X532000Y173917D02*
X532000Y189811D01*
X532000Y199317D02*
X532000Y206530D01*
X532000Y247396D02*
X532000Y311432D01*
X532000Y324584D02*
X532000Y331931D01*
X532000Y356357D02*
X532000Y423152D01*
X532000Y433844D02*
X532000Y447115D01*
X532000Y452668D02*
X532000Y455128D01*
X532000Y460681D02*
X532000Y472046D01*
X536000Y31974D02*
X536000Y25517D01*
X536000Y41434D02*
X536000Y42894D01*
X536000Y52354D02*
X536000Y58811D01*
X536000Y76317D02*
X536000Y84211D01*
X536000Y101717D02*
X536000Y109611D01*
X536000Y127117D02*
X536000Y135011D01*
X536000Y152517D02*
X536000Y160411D01*
X536000Y177917D02*
X536000Y185811D01*
X536000Y203317D02*
X536000Y206530D01*
X536000Y247396D02*
X536000Y312072D01*
X536000Y323944D02*
X536000Y327931D01*
X536000Y352357D02*
X536000Y472045D01*
X540000Y29972D02*
X540000Y27940D01*
X540000Y41434D02*
X540000Y42894D01*
X540000Y54356D02*
X540000Y56388D01*
X540000Y78740D02*
X540000Y81788D01*
X540000Y104140D02*
X540000Y107188D01*
X540000Y129540D02*
X540000Y132588D01*
X540000Y154940D02*
X540000Y157988D01*
X540000Y180340D02*
X540000Y183388D01*
X540000Y205740D02*
X540000Y206530D01*
X540000Y247396D02*
X540000Y323931D01*
X540000Y348357D02*
X540000Y422016D01*
X540000Y434980D02*
X540000Y445979D01*
X540000Y452668D02*
X540000Y455128D01*
X540000Y461817D02*
X540000Y472043D01*
X544000Y29972D02*
X544000Y27940D01*
X544000Y41434D02*
X544000Y42894D01*
X544000Y54356D02*
X544000Y56388D01*
X544000Y78740D02*
X544000Y81788D01*
X544000Y104140D02*
X544000Y107188D01*
X544000Y129540D02*
X544000Y132588D01*
X544000Y154940D02*
X544000Y157988D01*
X544000Y180340D02*
X544000Y183388D01*
X544000Y205740D02*
X544000Y206530D01*
X544000Y247396D02*
X544000Y319931D01*
X544000Y344357D02*
X544000Y418164D01*
X544000Y438832D02*
X544000Y442548D01*
X544000Y452668D02*
X544000Y455128D01*
X544000Y465248D02*
X544000Y472042D01*
X548000Y29972D02*
X548000Y27621D01*
X548000Y41434D02*
X548000Y42894D01*
X548000Y54356D02*
X548000Y56707D01*
X548000Y78421D02*
X548000Y82107D01*
X548000Y103821D02*
X548000Y107507D01*
X548000Y129221D02*
X548000Y132907D01*
X548000Y154621D02*
X548000Y158307D01*
X548000Y180021D02*
X548000Y183707D01*
X548000Y205421D02*
X548000Y206530D01*
X548000Y247396D02*
X548000Y315931D01*
X548000Y340357D02*
X548000Y418164D01*
X548000Y438832D02*
X548000Y452668D01*
X548000Y455128D02*
X548000Y472041D01*
X552000Y33870D02*
X552000Y23621D01*
X552000Y41434D02*
X552000Y42894D01*
X552000Y50458D02*
X552000Y60707D01*
X552000Y74421D02*
X552000Y86107D01*
X552000Y99821D02*
X552000Y111507D01*
X552000Y125221D02*
X552000Y136907D01*
X552000Y150621D02*
X552000Y162307D01*
X552000Y176021D02*
X552000Y187707D01*
X552000Y201421D02*
X552000Y206530D01*
X552000Y247396D02*
X552000Y313436D01*
X552000Y336357D02*
X552000Y418164D01*
X552000Y438832D02*
X552000Y442548D01*
X552000Y452668D02*
X552000Y455128D01*
X552000Y465248D02*
X552000Y472040D01*
X556000Y189230D02*
X556000Y10160D01*
X556000Y199898D02*
X556000Y206530D01*
X556000Y247396D02*
X556000Y313436D01*
X556000Y332357D02*
X556000Y421752D01*
X556000Y435244D02*
X556000Y445715D01*
X556000Y452668D02*
X556000Y455128D01*
X556000Y462081D02*
X556000Y472039D01*
X560000Y189230D02*
X560000Y10160D01*
X560000Y199898D02*
X560000Y206530D01*
X560000Y247396D02*
X560000Y313436D01*
X560000Y330708D02*
X560000Y472038D01*
X564000Y189230D02*
X564000Y10160D01*
X564000Y199898D02*
X564000Y206530D01*
X564000Y248269D02*
X564000Y313436D01*
X564000Y330708D02*
X564000Y423416D01*
X564000Y433580D02*
X564000Y447379D01*
X564000Y452668D02*
X564000Y455128D01*
X564000Y460417D02*
X564000Y472037D01*
X568000Y33818D02*
X568000Y29706D01*
X568000Y54706D02*
X568000Y189230D01*
X568000Y199898D02*
X568000Y206530D01*
X568000Y252320D02*
X568000Y313436D01*
X568000Y330708D02*
X568000Y419416D01*
X568000Y437580D02*
X568000Y443379D01*
X568000Y452668D02*
X568000Y455128D01*
X568000Y464417D02*
X568000Y472035D01*
X572000Y189230D02*
X572000Y58706D01*
X572000Y199898D02*
X572000Y206530D01*
X572000Y252511D02*
X572000Y313436D01*
X572000Y330708D02*
X572000Y418164D01*
X572000Y438832D02*
X572000Y442548D01*
X572000Y452668D02*
X572000Y455128D01*
X572000Y465248D02*
X572000Y472034D01*
X576000Y79347D02*
X576000Y60557D01*
X576000Y109177D02*
X576000Y189230D01*
X576000Y199898D02*
X576000Y206530D01*
X576000Y240792D02*
X576000Y242872D01*
X576000Y249380D02*
X576000Y313436D01*
X576000Y330708D02*
X576000Y418164D01*
X576000Y438832D02*
X576000Y442548D01*
X576000Y452668D02*
X576000Y455128D01*
X576000Y465248D02*
X576000Y472033D01*
X580000Y77342D02*
X580000Y61692D01*
X580000Y111182D02*
X580000Y189230D01*
X580000Y199898D02*
X580000Y206530D01*
X580000Y240792D02*
X580000Y313436D01*
X580000Y330708D02*
X580000Y420352D01*
X580000Y436644D02*
X580000Y444315D01*
X580000Y452668D02*
X580000Y455128D01*
X580000Y463481D02*
X580000Y472032D01*
X584000Y77244D02*
X584000Y61692D01*
X584000Y111280D02*
X584000Y189230D01*
X584000Y199898D02*
X584000Y206530D01*
X584000Y240792D02*
X584000Y313436D01*
X584000Y330708D02*
X584000Y448315D01*
X584000Y452668D02*
X584000Y455128D01*
X584000Y459481D02*
X584000Y472031D01*
X588000Y78935D02*
X588000Y60728D01*
X588000Y109589D02*
X588000Y189230D01*
X588000Y199898D02*
X588000Y206530D01*
X588000Y224310D02*
X588000Y230124D01*
X588000Y240792D02*
X588000Y310729D01*
X588000Y330708D02*
X588000Y448779D01*
X588000Y452668D02*
X588000Y455128D01*
X588000Y459017D02*
X588000Y472030D01*
X592000Y84909D02*
X592000Y59071D01*
X592000Y103615D02*
X592000Y189230D01*
X592000Y199898D02*
X592000Y206530D01*
X592000Y224310D02*
X592000Y230124D01*
X592000Y240792D02*
X592000Y296844D01*
X592000Y304628D02*
X592000Y306729D01*
X592000Y330708D02*
X592000Y420816D01*
X592000Y436180D02*
X592000Y444779D01*
X592000Y452668D02*
X592000Y455128D01*
X592000Y463017D02*
X592000Y472029D01*
X596000Y33406D02*
X596000Y30118D01*
X596000Y55118D02*
X596000Y189230D01*
X596000Y199898D02*
X596000Y206530D01*
X596000Y224310D02*
X596000Y230124D01*
X596000Y240792D02*
X596000Y294201D01*
X596000Y327155D02*
X596000Y412203D01*
X596000Y438832D02*
X596000Y442548D01*
X596000Y452668D02*
X596000Y455128D01*
X596000Y465248D02*
X596000Y472027D01*
X600000Y78910D02*
X600000Y10160D01*
X600000Y93782D02*
X600000Y94742D01*
X600000Y109614D02*
X600000Y189230D01*
X600000Y199898D02*
X600000Y206530D01*
X600000Y224310D02*
X600000Y230124D01*
X600000Y241783D02*
X600000Y294692D01*
X600000Y323155D02*
X600000Y408203D01*
X600000Y438832D02*
X600000Y452668D01*
X600000Y455128D02*
X600000Y472026D01*
X604000Y76708D02*
X604000Y10160D01*
X604000Y93782D02*
X604000Y94742D01*
X604000Y111816D02*
X604000Y189230D01*
X604000Y199898D02*
X604000Y206530D01*
X604000Y224310D02*
X604000Y230697D01*
X604000Y247540D02*
X604000Y267043D01*
X604000Y319155D02*
X604000Y385936D01*
X604000Y393844D02*
X604000Y404203D01*
X604000Y438044D02*
X604000Y442915D01*
X604000Y452668D02*
X604000Y455128D01*
X604000Y464881D02*
X604000Y472025D01*
X608000Y76228D02*
X608000Y10160D01*
X608000Y112296D02*
X608000Y189230D01*
X608000Y199898D02*
X608000Y206530D01*
X608000Y224310D02*
X608000Y234697D01*
X608000Y249146D02*
X608000Y263043D01*
X608000Y315155D02*
X608000Y383330D01*
X608000Y415289D02*
X608000Y422952D01*
X608000Y434044D02*
X608000Y446915D01*
X608000Y452668D02*
X608000Y455128D01*
X608000Y460881D02*
X608000Y472024D01*
X612000Y38347D02*
X612000Y10160D01*
X612000Y50177D02*
X612000Y77335D01*
X612000Y111189D02*
X612000Y189230D01*
X612000Y199898D02*
X612000Y206530D01*
X612000Y224310D02*
X612000Y236972D01*
X612000Y248168D02*
X612000Y259043D01*
X612000Y311155D02*
X612000Y383872D01*
X612000Y411289D02*
X612000Y472023D01*
X616000Y35236D02*
X616000Y10160D01*
X616000Y53288D02*
X616000Y80672D01*
X616000Y107852D02*
X616000Y189230D01*
X616000Y199898D02*
X616000Y206530D01*
X616000Y226287D02*
X616000Y255043D01*
X616000Y270129D02*
X616000Y422216D01*
X616000Y434780D02*
X616000Y446179D01*
X616000Y452668D02*
X616000Y455128D01*
X616000Y461617D02*
X616000Y472022D01*
X620000Y34356D02*
X620000Y10160D01*
X620000Y54168D02*
X620000Y81818D01*
X620000Y106706D02*
X620000Y189230D01*
X620000Y199898D02*
X620000Y206530D01*
X620000Y230287D02*
X620000Y251043D01*
X620000Y266129D02*
X620000Y418216D01*
X620000Y438780D02*
X620000Y442548D01*
X620000Y452668D02*
X620000Y455128D01*
X620000Y465248D02*
X620000Y472021D01*
X624000Y34356D02*
X624000Y10160D01*
X624000Y54168D02*
X624000Y78795D01*
X624000Y109729D02*
X624000Y189230D01*
X624000Y199898D02*
X624000Y207517D01*
X624000Y234287D02*
X624000Y248666D01*
X624000Y262129D02*
X624000Y418164D01*
X624000Y438832D02*
X624000Y452668D01*
X624000Y455128D02*
X624000Y472019D01*
X628000Y34356D02*
X628000Y10160D01*
X628000Y54168D02*
X628000Y77138D01*
X628000Y111386D02*
X628000Y189230D01*
X628000Y199898D02*
X628000Y209760D01*
X628000Y220516D02*
X628000Y223201D01*
X628000Y242154D02*
X628000Y248666D01*
X628000Y259334D02*
X628000Y418164D01*
X628000Y438832D02*
X628000Y442548D01*
X628000Y452668D02*
X628000Y455128D01*
X628000Y465248D02*
X628000Y472018D01*
X632000Y34356D02*
X632000Y10160D01*
X632000Y54168D02*
X632000Y76832D01*
X632000Y111692D02*
X632000Y189230D01*
X632000Y199898D02*
X632000Y227201D01*
X632000Y246221D02*
X632000Y248666D01*
X632000Y259334D02*
X632000Y421552D01*
X632000Y435444D02*
X632000Y445515D01*
X632000Y452668D02*
X632000Y455128D01*
X632000Y462281D02*
X632000Y472017D01*
X636000Y34356D02*
X636000Y10160D01*
X636000Y54168D02*
X636000Y76967D01*
X636000Y111557D02*
X636000Y189230D01*
X636000Y199898D02*
X636000Y231201D01*
X636000Y246418D02*
X636000Y248666D01*
X636000Y259334D02*
X636000Y472016D01*
X640000Y35935D02*
X640000Y10160D01*
X640000Y52589D02*
X640000Y78624D01*
X640000Y109900D02*
X640000Y189230D01*
X640000Y199898D02*
X640000Y236757D01*
X640000Y243303D02*
X640000Y248666D01*
X640000Y259334D02*
X640000Y423616D01*
X640000Y433380D02*
X640000Y447579D01*
X640000Y452668D02*
X640000Y455128D01*
X640000Y460217D02*
X640000Y472015D01*
X644000Y41751D02*
X644000Y10160D01*
X644000Y46773D02*
X644000Y81406D01*
X644000Y107118D02*
X644000Y189230D01*
X644000Y199898D02*
X644000Y248666D01*
X644000Y259334D02*
X644000Y419616D01*
X644000Y437380D02*
X644000Y443579D01*
X644000Y452668D02*
X644000Y455128D01*
X644000Y464217D02*
X644000Y472014D01*
X648000Y83490D02*
X648000Y10160D01*
X648000Y105034D02*
X648000Y189230D01*
X648000Y199898D02*
X648000Y248666D01*
X648000Y259334D02*
X648000Y418164D01*
X648000Y438832D02*
X648000Y442548D01*
X648000Y452668D02*
X648000Y455128D01*
X648000Y465248D02*
X648000Y472013D01*
X652000Y78584D02*
X652000Y10160D01*
X652000Y109940D02*
X652000Y189230D01*
X652000Y199898D02*
X652000Y248666D01*
X652000Y259334D02*
X652000Y418164D01*
X652000Y438832D02*
X652000Y442548D01*
X652000Y452668D02*
X652000Y455128D01*
X652000Y465248D02*
X652000Y472011D01*
X656000Y77244D02*
X656000Y10160D01*
X656000Y111280D02*
X656000Y189230D01*
X656000Y199898D02*
X656000Y248666D01*
X656000Y259334D02*
X656000Y420152D01*
X656000Y436844D02*
X656000Y444115D01*
X656000Y452668D02*
X656000Y455128D01*
X656000Y463681D02*
X656000Y472010D01*
X660000Y77585D02*
X660000Y10160D01*
X660000Y110939D02*
X660000Y189230D01*
X660000Y199898D02*
X660000Y248666D01*
X660000Y259334D02*
X660000Y424152D01*
X660000Y432844D02*
X660000Y448115D01*
X660000Y452668D02*
X660000Y455128D01*
X660000Y459681D02*
X660000Y472009D01*
X664000Y79935D02*
X664000Y10160D01*
X664000Y108589D02*
X664000Y189230D01*
X664000Y201897D02*
X664000Y248666D01*
X664000Y259334D02*
X664000Y448979D01*
X664000Y452668D02*
X664000Y455128D01*
X664000Y458817D02*
X664000Y472008D01*
X668000Y33818D02*
X668000Y29706D01*
X668000Y54706D02*
X668000Y190811D01*
X668000Y259334D02*
X668000Y421016D01*
X668000Y435980D02*
X668000Y444979D01*
X668000Y452668D02*
X668000Y455128D01*
X668000Y462817D02*
X668000Y472007D01*
X672000Y194811D02*
X672000Y58706D01*
X672000Y262221D02*
X672000Y418164D01*
X672000Y438832D02*
X672000Y442548D01*
X672000Y452668D02*
X672000Y455128D01*
X672000Y465248D02*
X672000Y472006D01*
X676000Y79347D02*
X676000Y60557D01*
X676000Y109177D02*
X676000Y198811D01*
X676000Y266221D02*
X676000Y418164D01*
X676000Y438832D02*
X676000Y452668D01*
X676000Y455128D02*
X676000Y472005D01*
X680000Y77342D02*
X680000Y61692D01*
X680000Y111182D02*
X680000Y255135D01*
X680000Y270221D02*
X680000Y418752D01*
X680000Y438244D02*
X680000Y442715D01*
X680000Y452668D02*
X680000Y455128D01*
X680000Y465081D02*
X680000Y472003D01*
X684000Y77244D02*
X684000Y61692D01*
X684000Y111280D02*
X684000Y259135D01*
X684000Y274221D02*
X684000Y422752D01*
X684000Y434244D02*
X684000Y446715D01*
X684000Y452668D02*
X684000Y455128D01*
X684000Y461081D02*
X684000Y472002D01*
X688000Y78935D02*
X688000Y60728D01*
X688000Y109589D02*
X688000Y263135D01*
X688000Y275082D02*
X688000Y472001D01*
X692000Y84909D02*
X692000Y59071D01*
X692000Y103615D02*
X692000Y264414D01*
X692000Y275082D02*
X692000Y422416D01*
X692000Y434580D02*
X692000Y447816D01*
X692000Y459980D02*
X692000Y472000D01*
X696000Y33406D02*
X696000Y30118D01*
X696000Y55118D02*
X696000Y264414D01*
X696000Y275082D02*
X696000Y418416D01*
X696000Y438580D02*
X696000Y443816D01*
X696000Y463980D02*
X696000Y471999D01*
X700000Y263172D02*
X700000Y10160D01*
X700000Y276324D02*
X700000Y418164D01*
X700000Y438832D02*
X700000Y443564D01*
X700000Y464232D02*
X700000Y471998D01*
X704000Y263751D02*
X704000Y10160D01*
X704000Y275745D02*
X704000Y418164D01*
X704000Y438832D02*
X704000Y443564D01*
X704000Y464232D02*
X704000Y471997D01*
X708000Y421352D02*
X708000Y10160D01*
X708000Y435644D02*
X708000Y446752D01*
X708000Y461044D02*
X708000Y471995D01*
X712000Y35211D02*
X712000Y23717D01*
X712000Y49117D02*
X712000Y60611D01*
X712000Y74517D02*
X712000Y86011D01*
X712000Y99917D02*
X712000Y111411D01*
X712000Y125317D02*
X712000Y136811D01*
X712000Y150717D02*
X712000Y162211D01*
X712000Y176117D02*
X712000Y187611D01*
X712000Y201517D02*
X712000Y471994D01*
X716000Y31211D02*
X716000Y27717D01*
X716000Y53117D02*
X716000Y56611D01*
X716000Y78517D02*
X716000Y82011D01*
X716000Y103917D02*
X716000Y107411D01*
X716000Y129317D02*
X716000Y132811D01*
X716000Y154717D02*
X716000Y158211D01*
X716000Y180117D02*
X716000Y183611D01*
X716000Y205517D02*
X716000Y471993D01*
X720000Y30988D02*
X720000Y27940D01*
X720000Y53340D02*
X720000Y56388D01*
X720000Y78740D02*
X720000Y81788D01*
X720000Y104140D02*
X720000Y107188D01*
X720000Y129540D02*
X720000Y132588D01*
X720000Y154940D02*
X720000Y157988D01*
X720000Y180340D02*
X720000Y183388D01*
X720000Y205740D02*
X720000Y471992D01*
X724000Y30988D02*
X724000Y27940D01*
X724000Y53340D02*
X724000Y56388D01*
X724000Y78740D02*
X724000Y81788D01*
X724000Y104140D02*
X724000Y107188D01*
X724000Y129540D02*
X724000Y132588D01*
X724000Y154940D02*
X724000Y157988D01*
X724000Y180340D02*
X724000Y183388D01*
X724000Y205740D02*
X724000Y471991D01*
X728000Y33507D02*
X728000Y25421D01*
X728000Y50821D02*
X728000Y58907D01*
X728000Y76221D02*
X728000Y84307D01*
X728000Y101621D02*
X728000Y109707D01*
X728000Y127021D02*
X728000Y135107D01*
X728000Y152421D02*
X728000Y160507D01*
X728000Y177821D02*
X728000Y185907D01*
X728000Y203221D02*
X728000Y471990D01*
X732000Y12107D02*
X732000Y10160D01*
X732000Y21421D02*
X732000Y37507D01*
X732000Y46821D02*
X732000Y62907D01*
X732000Y72221D02*
X732000Y88307D01*
X732000Y97621D02*
X732000Y113707D01*
X732000Y123021D02*
X732000Y139107D01*
X732000Y148421D02*
X732000Y164507D01*
X732000Y173821D02*
X732000Y189907D01*
X732000Y199221D02*
X732000Y471989D01*
X736000Y471987D02*
X736000Y10160D01*
X740000Y10160D02*
X740000Y471986D01*
X744000Y471985D02*
X744000Y10160D01*
X748000Y10160D02*
X748000Y471984D01*
X752000Y471983D02*
X752000Y10160D01*
X756000Y10160D02*
X756000Y471982D01*
X760000Y471981D02*
X760000Y10160D01*
X764000Y10160D02*
X764000Y471979D01*
X768000Y471978D02*
X768000Y10160D01*
X772000Y10160D02*
X772000Y471977D01*
X776000Y471976D02*
X776000Y10160D01*
X780000Y10160D02*
X780000Y471975D01*
X784000Y471974D02*
X784000Y10160D01*
X788000Y10160D02*
X788000Y471973D01*
X792000Y471971D02*
X792000Y10160D01*
X796000Y10160D02*
X796000Y471970D01*
X800000Y432535D02*
X800000Y10160D01*
X800000Y440182D02*
X800000Y442722D01*
X800000Y450369D02*
X800000Y471969D01*
X804000Y28464D02*
X804000Y10160D01*
X804000Y40132D02*
X804000Y42672D01*
X804000Y54340D02*
X804000Y429423D01*
X804000Y440182D02*
X804000Y442722D01*
X804000Y453481D02*
X804000Y471968D01*
X808000Y27842D02*
X808000Y10160D01*
X808000Y40132D02*
X808000Y42672D01*
X808000Y54962D02*
X808000Y428081D01*
X808000Y440182D02*
X808000Y442722D01*
X808000Y454823D02*
X808000Y471967D01*
X812000Y27842D02*
X812000Y10160D01*
X812000Y40132D02*
X812000Y42672D01*
X812000Y54962D02*
X812000Y427999D01*
X812000Y440182D02*
X812000Y442722D01*
X812000Y454905D02*
X812000Y471966D01*
X816000Y40132D02*
X816000Y10160D01*
X816000Y42672D02*
X816000Y429158D01*
X816000Y440182D02*
X816000Y442722D01*
X816000Y453746D02*
X816000Y471965D01*
X820000Y27842D02*
X820000Y10160D01*
X820000Y40132D02*
X820000Y42672D01*
X820000Y54962D02*
X820000Y432015D01*
X820000Y440182D02*
X820000Y442722D01*
X820000Y450889D02*
X820000Y471963D01*
X824000Y27842D02*
X824000Y10160D01*
X824000Y40132D02*
X824000Y42672D01*
X824000Y54962D02*
X824000Y471962D01*
X828000Y28666D02*
X828000Y10160D01*
X828000Y40132D02*
X828000Y42672D01*
X828000Y54138D02*
X828000Y471961D01*
X832000Y471960D02*
X832000Y10160D01*
X836000Y10160D02*
X836000Y471959D01*
X840000Y471958D02*
X840000Y10160D01*
X844000Y10160D02*
X844000Y471957D01*
X848000Y380276D02*
X848000Y10160D01*
X848000Y450304D02*
X848000Y471955D01*
X852000Y36278D02*
X852000Y10160D01*
X852000Y454304D02*
X852000Y471954D01*
X856000Y30138D02*
X856000Y10160D01*
X856000Y456127D02*
X856000Y471953D01*
X860000Y27385D02*
X860000Y10160D01*
X860000Y456946D02*
X860000Y471952D01*
X864000Y25908D02*
X864000Y10160D01*
X864000Y456946D02*
X864000Y471951D01*
X868000Y25908D02*
X868000Y10160D01*
X868000Y455348D02*
X868000Y471950D01*
X872000Y26848D02*
X872000Y10160D01*
X872000Y453963D02*
X872000Y471949D01*
X876000Y28842D02*
X876000Y10160D01*
X876000Y445871D02*
X876000Y471947D01*
X880000Y33149D02*
X880000Y10160D01*
X880000Y391793D02*
X880000Y471946D01*
X884000Y471945D02*
X884000Y10160D01*
X888000Y10160D02*
X888000Y471944D01*
X892000Y471943D02*
X892000Y10160D01*
X896000Y10160D02*
X896000Y436822D01*
X896000Y448622D02*
X896000Y471942D01*
X900000Y24308D02*
X900000Y10160D01*
X900000Y55448D02*
X900000Y426272D01*
X900000Y459172D02*
X900000Y471941D01*
X904000Y18378D02*
X904000Y10160D01*
X904000Y61378D02*
X904000Y420714D01*
X904000Y464730D02*
X904000Y471939D01*
X908000Y14378D02*
X908000Y10160D01*
X908000Y65378D02*
X908000Y416714D01*
X908000Y468730D02*
X908000Y471938D01*
X912000Y11755D02*
X912000Y10160D01*
X912000Y68001D02*
X912000Y414306D01*
X912000Y471138D02*
X912000Y471937D01*
X916000Y412086D02*
X916000Y70310D01*
X920000Y71450D02*
X920000Y411014D01*
X924000Y409942D02*
X924000Y72522D01*
X928000Y72672D02*
X928000Y409928D01*
X932000Y409928D02*
X932000Y72672D01*
X936000Y71920D02*
X936000Y410816D01*
X940000Y411887D02*
X940000Y70849D01*
X944000Y69015D02*
X944000Y413879D01*
X948000Y416188D02*
X948000Y66705D01*
X952000Y63134D02*
X952000Y419974D01*
X956000Y424991D02*
X956000Y58489D01*
D22*
X36830Y165608D03*
D23*
X810260Y378714D02*
X810260Y441452D01*
X810260Y378714D02*
X815848Y373126D01*
X815848Y41402D01*
D24*
X378714Y183862D02*
X378714Y218694D01*
X393954Y233934D02*
X393954Y314960D01*
X393954Y233934D02*
X378714Y218694D01*
D22*
X533146Y318008D03*
D24*
X515366Y318008D01*
X514604Y318770D01*
D22*
X514604Y318770D03*
D24*
X378714Y183862D02*
X375954Y181102D01*
X294640Y174244D02*
X294640Y155194D01*
X289814Y150368D01*
X287020Y150368D01*
D22*
X287020Y150368D03*
D24*
X301498Y181102D02*
X375954Y181102D01*
X301498Y181102D02*
X294640Y174244D01*
X498714Y183862D02*
X498714Y201818D01*
X495272Y205260D02*
X480403Y205260D01*
X427200Y249936D02*
X418084Y259052D01*
D22*
X418084Y259052D03*
D24*
X495272Y205260D02*
X498714Y201818D01*
X480403Y205260D02*
X435727Y249936D01*
X427200Y249936D01*
D22*
X222758Y382778D03*
D24*
X320040Y382778D01*
X330962Y393700D02*
X330962Y410210D01*
X346456Y425704D01*
X463550Y419608D02*
X463550Y385572D01*
X470916Y378206D01*
X485140Y378206D01*
X492506Y370840D01*
X492506Y362204D01*
D22*
X492506Y362204D03*
D24*
X330962Y393700D02*
X320040Y382778D01*
X346456Y425704D02*
X457454Y425704D01*
X463550Y419608D01*
D22*
X208534Y377980D03*
D24*
X209832Y377980D01*
X211836Y379984D01*
X211836Y386080D01*
X300736Y392176D02*
X300736Y431800D01*
X217932Y392176D02*
X211836Y386080D01*
X217932Y392176D02*
X300736Y392176D01*
D22*
X300736Y431800D03*
D23*
X320802Y41148D02*
X365252Y41148D01*
X378714Y54610D01*
X378714Y61862D01*
X270002Y65024D02*
X270002Y41148D01*
X270002Y65024D02*
X285496Y80518D01*
X341630Y80518D01*
X341884Y80264D01*
X373380Y111760D01*
X414528Y111760D01*
X439420Y136652D01*
X438714Y137358D02*
X438714Y203862D01*
X438714Y137358D02*
X439420Y136652D01*
D22*
X264160Y186436D03*
D24*
X264160Y146558D01*
X235204Y139700D02*
X229870Y134366D01*
D22*
X229870Y134366D03*
D24*
X257302Y139700D02*
X264160Y146558D01*
X257302Y139700D02*
X253746Y139700D01*
X235204Y139700D01*
D22*
X249174Y167640D03*
D24*
X187198Y167640D01*
X185166Y169672D01*
X185166Y193548D01*
D22*
X185166Y193548D03*
X185166Y211836D03*
D24*
X185166Y261620D01*
X191516Y267970D02*
X215646Y267970D01*
X220218Y272542D01*
X220218Y272796D01*
D22*
X220218Y272796D03*
X220218Y292862D03*
D24*
X220218Y341630D01*
X314960Y360172D02*
X314960Y368554D01*
D22*
X314960Y368554D03*
D24*
X191516Y267970D02*
X185166Y261620D01*
X220218Y341630D02*
X232664Y354076D01*
X308864Y354076D01*
X314960Y360172D01*
D22*
X404876Y409194D03*
D21*
X413258Y400812D01*
X399288Y368554D02*
X314960Y368554D01*
X413258Y382524D02*
X413258Y400812D01*
X413258Y382524D02*
X399288Y368554D01*
D22*
X202438Y255016D03*
D24*
X198882Y251460D01*
X198882Y212852D02*
X199390Y212344D01*
D22*
X199390Y212344D03*
X199136Y194056D03*
D24*
X199136Y183134D01*
X205740Y176530D01*
X241554Y176530D01*
X246888Y181864D02*
X251714Y181864D01*
D22*
X251714Y181864D03*
D24*
X198882Y212852D02*
X198882Y251460D01*
X246888Y181864D02*
X241554Y176530D01*
D22*
X421640Y410718D03*
D21*
X421640Y383540D01*
X316484Y344678D02*
X305816Y344678D01*
D22*
X305816Y344678D03*
D21*
X402590Y364490D02*
X421640Y383540D01*
X402590Y364490D02*
X336296Y364490D01*
X316484Y344678D01*
D24*
X598932Y416814D02*
X598932Y428498D01*
X609346Y406400D02*
X609346Y389890D01*
D22*
X609346Y389890D03*
D24*
X609346Y406400D02*
X598932Y416814D01*
D22*
X452628Y333502D03*
D24*
X452628Y283972D01*
X566166Y242062D02*
X570230Y246126D01*
D22*
X570230Y246126D03*
D24*
X494538Y242062D02*
X452628Y283972D01*
X494538Y242062D02*
X566166Y242062D01*
D22*
X433888Y336296D03*
D24*
X433888Y326080D01*
X438178Y321790D01*
X438178Y276949D02*
X487797Y227330D01*
X438178Y276949D02*
X438178Y321790D01*
X487797Y227330D02*
X570738Y227330D01*
X571246Y226822D01*
X580644Y226822D01*
D22*
X580644Y226822D03*
X267462Y308356D03*
D24*
X330454Y308356D01*
X330962Y307848D01*
D22*
X330962Y307848D03*
X414782Y346484D03*
D24*
X524990Y346484D01*
X597408Y308864D02*
X597408Y300736D01*
D22*
X597408Y300736D03*
D24*
X552704Y318770D02*
X524990Y346484D01*
X552704Y318770D02*
X587502Y318770D01*
X597408Y308864D01*
D22*
X442976Y334264D03*
D24*
X444782Y332458D01*
X444782Y281463D01*
X490787Y235458D01*
X601218Y235458D02*
X608330Y242570D01*
D22*
X608330Y242570D03*
D24*
X601218Y235458D02*
X490787Y235458D01*
D22*
X121666Y282448D03*
D24*
X328930Y282448D01*
X338328Y265938D02*
X346710Y257556D01*
X620804Y211864D02*
X624078Y215138D01*
D22*
X624078Y215138D03*
D24*
X338328Y273050D02*
X328930Y282448D01*
X338328Y273050D02*
X338328Y265938D01*
X486362Y211864D02*
X620804Y211864D01*
X486362Y211864D02*
X484612Y213614D01*
X481389Y213614D01*
X423164Y271839D01*
X423164Y315781D02*
X407983Y330962D01*
X423164Y315781D02*
X423164Y271839D01*
X407983Y330962D02*
X364432Y330962D01*
X360172Y260096D02*
X357632Y257556D01*
X346710Y257556D01*
X360172Y326703D02*
X364432Y330962D01*
X360172Y326703D02*
X360172Y260096D01*
D22*
X350012Y266700D03*
D24*
X576152Y220218D02*
X577394Y218976D01*
X616232Y218976D01*
X576152Y220218D02*
X484124Y220218D01*
X634238Y236982D02*
X634238Y240030D01*
D22*
X634238Y240030D03*
D24*
X634238Y236982D02*
X616232Y218976D01*
X353060Y269748D02*
X350012Y266700D01*
X431038Y273304D02*
X484124Y220218D01*
X431038Y273304D02*
X431038Y317246D01*
X410718Y337566D01*
X361696Y337566D01*
X353060Y328930D01*
X353060Y269748D01*
D22*
X123698Y343408D03*
D24*
X46228Y343408D01*
X44196Y341376D01*
D22*
X701294Y269748D03*
D24*
X687070Y269748D01*
X664210Y194564D02*
X543052Y194564D01*
X671322Y254000D02*
X687070Y269748D01*
X671322Y254000D02*
X671322Y201676D01*
X664210Y194564D01*
D22*
X361950Y238506D03*
D24*
X344424Y238506D01*
X318770Y222504D02*
X318516Y222758D01*
D22*
X318516Y222758D03*
D24*
X328422Y222504D02*
X344424Y238506D01*
X328422Y222504D02*
X318770Y222504D01*
D22*
X270764Y224028D03*
D24*
X225806Y224028D01*
X216154Y204216D02*
X214630Y202692D01*
X89154Y202692D01*
X88900Y202438D01*
D22*
X88900Y202438D03*
D24*
X216154Y214376D02*
X225806Y224028D01*
X216154Y214376D02*
X216154Y204216D01*
D22*
X124714Y373126D03*
D24*
X119126Y367538D01*
X44958Y367538D02*
X44196Y366776D01*
X44958Y367538D02*
X119126Y367538D01*
X44196Y366776D02*
X21336Y366776D01*
X14732Y360172D01*
X14732Y201168D01*
X21844Y194056D02*
X78232Y194056D01*
X86868Y202692D01*
X89154Y202692D01*
X21844Y194056D02*
X14732Y201168D01*
X447040Y457708D02*
X470154Y434594D01*
X475234Y384810D02*
X487876Y384810D01*
X488130Y384556D01*
X489712Y384556D01*
X502666Y371602D01*
X502666Y354330D01*
X503908Y353088D01*
X527726Y353088D02*
X555440Y325374D01*
X590238Y325374D01*
X607060Y308552D01*
X607060Y271526D01*
X624586Y254000D01*
X671322Y254000D01*
X470154Y389890D02*
X470154Y434594D01*
X470154Y389890D02*
X475234Y384810D01*
X503908Y353088D02*
X527726Y353088D01*
D22*
X125476Y332994D03*
D24*
X81788Y332994D01*
X71374Y322580D02*
X71374Y319278D01*
X68072Y315976D01*
X44196Y315976D01*
X71374Y322580D02*
X81788Y332994D01*
D22*
X266192Y244856D03*
D24*
X241046Y244856D01*
D22*
X241046Y244856D03*
X267208Y293878D03*
D24*
X267970Y293116D01*
X326390Y293116D01*
D22*
X326390Y293116D03*
D23*
X861060Y389128D02*
X861060Y441452D01*
X861060Y389128D02*
X866648Y383540D01*
X866648Y41402D01*
M02*
