G04 EAGLE Gerber RS-274X export*
G75*
%MOMM*%
%FSLAX34Y34*%
%LPD*%
%IN*%
%IPPOS*%
%AMOC8*
5,1,8,0,0,1.08239X$1,22.5*%
G01*
%ADD10C,0.254000*%


D10*
X-508Y40132D02*
X-507Y40110D01*
X-504Y40088D01*
X-499Y40066D01*
X-493Y40045D01*
X-484Y40025D01*
X-474Y40005D01*
X-462Y39986D01*
X-449Y39969D01*
X-434Y39952D01*
X-417Y39937D01*
X-400Y39924D01*
X-381Y39912D01*
X-361Y39902D01*
X-341Y39893D01*
X-320Y39887D01*
X-298Y39882D01*
X-276Y39879D01*
X-254Y39878D01*
X-254Y39116D01*
X-100Y35596D01*
X360Y32103D01*
X1122Y28663D01*
X2182Y25303D01*
X3530Y22048D01*
X5157Y18923D01*
X7050Y15952D01*
X9195Y13156D01*
X11575Y10559D01*
X14172Y8179D01*
X16968Y6034D01*
X19939Y4141D01*
X23064Y2514D01*
X26319Y1166D01*
X29679Y106D01*
X33119Y-656D01*
X36612Y-1116D01*
X40132Y-1270D01*
X928624Y-1270D01*
X932210Y-1113D01*
X935769Y-645D01*
X939274Y132D01*
X942697Y1212D01*
X946014Y2585D01*
X949198Y4243D01*
X952226Y6172D01*
X955073Y8357D01*
X957720Y10782D01*
X960145Y13429D01*
X962330Y16276D01*
X964259Y19304D01*
X965917Y22488D01*
X967290Y25805D01*
X968370Y29228D01*
X969147Y32733D01*
X969615Y36292D01*
X969772Y39878D01*
X969772Y443484D01*
X969620Y446960D01*
X969166Y450409D01*
X968413Y453805D01*
X967367Y457123D01*
X966036Y460337D01*
X964429Y463423D01*
X962560Y466357D01*
X960442Y469117D01*
X958092Y471682D01*
X955527Y474032D01*
X952767Y476150D01*
X949833Y478019D01*
X946747Y479626D01*
X943533Y480957D01*
X940215Y482003D01*
X936819Y482756D01*
X933370Y483210D01*
X929894Y483362D01*
X40894Y483616D01*
X39370Y483616D01*
X35894Y483464D01*
X32445Y483010D01*
X29049Y482257D01*
X25731Y481211D01*
X22517Y479880D01*
X19431Y478273D01*
X16497Y476404D01*
X13737Y474286D01*
X11172Y471936D01*
X8822Y469371D01*
X6704Y466611D01*
X4835Y463677D01*
X3228Y460591D01*
X1897Y457377D01*
X851Y454059D01*
X98Y450663D01*
X-356Y447214D01*
X-508Y443738D01*
X-508Y40132D01*
X582543Y25262D02*
X583213Y25187D01*
X583870Y25037D01*
X584506Y24814D01*
X585113Y24522D01*
X585684Y24163D01*
X586210Y23743D01*
X586687Y23266D01*
X587107Y22740D01*
X587466Y22169D01*
X587758Y21562D01*
X587981Y20926D01*
X588131Y20269D01*
X588206Y19599D01*
X588206Y18925D01*
X588131Y18255D01*
X587981Y17598D01*
X587758Y16962D01*
X587466Y16355D01*
X587107Y15785D01*
X586687Y15258D01*
X586210Y14781D01*
X585684Y14361D01*
X585113Y14002D01*
X584506Y13710D01*
X583870Y13487D01*
X583213Y13337D01*
X582543Y13262D01*
X581869Y13262D01*
X581199Y13337D01*
X580542Y13487D01*
X579906Y13710D01*
X579299Y14002D01*
X578729Y14361D01*
X578202Y14781D01*
X577725Y15258D01*
X577305Y15785D01*
X576946Y16355D01*
X576654Y16962D01*
X576431Y17598D01*
X576281Y18255D01*
X576206Y18925D01*
X576206Y19599D01*
X576281Y20269D01*
X576431Y20926D01*
X576654Y21562D01*
X576946Y22169D01*
X577305Y22740D01*
X577725Y23266D01*
X578202Y23743D01*
X578729Y24163D01*
X579299Y24522D01*
X579906Y24814D01*
X580542Y25037D01*
X581199Y25187D01*
X581869Y25262D01*
X582543Y25262D01*
X582543Y50262D02*
X583213Y50187D01*
X583870Y50037D01*
X584506Y49814D01*
X585113Y49522D01*
X585684Y49163D01*
X586210Y48743D01*
X586687Y48266D01*
X587107Y47740D01*
X587466Y47169D01*
X587758Y46562D01*
X587981Y45926D01*
X588131Y45269D01*
X588206Y44599D01*
X588206Y43925D01*
X588131Y43255D01*
X587981Y42598D01*
X587758Y41962D01*
X587466Y41355D01*
X587107Y40785D01*
X586687Y40258D01*
X586210Y39781D01*
X585684Y39361D01*
X585113Y39002D01*
X584506Y38710D01*
X583870Y38487D01*
X583213Y38337D01*
X582543Y38262D01*
X581869Y38262D01*
X581199Y38337D01*
X580542Y38487D01*
X579906Y38710D01*
X579299Y39002D01*
X578729Y39361D01*
X578202Y39781D01*
X577725Y40258D01*
X577305Y40785D01*
X576946Y41355D01*
X576654Y41962D01*
X576431Y42598D01*
X576281Y43255D01*
X576206Y43925D01*
X576206Y44599D01*
X576281Y45269D01*
X576431Y45926D01*
X576654Y46562D01*
X576946Y47169D01*
X577305Y47740D01*
X577725Y48266D01*
X578202Y48743D01*
X578729Y49163D01*
X579299Y49522D01*
X579906Y49814D01*
X580542Y50037D01*
X581199Y50187D01*
X581869Y50262D01*
X582543Y50262D01*
X632543Y100262D02*
X633213Y100187D01*
X633870Y100037D01*
X634506Y99814D01*
X635113Y99522D01*
X635684Y99163D01*
X636210Y98743D01*
X636687Y98266D01*
X637107Y97740D01*
X637466Y97169D01*
X637758Y96562D01*
X637981Y95926D01*
X638131Y95269D01*
X638206Y94599D01*
X638206Y93925D01*
X638131Y93255D01*
X637981Y92598D01*
X637758Y91962D01*
X637466Y91355D01*
X637107Y90785D01*
X636687Y90258D01*
X636210Y89781D01*
X635684Y89361D01*
X635113Y89002D01*
X634506Y88710D01*
X633870Y88487D01*
X633213Y88337D01*
X632543Y88262D01*
X631869Y88262D01*
X631199Y88337D01*
X630542Y88487D01*
X629906Y88710D01*
X629299Y89002D01*
X628729Y89361D01*
X628202Y89781D01*
X627725Y90258D01*
X627305Y90785D01*
X626946Y91355D01*
X626654Y91962D01*
X626431Y92598D01*
X626281Y93255D01*
X626206Y93925D01*
X626206Y94599D01*
X626281Y95269D01*
X626431Y95926D01*
X626654Y96562D01*
X626946Y97169D01*
X627305Y97740D01*
X627725Y98266D01*
X628202Y98743D01*
X628729Y99163D01*
X629299Y99522D01*
X629906Y99814D01*
X630542Y100037D01*
X631199Y100187D01*
X631869Y100262D01*
X632543Y100262D01*
X682543Y25262D02*
X683213Y25187D01*
X683870Y25037D01*
X684506Y24814D01*
X685113Y24522D01*
X685684Y24163D01*
X686210Y23743D01*
X686687Y23266D01*
X687107Y22740D01*
X687466Y22169D01*
X687758Y21562D01*
X687981Y20926D01*
X688131Y20269D01*
X688206Y19599D01*
X688206Y18925D01*
X688131Y18255D01*
X687981Y17598D01*
X687758Y16962D01*
X687466Y16355D01*
X687107Y15785D01*
X686687Y15258D01*
X686210Y14781D01*
X685684Y14361D01*
X685113Y14002D01*
X684506Y13710D01*
X683870Y13487D01*
X683213Y13337D01*
X682543Y13262D01*
X681869Y13262D01*
X681199Y13337D01*
X680542Y13487D01*
X679906Y13710D01*
X679299Y14002D01*
X678729Y14361D01*
X678202Y14781D01*
X677725Y15258D01*
X677305Y15785D01*
X676946Y16355D01*
X676654Y16962D01*
X676431Y17598D01*
X676281Y18255D01*
X676206Y18925D01*
X676206Y19599D01*
X676281Y20269D01*
X676431Y20926D01*
X676654Y21562D01*
X676946Y22169D01*
X677305Y22740D01*
X677725Y23266D01*
X678202Y23743D01*
X678729Y24163D01*
X679299Y24522D01*
X679906Y24814D01*
X680542Y25037D01*
X681199Y25187D01*
X681869Y25262D01*
X682543Y25262D01*
X682543Y50262D02*
X683213Y50187D01*
X683870Y50037D01*
X684506Y49814D01*
X685113Y49522D01*
X685684Y49163D01*
X686210Y48743D01*
X686687Y48266D01*
X687107Y47740D01*
X687466Y47169D01*
X687758Y46562D01*
X687981Y45926D01*
X688131Y45269D01*
X688206Y44599D01*
X688206Y43925D01*
X688131Y43255D01*
X687981Y42598D01*
X687758Y41962D01*
X687466Y41355D01*
X687107Y40785D01*
X686687Y40258D01*
X686210Y39781D01*
X685684Y39361D01*
X685113Y39002D01*
X684506Y38710D01*
X683870Y38487D01*
X683213Y38337D01*
X682543Y38262D01*
X681869Y38262D01*
X681199Y38337D01*
X680542Y38487D01*
X679906Y38710D01*
X679299Y39002D01*
X678729Y39361D01*
X678202Y39781D01*
X677725Y40258D01*
X677305Y40785D01*
X676946Y41355D01*
X676654Y41962D01*
X676431Y42598D01*
X676281Y43255D01*
X676206Y43925D01*
X676206Y44599D01*
X676281Y45269D01*
X676431Y45926D01*
X676654Y46562D01*
X676946Y47169D01*
X677305Y47740D01*
X677725Y48266D01*
X678202Y48743D01*
X678729Y49163D01*
X679299Y49522D01*
X679906Y49814D01*
X680542Y50037D01*
X681199Y50187D01*
X681869Y50262D01*
X682543Y50262D01*
X154663Y121816D02*
X155299Y121753D01*
X155925Y121629D01*
X156536Y121443D01*
X157126Y121199D01*
X157690Y120898D01*
X158221Y120543D01*
X158714Y120138D01*
X159166Y119686D01*
X159571Y119193D01*
X159926Y118662D01*
X160227Y118098D01*
X160471Y117508D01*
X160657Y116897D01*
X160781Y116271D01*
X160844Y115635D01*
X160844Y114997D01*
X160781Y114361D01*
X160657Y113735D01*
X160471Y113124D01*
X160227Y112534D01*
X159926Y111970D01*
X159571Y111439D01*
X159166Y110946D01*
X158714Y110494D01*
X158221Y110089D01*
X157690Y109734D01*
X157126Y109433D01*
X156536Y109189D01*
X155925Y109003D01*
X155299Y108879D01*
X154663Y108816D01*
X154025Y108816D01*
X153389Y108879D01*
X152763Y109003D01*
X152152Y109189D01*
X151562Y109433D01*
X150998Y109734D01*
X150467Y110089D01*
X149974Y110494D01*
X149522Y110946D01*
X149117Y111439D01*
X148762Y111970D01*
X148461Y112534D01*
X148217Y113124D01*
X148031Y113735D01*
X147907Y114361D01*
X147844Y114997D01*
X147844Y115635D01*
X147907Y116271D01*
X148031Y116897D01*
X148217Y117508D01*
X148461Y118098D01*
X148762Y118662D01*
X149117Y119193D01*
X149522Y119686D01*
X149974Y120138D01*
X150467Y120543D01*
X150998Y120898D01*
X151562Y121199D01*
X152152Y121443D01*
X152763Y121629D01*
X153389Y121753D01*
X154025Y121816D01*
X154663Y121816D01*
X80139Y120566D02*
X80725Y120500D01*
X81300Y120369D01*
X81856Y120174D01*
X82388Y119918D01*
X82887Y119604D01*
X83348Y119237D01*
X83765Y118820D01*
X84132Y118359D01*
X84446Y117860D01*
X84702Y117328D01*
X84897Y116772D01*
X85028Y116197D01*
X85094Y115611D01*
X85094Y115021D01*
X85028Y114435D01*
X84897Y113860D01*
X84702Y113304D01*
X84446Y112772D01*
X84132Y112273D01*
X83765Y111812D01*
X83348Y111395D01*
X82887Y111028D01*
X82388Y110714D01*
X81856Y110458D01*
X81300Y110263D01*
X80725Y110132D01*
X80139Y110066D01*
X79549Y110066D01*
X78963Y110132D01*
X78388Y110263D01*
X77832Y110458D01*
X77300Y110714D01*
X76801Y111028D01*
X76340Y111395D01*
X75923Y111812D01*
X75556Y112273D01*
X75242Y112772D01*
X74986Y113304D01*
X74791Y113860D01*
X74660Y114435D01*
X74594Y115021D01*
X74594Y115611D01*
X74660Y116197D01*
X74791Y116772D01*
X74986Y117328D01*
X75242Y117860D01*
X75556Y118359D01*
X75923Y118820D01*
X76340Y119237D01*
X76801Y119604D01*
X77300Y119918D01*
X77832Y120174D01*
X78388Y120369D01*
X78963Y120500D01*
X79549Y120566D01*
X80139Y120566D01*
M02*
