G04 EAGLE Gerber RS-274X export*
G75*
%MOMM*%
%FSLAX34Y34*%
%LPD*%
%INSoldermask Top*%
%IPPOS*%
%AMOC8*
5,1,8,0,0,1.08239X$1,22.5*%
G01*
%ADD10R,1.103200X1.003200*%
%ADD11R,0.803200X2.403200*%
%ADD12R,1.703200X1.203200*%
%ADD13R,1.203200X1.703200*%
%ADD14R,6.203200X6.203200*%
%ADD15P,2.556822X8X112.500000*%
%ADD16R,1.103200X0.853200*%
%ADD17R,1.003200X1.103200*%
%ADD18R,0.853200X1.103200*%
%ADD19C,2.453200*%
%ADD20R,0.623200X1.023200*%
%ADD21R,1.603200X1.103200*%
%ADD22C,1.625600*%
%ADD23C,1.403200*%
%ADD24R,2.153200X2.153200*%
%ADD25C,2.153200*%
%ADD26R,4.703200X2.503200*%
%ADD27C,1.503200*%
%ADD28C,1.253200*%
%ADD29R,1.183200X0.983200*%
%ADD30R,1.023200X0.623200*%
%ADD31R,1.203200X1.603200*%
%ADD32R,0.853200X2.153200*%
%ADD33P,1.852186X8X22.500000*%
%ADD34R,0.983200X1.183200*%
%ADD35P,2.034460X8X22.500000*%
%ADD36R,1.953200X1.153200*%
%ADD37R,1.953200X3.403200*%
%ADD38C,1.727200*%
%ADD39R,1.723200X1.133200*%
%ADD40C,6.203200*%
%ADD41R,1.371600X1.803400*%
%ADD42R,0.152400X1.828800*%


D10*
X317914Y463652D03*
X317914Y444652D03*
X337914Y454152D03*
D11*
X251714Y113004D03*
X277114Y205004D03*
X239014Y113004D03*
X264414Y113004D03*
X277114Y113004D03*
X264414Y205004D03*
X289814Y205004D03*
X302514Y205004D03*
X302514Y113004D03*
X327914Y205004D03*
X289814Y113004D03*
X315214Y113004D03*
X315214Y205004D03*
X327914Y113004D03*
X251714Y205004D03*
X239014Y205004D03*
D12*
X103080Y371498D03*
X103080Y358798D03*
X103080Y346098D03*
X103080Y333398D03*
X103080Y320698D03*
X103080Y307998D03*
X103080Y295298D03*
X103080Y282598D03*
D13*
X252880Y227098D03*
D12*
X288080Y244498D03*
X288080Y257198D03*
X288080Y269898D03*
X288080Y282598D03*
X288080Y295298D03*
X288080Y307998D03*
X288080Y320698D03*
D13*
X163980Y227098D03*
D12*
X103080Y269898D03*
X103080Y257198D03*
X103080Y244498D03*
D13*
X138580Y227098D03*
X151280Y227098D03*
D12*
X103080Y384198D03*
X103080Y396898D03*
X103080Y409598D03*
D13*
X176680Y227098D03*
X189380Y227098D03*
X202080Y227098D03*
X240180Y227098D03*
X227480Y227098D03*
X214780Y227098D03*
D12*
X288080Y333398D03*
X288080Y346098D03*
X288080Y358798D03*
X288080Y371498D03*
X288080Y384198D03*
X288080Y396898D03*
X288080Y409598D03*
D14*
X198580Y332598D03*
D15*
X393954Y314960D03*
X393954Y391160D03*
D16*
X301244Y454776D03*
X301244Y469276D03*
D17*
X527914Y284320D03*
X508914Y284320D03*
X518414Y264320D03*
D18*
X508624Y331978D03*
X523124Y331978D03*
X508878Y306324D03*
X523378Y306324D03*
D19*
X438714Y203862D03*
X378714Y183862D03*
X378714Y61862D03*
X498714Y61862D03*
X498714Y183862D03*
D20*
X463042Y286836D03*
X463042Y263836D03*
D21*
X484632Y264312D03*
X484632Y283312D03*
D16*
X491236Y306694D03*
X491236Y321194D03*
D18*
X328814Y252222D03*
X314314Y252222D03*
X328814Y240538D03*
X314314Y240538D03*
D22*
X607206Y101374D02*
X607206Y87150D01*
X582206Y87150D02*
X582206Y101374D01*
X657206Y101374D02*
X657206Y87150D01*
X682206Y87150D02*
X682206Y101374D01*
X634318Y44262D02*
X620094Y44262D01*
D23*
X582206Y19262D03*
X582206Y44262D03*
X632206Y94262D03*
X682206Y19262D03*
X682206Y44262D03*
D24*
X270002Y41148D03*
D25*
X320802Y41148D03*
D26*
X199094Y115316D03*
X35094Y115316D03*
D27*
X154344Y115316D03*
D28*
X79844Y115316D03*
D29*
X219202Y162956D03*
X219202Y148956D03*
X218948Y189372D03*
X218948Y175372D03*
D30*
X123120Y23876D03*
X146120Y23876D03*
D31*
X164744Y23876D03*
X183744Y23876D03*
D32*
X545592Y271520D03*
X558292Y271520D03*
X570992Y271520D03*
X583692Y271520D03*
X596392Y271520D03*
X609092Y271520D03*
X621792Y271520D03*
X634492Y271520D03*
X647192Y271520D03*
X659892Y271520D03*
X659892Y366020D03*
X647192Y366020D03*
X634492Y366020D03*
X621792Y366020D03*
X609092Y366020D03*
X596392Y366020D03*
X583692Y366020D03*
X570992Y366020D03*
X558292Y366020D03*
X545592Y366020D03*
D33*
X522732Y428498D03*
X522732Y453898D03*
X548132Y428498D03*
X548132Y453898D03*
X573532Y428498D03*
X573532Y453898D03*
X598932Y428498D03*
X598932Y453898D03*
X624332Y428498D03*
X624332Y453898D03*
X649732Y428498D03*
X649732Y453898D03*
X675132Y428498D03*
X675132Y453898D03*
X700532Y428498D03*
X700532Y453898D03*
D34*
X509636Y366522D03*
X523636Y366522D03*
D35*
X543052Y118364D03*
X543052Y92964D03*
X720852Y118364D03*
X720852Y92964D03*
X543052Y67564D03*
X543052Y143764D03*
X720852Y143764D03*
X720852Y67564D03*
X543052Y169164D03*
X720852Y169164D03*
X543052Y42164D03*
X720852Y42164D03*
X543052Y194564D03*
X720852Y194564D03*
X543052Y16764D03*
X720852Y16764D03*
D29*
X81534Y424830D03*
X81534Y410830D03*
D16*
X76962Y223150D03*
X76962Y208650D03*
X76708Y248296D03*
X76708Y233796D03*
D22*
X53086Y220726D02*
X38862Y220726D01*
X38862Y246126D02*
X53086Y246126D01*
D16*
X65024Y398664D03*
X65024Y384164D03*
D29*
X81788Y398668D03*
X81788Y384668D03*
D36*
X721102Y292240D03*
X721102Y269240D03*
X721102Y246240D03*
D37*
X784102Y269240D03*
D29*
X751586Y204074D03*
X751586Y218074D03*
X720090Y333390D03*
X720090Y319390D03*
D38*
X51816Y366776D02*
X36576Y366776D01*
X36576Y341376D02*
X51816Y341376D01*
X51816Y315976D02*
X36576Y315976D01*
X36576Y290576D02*
X51816Y290576D01*
D24*
X815848Y41402D03*
D25*
X866648Y41402D03*
D39*
X783336Y195994D03*
X783336Y215994D03*
D29*
X765810Y203820D03*
X765810Y217820D03*
D16*
X757936Y70496D03*
X757936Y55996D03*
D21*
X758444Y20218D03*
X758444Y39218D03*
D40*
X40132Y443230D03*
X928370Y442722D03*
X40386Y39370D03*
X928878Y39878D03*
D24*
X861060Y441452D03*
D25*
X810260Y441452D03*
D38*
X447040Y450088D02*
X447040Y465328D01*
X421640Y465328D02*
X421640Y450088D01*
X396240Y450088D02*
X396240Y465328D01*
X370840Y465328D02*
X370840Y450088D01*
D41*
X85852Y73406D03*
X101092Y73406D03*
D42*
X93472Y73406D03*
M02*
