G04 EAGLE Gerber RS-274X export*
G75*
%MOMM*%
%FSLAX34Y34*%
%LPD*%
%INSoldermask Bottom*%
%IPPOS*%
%AMOC8*
5,1,8,0,0,1.08239X$1,22.5*%
G01*
%ADD10C,2.540000*%
%ADD11P,2.556822X8X112.500000*%
%ADD12C,2.453200*%
%ADD13C,1.625600*%
%ADD14C,1.403200*%
%ADD15R,2.153200X2.153200*%
%ADD16C,2.153200*%
%ADD17C,1.503200*%
%ADD18C,1.253200*%
%ADD19P,1.852186X8X22.500000*%
%ADD20P,2.034460X8X22.500000*%
%ADD21C,1.727200*%
%ADD22C,6.203200*%
%ADD23R,1.371600X1.803400*%
%ADD24R,0.152400X1.828800*%


D10*
X866648Y41402D02*
X866648Y383794D01*
X815848Y373380D02*
X815848Y41402D01*
X810260Y378968D02*
X810260Y441452D01*
X861060Y441452D02*
X861060Y389382D01*
X866648Y383794D01*
X815848Y373380D02*
X810260Y378968D01*
D11*
X393954Y314960D03*
X393954Y391160D03*
D12*
X438714Y203862D03*
X378714Y183862D03*
X378714Y61862D03*
X498714Y61862D03*
X498714Y183862D03*
D13*
X607206Y101374D02*
X607206Y87150D01*
X582206Y87150D02*
X582206Y101374D01*
X657206Y101374D02*
X657206Y87150D01*
X682206Y87150D02*
X682206Y101374D01*
X634318Y44262D02*
X620094Y44262D01*
D14*
X582206Y19262D03*
X582206Y44262D03*
X632206Y94262D03*
X682206Y19262D03*
X682206Y44262D03*
D15*
X270002Y41148D03*
D16*
X320802Y41148D03*
D17*
X154344Y115316D03*
D18*
X79844Y115316D03*
D19*
X522732Y428498D03*
X522732Y453898D03*
X548132Y428498D03*
X548132Y453898D03*
X573532Y428498D03*
X573532Y453898D03*
X598932Y428498D03*
X598932Y453898D03*
X624332Y428498D03*
X624332Y453898D03*
X649732Y428498D03*
X649732Y453898D03*
X675132Y428498D03*
X675132Y453898D03*
X700532Y428498D03*
X700532Y453898D03*
D20*
X543052Y118364D03*
X543052Y92964D03*
X720852Y118364D03*
X720852Y92964D03*
X543052Y67564D03*
X543052Y143764D03*
X720852Y143764D03*
X720852Y67564D03*
X543052Y169164D03*
X720852Y169164D03*
X543052Y42164D03*
X720852Y42164D03*
X543052Y194564D03*
X720852Y194564D03*
X543052Y16764D03*
X720852Y16764D03*
D13*
X53086Y220726D02*
X38862Y220726D01*
X38862Y246126D02*
X53086Y246126D01*
D21*
X51816Y366776D02*
X36576Y366776D01*
X36576Y341376D02*
X51816Y341376D01*
X51816Y315976D02*
X36576Y315976D01*
X36576Y290576D02*
X51816Y290576D01*
D15*
X815848Y41402D03*
D16*
X866648Y41402D03*
D22*
X40132Y443230D03*
X928370Y442722D03*
X40386Y39370D03*
X928878Y39878D03*
D15*
X861060Y441452D03*
D16*
X810260Y441452D03*
D23*
X101092Y73660D03*
X85852Y73660D03*
D24*
X93472Y73660D03*
D21*
X447040Y450088D02*
X447040Y465328D01*
X421640Y465328D02*
X421640Y450088D01*
X396240Y450088D02*
X396240Y465328D01*
X370840Y465328D02*
X370840Y450088D01*
M02*
